<svg xmlns="http://www.w3.org/2000/svg" width="54" height="54"><path d="M24.066 5a.731.731 0 0 0-.732.734v6.723a15.012 15.012 0 0 0-4.023 1.669l-4.756-4.757a.732.732 0 0 0-1.037 0l-4.149 4.149a.732.732 0 0 0 0 1.037l4.759 4.758a15.012 15.012 0 0 0-1.666 4.02H5.734a.731.731 0 0 0-.734.733v5.868c0 .406.328.732.734.732h6.723a15.012 15.012 0 0 0 1.669 4.023l-4.757 4.756a.732.732 0 0 0 0 1.037l4.149 4.149a.732.732 0 0 0 1.037 0l4.758-4.759a15.012 15.012 0 0 0 4.02 1.666v6.728c0 .406.327.734.733.734h5.868a.731.731 0 0 0 .732-.734v-6.723a15.012 15.012 0 0 0 4.023-1.669l4.756 4.757a.732.732 0 0 0 1.037 0l4.149-4.149a.732.732 0 0 0 0-1.037l-4.759-4.758a15.012 15.012 0 0 0 1.666-4.02h6.728a.731.731 0 0 0 .734-.733v-5.868a.731.731 0 0 0-.734-.732h-6.723a15.012 15.012 0 0 0-1.669-4.023l4.757-4.756a.732.732 0 0 0 0-1.037l-4.149-4.149a.732.732 0 0 0-1.037 0l-4.758 4.759a15.012 15.012 0 0 0-4.02-1.666V5.734A.731.731 0 0 0 29.933 5h-5.868zM27 19.172A7.827 7.827 0 0 1 34.828 27 7.827 7.827 0 0 1 27 34.828 7.827 7.827 0 0 1 19.172 27 7.827 7.827 0 0 1 27 19.172z"/></svg>