<svg width="54" height="54" version="1.1" viewBox="0 0 54 54" xmlns="http://www.w3.org/2000/svg">
 <path d="m24.065814 5c-0.40626 0-0.732176 0.3277415-0.732176 0.7340029v6.7228811a15.012012 15.012012 0 0 0 -4.022409 1.668853l-4.75641-4.756412c-0.287271-0.2872697-0.749829-0.2872697-1.037099 0l-4.1483944 4.148395c-0.2872697 0.287269-0.2872697 0.749828 0 1.037097l4.7582384 4.758238a15.012012 15.012012 0 0 0 -1.665201 4.020583h-6.7283601c-0.406261 0-0.7340028 0.325915-0.7340028 0.732176v5.868372c0 0.40626 0.3277418 0.732176 0.7340028 0.732176h6.7228821a15.012012 15.012012 0 0 0 1.668852 4.022409l-4.7564114 4.756411c-0.2872697 0.28727-0.2872697 0.749828 0 1.037099l4.1483944 4.148393c0.28727 0.28727 0.749828 0.28727 1.037099 0l4.758236-4.758237a15.012012 15.012012 0 0 0 4.020583 1.665201v6.728359c0 0.406261 0.325916 0.734002 0.732176 0.734002h5.868371c0.406262 0 0.732178-0.327741 0.732178-0.734002v-6.722882a15.012012 15.012012 0 0 0 4.022407 -1.668852l4.756413 4.756411c0.287269 0.28727 0.749828 0.28727 1.037097 0l4.148395-4.148393c0.28727-0.287271 0.28727-0.749829 0-1.037099l-4.758238-4.758238a15.012012 15.012012 0 0 0 1.665201 -4.020582h6.728359c0.406261 0 0.734003-0.325916 0.734003-0.732176v-5.868372c0-0.406261-0.327742-0.732176-0.734003-0.732176h-6.722881a15.012012 15.012012 0 0 0 -1.668853 -4.022408l4.756412-4.756413c0.28727-0.287269 0.28727-0.749828 0-1.037097l-4.148395-4.148395c-0.287269-0.2872697-0.749828-0.2872697-1.037097 0l-4.758238 4.758238a15.012012 15.012012 0 0 0 -4.020582 -1.6652v-6.7283601c0-0.4062614-0.325916-0.7340029-0.732178-0.7340029h-5.868371zm2.934186 14.172463a7.8274219 7.8274219 0 0 1 7.827537 7.827537 7.8274219 7.8274219 0 0 1 -7.827537 7.827538 7.8274219 7.8274219 0 0 1 -7.827538 -7.827538 7.8274219 7.8274219 0 0 1 7.827538 -7.827537z"/>
</svg>
