<svg width="44" height="44" version="1.1" viewBox="0 0 44 44" xmlns="http://www.w3.org/2000/svg">
 <path d="m22 1.5c-11.28038 0-20.5 9.21962-20.5 20.5s9.21962 20.5 20.5 20.5 20.5-9.21962 20.5-20.5-9.21962-20.5-20.5-20.5zm0 7c2.420219 0 4.679647 0.6330173 6.636719 1.732422l-18.404297 18.404297c-1.0994047-1.957072-1.732422-4.2165-1.732422-6.636719 0-7.4973 6.0027-13.5 13.5-13.5zm11.757812 6.847656c1.105023 1.960745 1.742188 4.225491 1.742188 6.652344 0 7.4973-6.0027 13.5-13.5 13.5-2.436622 0-4.709648-0.642544-6.675781-1.755859l18.433593-18.396485z" fill="#f00"/>
</svg>
