<svg xmlns="http://www.w3.org/2000/svg" width="54" height="54"><path d="M8.5 8c-1.662 0-3 1.338-3 3v32c0 1.662 1.338 3 3 3h37c1.662 0 3-1.338 3-3V11c0-1.662-1.338-3-3-3h-37zm26.25 1.5a1.75 1.75 0 0 1 1.75 1.75A1.75 1.75 0 0 1 34.75 13 1.75 1.75 0 0 1 33 11.25a1.75 1.75 0 0 1 1.75-1.75zm5 0a1.75 1.75 0 0 1 1.75 1.75A1.75 1.75 0 0 1 39.75 13 1.75 1.75 0 0 1 38 11.25a1.75 1.75 0 0 1 1.75-1.75zm5 0a1.75 1.75 0 0 1 1.75 1.75A1.75 1.75 0 0 1 44.75 13 1.75 1.75 0 0 1 43 11.25a1.75 1.75 0 0 1 1.75-1.75zm-37 5.5h38.5v28.5H7.75V15zm20.72 6.291c-.362 0-.605.106-.73.318s-.255.607-.392 1.182l-2.616 10.807c-.125.575-.187.934-.187 1.078 0 .55.318.824.955.824.256 0 .45-.059.582-.178a.956.956 0 0 0 .299-.478c.069-.206.147-.488.234-.844l2.625-10.807c.131-.512.198-.865.198-1.058 0-.263-.086-.47-.254-.62-.163-.15-.4-.224-.713-.224zm-5.04 1.959L14 27.336v2.27l9.43 4.085V31.04l-6.57-2.588 6.57-2.53V23.25zm7.14.037v2.635l6.59 2.549-6.59 2.586v2.652L40 29.605v-2.25l-9.43-4.068z"/></svg>