<svg xmlns:rdf="http://www.w3.org/1999/02/22-rdf-syntax-ns#" xmlns="http://www.w3.org/2000/svg" height="54" width="54" version="1.1" xmlns:cc="http://creativecommons.org/ns#" xmlns:dc="http://purl.org/dc/elements/1.1/" viewBox="0 0 54 54">
 <path d="m8.5 8c-1.662 0-3 1.338-3 3v32c0 1.662 1.338 3 3 3h37c1.662 0 3-1.338 3-3v-32c0-1.662-1.338-3-3-3h-37zm26.25 1.5a1.75 1.75 0 0 1 1.75 1.75 1.75 1.75 0 0 1 -1.75 1.75 1.75 1.75 0 0 1 -1.75 -1.75 1.75 1.75 0 0 1 1.75 -1.75zm5 0a1.75 1.75 0 0 1 1.75 1.75 1.75 1.75 0 0 1 -1.75 1.75 1.75 1.75 0 0 1 -1.75 -1.75 1.75 1.75 0 0 1 1.75 -1.75zm5 0a1.75 1.75 0 0 1 1.75 1.75 1.75 1.75 0 0 1 -1.75 1.75 1.75 1.75 0 0 1 -1.75 -1.75 1.75 1.75 0 0 1 1.75 -1.75zm-37 5.5h38.5v28.5h-38.5v-28.5zm20.720703 6.291016c-0.362413 0-0.605499 0.10591-0.730469 0.318359s-0.25511 0.606779-0.392578 1.181641l-2.615234 10.80664c-0.12497 0.574862-0.1875 0.93441-0.1875 1.078125 0 0.549868 0.317731 0.824219 0.955078 0.824219 0.256189 0 0.450813-0.059013 0.582031-0.177734 0.137465-0.112474 0.236342-0.272316 0.298828-0.478516 0.068734-0.206201 0.146897-0.487585 0.234375-0.84375l2.625-10.806641c0.131219-0.512377 0.197266-0.86489 0.197266-1.058593 0-0.262437-0.085197-0.469177-0.253906-0.619141-0.162462-0.149964-0.400466-0.224609-0.712891-0.224609zm-5.041015 1.958984l-9.429688 4.085938v2.269531l9.429688 4.085937v-2.652344l-6.570313-2.58789 6.570313-2.529297v-2.671875zm7.140624 0.037109v2.634766l6.589844 2.548828-6.589844 2.585938v2.652343l9.429688-4.103515v-2.25l-9.429688-4.06836z"/>
</svg>
