<svg xmlns="http://www.w3.org/2000/svg" width="45" height="45"><path d="M41.638 7.291q-2.694 0-4.788 2.397c-2.094 2.397-2.477 4.038-3.244 7.317l-6.407.113 1.562-4.992c.183-.682-1.568-1.213-1.956-.54l-1.734 5.442-3.192.233c-.502.037-.446 1.232.042 1.229l2.746-.019-3.593 11.257c-.658.542-1.427 1.24-2.233 1.066-.46-.1-.769-.632-.91-1.081-.442-1.416.472-2.95.413-4.433-.034-.87-.059-1.796-.446-2.577-.493-.993-1.04-1.64-2.265-2.433q2.951-.594 4.53-2.252 1.596-1.657 1.596-3.892 0-2.325-1.785-3.802-1.785-1.46-5.989-1.459H5.937a19 19 0 0 0-1.22-.054q-.393 0-.394.323 0 .253.413.343c1.718.305 2.78.944 2.419 2.29L2.918 29.965c-.422 1.12-1.267 1.307-2.181 1.514q-.737.09-.737.395 0 .29.463.289l8.442.073q.636 0 .637-.397-.001-.289-.517-.324-2.505-.181-2.505-1.766l2.249-9.479c.846-.035 4.173-.51 5.41.831 1.563 1.696.991 4.546.493 6.9-.206.985-.393 1.523-.309 2.288.068.605.204 1.282.635 1.712.384.382.985.535 1.526.559.853.037 1.636-.222 2.471-.667.712-.378 1.344-.78 1.923-1.193a1.65 1.65 0 0 0 .36 1.5c.278.32.657.467 1.183.467q2.283 0 4.394-2.126 2.128-2.144 2.128-2.611c0-.168-.175-.247-.308-.253-.23-.008-.35.132-.567.396q-2.505 3.063-3.774 3.063-.773 0-.773-1.08c0-1.094.927-4.17 2.539-9.227l.814-2.484 6.377-.059c-.183.625-.536 1.979-1.143 4.501q-2.3 9.604-4.016 13.857-1.7 4.27-4.067 4.27-.635 0-1.012-.36-.394-.342-.394-.756 0-.288.24-.848.205-.468.204-.792 0-.54-.41-.936a1.42 1.42 0 0 0-.995-.379q-.67 0-1.134.558t-.462 1.352q0 1.207 1.029 2.073 1.012.883 2.573.883 2.608 0 4.668-2.307 2.077-2.288 3.45-7.207l3.713-13.801 3.416-.089.266-1.445-3.26-.072q1.32-5.261 2.643-6.99 1.321-1.75 2.986-1.75.617 0 .909.217.309.198.308.613.001.289-.256.648-.395.594-.395.99 0 .56.395.938.412.36.961.36.67 0 1.081-.505A1.84 1.84 0 0 0 45 10.138q0-1.117-.891-1.98-.893-.866-2.471-.867m-22.92 6.312c-.165 4.888-5.833 6.008-9.777 5.857l2.437-9.64c2.993-.516 7.293.353 7.34 3.783"/></svg>