<svg width="45" height="45" version="1.1" viewBox="0 0 45 45" xmlns="http://www.w3.org/2000/svg">
 <path d="m41.637785 7.291066c-1.796105 0-3.392108 0.799276-4.787808 2.396956s-2.477383 4.037575-3.243874 7.317023l-6.407054 0.11297 1.561866-4.991619c0.182977-0.68288-1.567911-1.21323-1.956371-0.540398l-1.734011 5.441636-3.191871 0.233486c-0.501956 0.03671-0.445828 1.232021 0.04273 1.22867l2.745369-0.01883-3.593246 11.256967c-0.65743 0.542522-1.426541 1.240077-2.232516 1.065732-0.460133-0.09954-0.768545-0.631506-0.909145-1.080796-0.443162-1.416123 0.470827-2.949694 0.412427-4.43239-0.03432-0.871358-0.0589-1.796557-0.446503-2.577717-0.492446-0.99247-1.040698-1.639898-2.264795-2.432732 1.967707-0.396415 3.477095-1.146809 4.529589-2.25197 1.063934-1.105162 1.595935-2.402428 1.595935-3.891994 0-1.549628-0.594443-2.816578-1.78422-3.801612-1.18976-0.973023-3.186389-1.459262-5.989227-1.459262h-8.0478204c-0.526247-0.03604-0.9333628-0.0546-1.2193665-0.0546-0.2631236 0-0.3945011 0.107635-0.3945011 0.323862 0 0.168177 0.1378691 0.282628 0.4124328 0.342691 1.7182262 0.304433 2.7795152 0.9442 2.4190083 2.28963l-4.2372991 18.198408c-0.421639 1.119465-1.2666621 1.307187-2.1805144 1.513867-0.4919267 0.060062-0.7369996 0.191198-0.7369996 0.395412 0 0.192204 0.1537579 0.288087 0.462642 0.288087l8.44232 0.07344c0.423287 0 0.636582-0.133017 0.636582-0.397296 0-0.192202-0.173233-0.299838-0.516438-0.323861-1.670262-0.120127-2.5050809-0.709066-2.5050809-1.766179l2.2486559-9.478614c0.846426-0.03489 4.173549-0.510171 5.410344 0.831301 1.562995 1.695279 0.991101 4.545858 0.492825 6.899959-0.205923 0.985037-0.393339 1.522964-0.308428 2.287747 0.06715 0.604783 0.203678 1.282137 0.634788 1.711574 0.383817 0.382328 0.984776 0.535455 1.526002 0.559226 0.852289 0.03744 1.635879-0.222085 2.471009-0.666553 0.711585-0.378715 1.343603-0.780172 1.922296-1.193771-0.139709 0.585238 0.02301 1.112345 0.360433 1.500687 0.278158 0.320136 0.657257 0.466964 1.183503 0.466964 1.521541 0 2.986167-0.708325 4.393305-2.125816 1.41858-1.429503 2.128512-2.29928 2.128512-2.611608 0-0.168177-0.175696-0.247238-0.308426-0.252311-0.230155-0.0087-0.349284 0.131135-0.566646 0.395413-1.670264 2.042147-2.928087 3.063508-3.774658 3.063508-0.514808 0-0.772864-0.360037-0.772864-1.080794 0-1.093151 0.927209-4.168987 2.539152-9.226304l0.813807-2.484446 6.376907-0.05885c-0.183042 0.624656-0.53597 1.97887-1.142297 4.501522-1.532981 6.402732-2.872722 11.02142-4.016737 13.856401-1.132575 2.846993-2.488205 4.270461-4.066945 4.270461-0.423288 0-0.759675-0.119386-1.011358-0.359638-0.263124-0.22824-0.394501-0.480643-0.394501-0.756934 0-0.192202 0.08012-0.474921 0.240286-0.847314 0.137283-0.312329 0.204425-0.57648 0.204425-0.792709 0-0.360378-0.136076-0.671532-0.41064-0.93581-0.274566-0.252266-0.606254-0.378466-0.995219-0.378466-0.446167 0-0.824409 0.184952-1.133293 0.557343-0.308885 0.372392-0.462643 0.823381-0.462643 1.351936 0 0.804847 0.342879 1.496487 1.029289 2.073094 0.674969 0.588619 1.532168 0.883089 2.573221 0.883089 1.738904 0 3.294847-0.76896 4.667665-2.306576 1.384259-1.525604 2.534878-3.928366 3.45009-7.207813l3.713389-13.80079 3.41602-0.0885 0.26568-1.445203-3.260011-0.07156c0.88089-3.507688 1.762264-5.838066 2.643155-6.99128 0.880893-1.165225 1.87596-1.749231 2.985655-1.749231 0.411846 0 0.714663 0.07239 0.909145 0.216535 0.205924 0.132139 0.308429 0.337541 0.308429 0.613832 0 0.192202-0.08483 0.407471-0.256426 0.647724-0.263123 0.396417-0.394501 0.726137-0.394501 0.990415 0 0.372392 0.131378 0.68543 0.394501 0.937695 0.274564 0.240252 0.595063 0.359637 0.961148 0.359637 0.446166 0 0.806728-0.168268 1.081291-0.504622 0.274564-0.348366 0.41064-0.738721 0.41064-1.171176 0-0.744783-0.296327-1.404225-0.891213-1.980831-0.594885-0.576585-1.418513-0.866121-2.471002-0.866124zm-22.919426 6.312014c-0.164869 4.887737-5.833448 6.007986-9.777533 5.857287l2.436941-9.640541c2.993353-0.51566 7.293316 0.353322 7.340592 3.783254z"/>
</svg>
