<svg xmlns="http://www.w3.org/2000/svg" width="45" height="45"><path d="M41.638 7.291c-1.796 0-3.392.8-4.788 2.397s-2.477 4.038-3.244 7.317l-6.407.113 1.562-4.992c.183-.682-1.568-1.213-1.956-.54l-1.734 5.442-3.192.233c-.502.037-.446 1.232.042 1.229l2.746-.019-3.593 11.257c-.658.542-1.427 1.24-2.233 1.066-.46-.1-.769-.632-.91-1.081-.442-1.416.472-2.95.413-4.433-.034-.87-.059-1.796-.446-2.577-.493-.993-1.04-1.64-2.265-2.433 1.968-.396 3.477-1.147 4.53-2.252 1.064-1.105 1.596-2.402 1.596-3.892 0-1.55-.595-2.817-1.785-3.802-1.19-.973-3.186-1.459-5.989-1.459H5.937a19.234 19.234 0 0 0-1.22-.054c-.262 0-.394.107-.394.323 0 .169.138.283.413.343 1.718.305 2.78.944 2.419 2.29L2.918 29.965c-.422 1.12-1.267 1.307-2.181 1.514-.492.06-.737.191-.737.395 0 .193.154.289.463.289l8.442.073c.423 0 .637-.133.637-.397 0-.193-.174-.3-.517-.324-1.67-.12-2.505-.71-2.505-1.766l2.249-9.479c.846-.035 4.173-.51 5.41.831 1.563 1.696.991 4.546.493 6.9-.206.985-.393 1.523-.309 2.288.068.605.204 1.282.635 1.712.384.382.985.535 1.526.559.853.037 1.636-.222 2.471-.667.712-.378 1.344-.78 1.923-1.193a1.65 1.65 0 0 0 .36 1.5c.278.32.657.467 1.183.467 1.522 0 2.987-.708 4.394-2.126 1.418-1.43 2.128-2.299 2.128-2.611 0-.168-.175-.247-.308-.253-.23-.008-.35.132-.567.396-1.67 2.042-2.928 3.063-3.774 3.063-.515 0-.773-.36-.773-1.08 0-1.094.927-4.17 2.539-9.227l.814-2.484 6.377-.059c-.183.625-.536 1.979-1.143 4.501-1.533 6.403-2.872 11.022-4.016 13.857-1.133 2.847-2.489 4.27-4.067 4.27-.424 0-.76-.119-1.012-.36-.263-.228-.394-.48-.394-.756 0-.192.08-.475.24-.848.137-.312.204-.576.204-.792 0-.36-.136-.672-.41-.936a1.419 1.419 0 0 0-.995-.379c-.447 0-.825.185-1.134.558-.309.372-.462.823-.462 1.352 0 .805.342 1.496 1.029 2.073.675.588 1.532.883 2.573.883 1.739 0 3.295-.769 4.668-2.307 1.384-1.525 2.535-3.928 3.45-7.207l3.713-13.801 3.416-.089.266-1.445-3.26-.072c.88-3.507 1.762-5.838 2.643-6.99.881-1.166 1.876-1.75 2.986-1.75.412 0 .714.072.909.217.206.132.308.337.308.613 0 .193-.084.408-.256.648-.263.396-.395.726-.395.99 0 .373.132.686.395.938.274.24.595.36.961.36.446 0 .807-.168 1.081-.505A1.84 1.84 0 0 0 45 10.138c0-.745-.296-1.404-.891-1.98-.595-.577-1.419-.867-2.471-.867zm-22.92 6.312c-.165 4.888-5.833 6.008-9.777 5.857l2.437-9.64c2.993-.516 7.293.353 7.34 3.783z"/></svg>