<svg width="45" height="45" version="1.1" viewBox="0 0 45 45" xmlns="http://www.w3.org/2000/svg">
 <g fill="none" shape-rendering="auto" stroke="#000" stroke-miterlimit="10">
  <path transform="matrix(.04423299 0 0 .04447367 98.992537 13.78902)" d="m-1732.7623-63.755707 247.3237 179.69121-94.4693 290.74646-305.7089-1e-5 -94.4692-290.74647z" color="#000000" color-rendering="auto" image-rendering="auto" solid-color="#000000" stroke-linecap="round" stroke-linejoin="round" stroke-width="90.185226" style="isolation:auto;mix-blend-mode:normal"/>
  <path transform="matrix(.14215475 0 0 .14246242 253.57637 -66.569682)" d="m-1625.5269 492.09538 78.246 25.42364 48.3586 66.55995v82.27261l-48.3587 66.55995-78.2459 25.42363-78.2459-25.42364-48.3586-66.55994v-82.27262l48.3586-66.55994z" color="#000000" color-rendering="auto" image-rendering="auto" solid-color="#000000" stroke-linecap="round" stroke-linejoin="round" stroke-width="28.107948" style="isolation:auto;mix-blend-mode:normal"/>
  <path d="m22.500002 3.5354208-0.152718 7.4181492" color-interpolation="auto" color-rendering="auto" image-rendering="auto" stroke-width="4.0000005"/>
  <path d="m40.497439 16.639625-7.210289 2.305472" color-interpolation="auto" color-rendering="auto" image-rendering="auto" stroke-width="4.0000005"/>
  <path d="m33.623031 37.842672-4.514537-5.967013" color-interpolation="auto" color-rendering="auto" image-rendering="auto" stroke-width="4.0000005"/>
  <path d="m15.586074 31.875659-4.209099 5.967013" color-interpolation="auto" color-rendering="auto" image-rendering="auto" stroke-width="4.0000005"/>
  <path d="m11.407415 18.945097-6.9048511-2.305472" color-interpolation="auto" color-rendering="auto" image-rendering="auto" stroke-width="4.0000005"/>
 </g>
</svg>
