<svg xmlns="http://www.w3.org/2000/svg" width="45" height="45"><g fill="none" stroke="#000" stroke-miterlimit="10"><path stroke-linecap="round" stroke-linejoin="round" stroke-width="90.185" d="M-1732.762-63.756l247.323 179.692-94.469 290.746h-305.709l-94.469-290.747z" color="#000" solid-color="#000000" style="isolation:auto;mix-blend-mode:normal" transform="matrix(.04423 0 0 .04447 98.993 13.789)"/><path stroke-linecap="round" stroke-linejoin="round" stroke-width="28.108" d="M-1625.527 492.095l78.246 25.424 48.359 66.56v82.273l-48.359 66.56-78.246 25.423-78.246-25.423-48.358-66.56v-82.273l48.358-66.56z" color="#000" solid-color="#000000" style="isolation:auto;mix-blend-mode:normal" transform="matrix(.14215 0 0 .14246 253.576 -66.57)"/><path stroke-width="4" d="M22.5 3.535l-.153 7.419M40.497 16.64l-7.21 2.305M33.623 37.843l-4.515-5.967M15.586 31.876l-4.209 5.967M11.407 18.945L4.503 16.64" color-interpolation="auto"/></g></svg>