<svg xmlns="http://www.w3.org/2000/svg" width="45" height="45"><g fill="none" stroke="#000" stroke-linecap="round" stroke-miterlimit="10" stroke-width="1.5"><ellipse cy="31.82" stroke-linejoin="round" color="#000" rx="23.855" ry="13.84" style="isolation:auto;mix-blend-mode:normal" transform="rotate(-45)"/><path stroke-linejoin="round" d="M35.693 28.324a13.84 10.205 45 0 1-15.087-4.073 13.84 10.205 45 0 1-3.86-15.079m23.8 10.762a10.994 7.328 45 0 1-12.412-3.02A10.994 7.328 45 0 1 25.039 4.49m16.798 6.515a5.855 3.614 45 0 1-4.341 1.415 5.855 3.614 45 0 1-4.9-4.872 5.855 3.614 45 0 1 1.365-4.375M21.076 40.072a11.64 7.328 45 0 1-11.765-3.427 11.64 7.328 45 0 1-4.727-11.899M28.76 35.384a14.133 10.205 45 0 1-14.768-4.488 14.133 10.205 45 0 1-4.329-14.765" color="#000" style="isolation:auto;mix-blend-mode:normal"/><path d="M5.133 38.67C16.15 27.098 26.98 16.001 39.323 5.755M3.386 35.475C6.566 24.964 32.087 5.163 40.023 6.352M3.431 28.648c4.8-12.63 29.779-27.395 37.28-21.308m-29.194 6.717C21.554 4.744 38.326.177 41.881 10.835M7.93 40.916c6.783-1.556 30.397-28.378 30.864-35.83M12.395 41.998c7.88-.044 30.919-26.54 25.448-37.602M23.38 38.928c6.779-3.686 23.816-25.855 12.982-35.194m3.062 18.794C44.391 9.724 38.02 2.502 30.39 3.145" color-interpolation="auto"/></g></svg>