<svg xmlns="http://www.w3.org/2000/svg" width="45" height="45"><g fill="none" stroke="#000" stroke-miterlimit="10" color-interpolation="auto"><path stroke-linecap="round" stroke-linejoin="round" stroke-width="95.448" d="M-1480.078 447.257-1792.01-93.028h623.867z" color="#000" color-interpolation="sRGB" style="isolation:auto;mix-blend-mode:normal" transform="matrix(.03126 0 0 .0316 68.683 19.182)"/><path stroke-linecap="round" stroke-linejoin="round" stroke-width="40.412" d="m-1766.362 186.083-214.845-124.04v-248.081l214.844-124.041 214.845 124.04V62.044z" color="#000" color-interpolation="sRGB" style="isolation:auto;mix-blend-mode:normal" transform="matrix(.07392 0 0 .07455 153.07 27.122)"/><path stroke-width="95.448" d="m-1477.207-480.304 309.063 387.276 198.917-94.619m-198.917 94.619 198.917 490.695m-510.851 49.59 510.85-49.59m-507.979 292.657-2.87-243.067-505.11-49.59M-1985.187 397.667l193.176-490.695-193.176-94.619m193.176 94.619 314.804-387.276" transform="matrix(.03126 0 0 .0316 68.683 19.182)"/></g></svg>