<svg xmlns="http://www.w3.org/2000/svg" width="45" height="45"><g fill="none" stroke="#000" stroke-miterlimit="10" color-interpolation="auto"><path stroke-linecap="round" stroke-linejoin="round" stroke-width="95.448" d="M-1480.078 447.257L-1792.01-93.028h623.867z" color="#000" color-interpolation="sRGB" solid-color="#000000" style="isolation:auto;mix-blend-mode:normal" transform="matrix(.03126 0 0 .0316 68.683 19.182)"/><path stroke-linecap="round" stroke-linejoin="round" stroke-width="40.412" d="M-1766.362 186.083l-214.845-124.04v-248.081l214.844-124.041 214.845 124.04V62.044z" color="#000" color-interpolation="sRGB" solid-color="#000000" style="isolation:auto;mix-blend-mode:normal" transform="matrix(.07392 0 0 .07455 153.07 27.122)"/><path stroke-width="95.448" d="M-1477.207-480.304l309.063 387.276 198.917-94.619M-1168.144-93.028l198.917 490.695M-1480.078 447.257l510.85-49.59M-1477.207 690.324l-2.87-243.067-505.11-49.59" transform="matrix(.03126 0 0 .0316 68.683 19.182)"/><path stroke-width="95.448" d="M-1985.187 397.667l193.176-490.695-193.176-94.619M-1792.011-93.028l314.804-387.276" transform="matrix(.03126 0 0 .0316 68.683 19.182)"/></g></svg>