<svg xmlns="http://www.w3.org/2000/svg" width="45" height="45"><path d="m2.5 36.925.067-1.52c1.862-.238 3.047-.618 3.553-1.14.328-.357.581-1.288.76-2.793l.67-16.938c0-2.101-.126-3.315-.38-3.643-.238-.328-1.191-.648-2.86-.96-.417-.09-.745-.165-.983-.224l-.045-1.632c.551-.044 1.2-.067 1.944-.067l8.201.313c.254.298.507.693.76 1.185l8.47 18.413 7.664-17.274c.626-1.355.969-2.07 1.028-2.145.134-.12.331-.16.805-.179l8.849-.402c.149 0 .328.015.536.045l-.045 1.765c-1.4.209-2.54.521-3.419.939-.61.298-.916.67-.916 1.117l1.073 21.81c.015.358.09.588.223.693.15.104 1.49.536 4.023 1.296v1.475c-2.565-.14-5.034-.508-7.598-.514a89.091 89.091 0 0 0-7.084.335l.045-1.542c.61-.238 1.422-.44 2.436-.603.715-.12 1.169-.32 1.363-.604.193-.283.29-1.072.29-2.368l-.693-18.034-9.787 23.352-1.72-.022L9.516 14.087l-.335 17.43c0 1.132.208 1.944.625 2.436.432.476 1.348.886 2.749 1.229l1.072.268v1.631a32.348 32.348 0 0 1-2.793-.179c-.983-.119-2.294-.179-3.933-.179-.342 0-1.81.068-4.402.202z"/></svg>