<svg width="45" height="45" version="1.1" viewBox="0 0 45 45" xmlns="http://www.w3.org/2000/svg">
 <path d="m2.5000002 36.924576 0.067039-1.519552c1.8621975-0.238362 3.0465551-0.61825 3.5530728-1.139664 0.3277467-0.357543 0.5810055-1.288641 0.7597764-2.793296l0.6703914-16.938548c0-2.100559-0.1266294-3.314712-0.3798883-3.642459-0.2383615-0.327747-1.1918066-0.648045-2.8603354-0.9608941-0.4171322-0.0893848-0.7448789-0.1638727-0.9832402-0.2234636l-0.0446927-1.6312848c0.5512105-0.044691 1.1992551-0.067037 1.944134-0.067037l8.2011168 0.3128475c0.253259 0.2979515 0.506518 0.6927373 0.759777 1.1843576l8.469274 18.413408 7.664804-17.273744c0.625698-1.3556794 0.968342-2.0707626 1.027933-2.1452497 0.134078-0.1191818 0.331005-0.1593467 0.804468-0.1787727l8.849162-0.4022314c0.148975 0 0.327746 0.014898 0.536313 0.044693l-0.04469 1.765362c-1.400373 0.2085665-2.540037 0.5214158-3.418993 0.9385478-0.610801 0.297952-0.916201 0.670392-0.916201 1.11732l1.072621 21.810053c0.0149 0.357543 0.08939 0.588456 0.223464 0.69274 0.148976 0.104283 1.489758 0.536312 4.022347 1.296088v1.474861c-2.564494-0.140453-5.033317-0.507802-7.597764-0.513967-2.543459 0.01839-4.835751 0.142505-7.0838 0.335197l0.04469-1.541898c0.610801-0.23836 1.422718-0.439477 2.435752-0.603351 0.715085-0.119182 1.169461-0.320299 1.363128-0.603353 0.193669-0.283054 0.290504-1.072626 0.290504-2.368716l-0.692731-18.033522-9.787709 23.351957-1.720671-0.02235-10.21229-22.972061-0.3351956 17.430166c0 1.132216 0.2085662 1.944134 0.6256985 2.435755 0.4320301 0.476722 1.3482311 0.886405 2.7486031 1.22905l1.072626 0.268157v1.631285c-0.864059-0.01489-1.795158-0.07448-2.793296-0.178773-0.9832404-0.11918-2.2942274-0.17877-3.9329612-0.17877-0.3426443 0-1.8100558 0.06704-4.4022366 0.201112z" shape-rendering=""/>
</svg>
