<svg xmlns="http://www.w3.org/2000/svg" width="45" height="45"><g fill="none" stroke="#000" stroke-miterlimit="10" stroke-width="2"><circle cx="22.5" cy="22.5" r="18.5" stroke-linecap="round" stroke-linejoin="round" color="#000" style="isolation:auto;mix-blend-mode:normal"/><path stroke-linecap="round" stroke-linejoin="round" d="M37.387 33.445a18.5 8.222 0 0 1-14.942 3.341 18.5 8.222 0 0 1-14.897-3.38m33.439-11.055a18.5 6.211 0 0 1-8.818 5.525 18.5 6.211 0 0 1-18.663.132 18.5 6.211 0 0 1-9.505-5.394m34.497-9.391a16.065 5.343 0 0 1-7.545 5.03 16.065 5.343 0 0 1-16.902 0 16.065 5.343 0 0 1-7.55-5.029m24.935-6.955a9.366 3.238 0 0 1-3.422 3.587 9.366 3.238 0 0 1-10.924.026 9.366 3.238 0 0 1-3.564-3.57" color="#000" style="isolation:auto;mix-blend-mode:normal"/><path d="M22.5 4.026v36.936" color-interpolation="auto"/><path stroke-linecap="round" stroke-linejoin="round" d="M6.216 13.894a18.858 18.5 0 0 1 16.412-9.167 18.858 18.5 0 0 1 16.282 9.387" color="#000" style="isolation:auto;mix-blend-mode:normal"/><path d="M17.104 4.822c12.905-3.54 29.79 18.702 16.348 32.604m-5.56-32.604c-12.906-3.54-29.79 18.702-16.348 32.604M21.401 4.05c5.276 1.514 17.905 24.471 5.9 36.295M23.603 4.05c-5.276 1.514-17.905 24.471-5.9 36.295" color-interpolation="auto"/></g></svg>