<svg xmlns="http://www.w3.org/2000/svg" width="45" height="45"><circle cx="22.5" cy="22.5" r="18.5" fill="none" stroke="#000" stroke-width="2"/><path fill="none" stroke="#000" stroke-width="2" d="M17.1 4.822c12.9-3.54 29.79 18.7 16.35 32.6m-5.56-32.6c-12.91-3.54-29.79 18.7-16.35 32.6m9.857-33.38c5.276 1.514 17.9 24.47 5.9 36.3m-3.698-36.3c-5.276 1.514-17.9 24.47-5.9 36.3m4.797-36.32v36.94m14.89-7.517a18.5 8.222 0 0 1-14.94 3.341 18.5 8.222 0 0 1-14.9-3.38m33.44-11.06a18.5 6.211 0 0 1-8.818 5.525 18.5 6.211 0 0 1-18.66.132 18.5 6.211 0 0 1-9.505-5.394m34.5-9.391a16.06 5.343 0 0 1-7.545 5.03 16.06 5.343 0 0 1-16.9 0 16.06 5.343 0 0 1-7.55-5.029m24.94-6.955a9.366 3.238 0 0 1-3.422 3.587 9.366 3.238 0 0 1-10.92.026 9.366 3.238 0 0 1-3.564-3.57m-7.31 7.582a18.86 18.5 0 0 1 16.41-9.167 18.86 18.5 0 0 1 16.28 9.387"/></svg>