<svg width="45" height="45" version="1.1" viewBox="0 0 45 45" xmlns="http://www.w3.org/2000/svg">
 <g fill="none" shape-rendering="auto" stroke="#000" stroke-linecap="round" stroke-linejoin="round" stroke-miterlimit="10" stroke-width="1.4999999">
  <path d="m19.948789 11.646628 6.87075-0.324588" color-interpolation="auto" color-rendering="auto" image-rendering="auto"/>
  <path d="m17.726449 9.1555291 6.616283-0.2909245" color-interpolation="auto" color-rendering="auto" image-rendering="auto"/>
  <path d="m22.484971 15.921892 6.753454-0.243317" color-interpolation="auto" color-rendering="auto" image-rendering="auto"/>
  <path d="m10.849052 12.293412 2.54599 2.542911" color-interpolation="auto" color-rendering="auto" image-rendering="auto"/>
  <path d="m15.819629 19.127102-2.424587-4.290779" color-interpolation="auto" color-rendering="auto" image-rendering="auto"/>
  <path d="m10.849052 12.293412 6.877397-3.1378829" color-interpolation="auto" color-rendering="auto" image-rendering="auto"/>
  <path d="m17.726449 9.1555291 2.22234 2.4910989" color-interpolation="auto" color-rendering="auto" image-rendering="auto"/>
  <path d="m13.395042 14.836323 6.553747-3.189695" color-interpolation="auto" color-rendering="auto" image-rendering="auto"/>
  <path d="m15.819629 19.127102 6.665342-3.20521" color-interpolation="auto" color-rendering="auto" image-rendering="auto"/>
  <path d="m19.948789 11.646628 2.536182 4.275264" color-interpolation="auto" color-rendering="auto" image-rendering="auto"/>
  <path d="m24.342732 8.8646046 2.476807 2.4574354" color-interpolation="auto" color-rendering="auto" image-rendering="auto"/>
  <path d="m29.238425 15.678575-2.418886-4.356535" color-interpolation="auto" color-rendering="auto" image-rendering="auto"/>
  <path d="m29.238425 15.678575 6.505885 2.784572" color-interpolation="auto" color-rendering="auto" image-rendering="auto"/>
  <path d="m33.50888 14.059925 2.23543 4.403222" color-interpolation="auto" color-rendering="auto" image-rendering="auto"/>
  <path d="m33.50888 14.059925-2.418886-2.595063" color-interpolation="auto" color-rendering="auto" image-rendering="auto"/>
  <path d="m24.342732 8.8646046 6.747262 2.6002574" color-interpolation="auto" color-rendering="auto" image-rendering="auto"/>
  <path d="m26.819539 11.32204 6.689341 2.737885" color-interpolation="auto" color-rendering="auto" image-rendering="auto"/>
  <path d="m38.259162 24.771584-2.514852-6.308437" color-interpolation="auto" color-rendering="auto" image-rendering="auto"/>
  <path d="m38.259162 24.771584-6.641359-2.642669" color-interpolation="auto" color-rendering="auto" image-rendering="auto"/>
  <path d="m24.919987 22.534038 6.697816-0.405123" color-interpolation="auto" color-rendering="auto" image-rendering="auto"/>
  <path d="m24.919987 22.534038-6.641359 2.26089" color-interpolation="auto" color-rendering="auto" image-rendering="auto"/>
  <path d="m11.580812 29.199071 6.697816-4.404143" color-interpolation="auto" color-rendering="auto" image-rendering="auto"/>
  <path d="m11.580812 29.199071-2.4188862-5.451506" color-interpolation="auto" color-rendering="auto" image-rendering="auto"/>
  <path d="m6.7825475 19.868025 2.3793783 3.87954" color-interpolation="auto" color-rendering="auto" image-rendering="auto"/>
  <path d="m6.7825475 19.868025-2.5628338-2.166597" color-interpolation="auto" color-rendering="auto" image-rendering="auto"/>
  <path d="m10.849052 12.293412-6.6293383 5.408016" color-interpolation="auto" color-rendering="auto" image-rendering="auto"/>
  <path d="m6.7825475 19.868025 6.6124945-5.031702" color-interpolation="auto" color-rendering="auto" image-rendering="auto"/>
  <path d="m15.819629 19.127102-6.6577032 4.620463" color-interpolation="auto" color-rendering="auto" image-rendering="auto"/>
  <path d="m15.819629 19.127102 2.458999 5.667826" color-interpolation="auto" color-rendering="auto" image-rendering="auto"/>
  <path d="m24.919987 22.534038-2.435016-6.612146" color-interpolation="auto" color-rendering="auto" image-rendering="auto"/>
  <path d="m31.617803 22.128915-2.379378-6.45034" color-interpolation="auto" color-rendering="auto" image-rendering="auto"/>
  <path d="m38.259162 24.771584 2.519431 7.658362" color-interpolation="auto" color-rendering="auto" image-rendering="auto"/>
  <path d="m34.051984 29.821109 6.726609 2.608837" color-interpolation="auto" color-rendering="auto" image-rendering="auto"/>
  <path d="m34.051984 29.821109-6.777074-0.084243" color-interpolation="auto" color-rendering="auto" image-rendering="auto"/>
  <path d="m20.684016 32.177554 6.590894-2.440688" color-interpolation="auto" color-rendering="auto" image-rendering="auto"/>
  <path d="m20.684016 32.177554-6.573501 3.955377" color-interpolation="auto" color-rendering="auto" image-rendering="auto"/>
  <path d="m11.580812 29.199071 2.529703 6.93386" color-interpolation="auto" color-rendering="auto" image-rendering="auto"/>
  <path d="m20.684016 32.177554-2.405388-7.382626" color-interpolation="auto" color-rendering="auto" image-rendering="auto"/>
  <path d="m24.919987 22.534038 2.354923 7.202828" color-interpolation="auto" color-rendering="auto" image-rendering="auto"/>
  <path d="m34.051984 29.821109-2.434181-7.692194" color-interpolation="auto" color-rendering="auto" image-rendering="auto"/>
 </g>
</svg>
