<svg xmlns="http://www.w3.org/2000/svg" width="45" height="45"><g fill="none" stroke="#000" stroke-linecap="round" stroke-linejoin="round" stroke-miterlimit="10" stroke-width="1.5" color-interpolation="auto"><path d="M19.949 11.647l6.87-.325M17.726 9.156l6.617-.291M22.485 15.922l6.753-.243M10.85 12.293l2.545 2.543M15.82 19.127l-2.425-4.29M10.85 12.293l6.876-3.137M17.726 9.156l2.223 2.49M13.395 14.836l6.554-3.19M15.82 19.127l6.665-3.205M19.949 11.647l2.536 4.275M24.343 8.865l2.477 2.457M29.238 15.679l-2.418-4.357M29.238 15.679l6.506 2.784M33.509 14.06l2.235 4.403M33.509 14.06l-2.419-2.595M24.343 8.865l6.747 2.6M26.82 11.322l6.689 2.738M38.26 24.772l-2.516-6.309M38.26 24.772l-6.642-2.643M24.92 22.534l6.698-.405M24.92 22.534l-6.641 2.26M11.58 29.2l6.699-4.405M11.58 29.2l-2.418-5.452M6.783 19.868l2.379 3.88M6.783 19.868L4.22 17.701M10.85 12.293l-6.63 5.408M6.783 19.868l6.612-5.032M15.82 19.127l-6.658 4.62M15.82 19.127l2.459 5.668M24.92 22.534l-2.435-6.612M31.618 22.129l-2.38-6.45M38.26 24.772l2.519 7.658M34.052 29.821l6.727 2.609M34.052 29.821l-6.777-.084M20.684 32.178l6.59-2.441M20.684 32.178l-6.573 3.955M11.58 29.2l2.53 6.933M20.684 32.178l-2.405-7.383M24.92 22.534l2.355 7.203M34.052 29.821l-2.434-7.692"/></g></svg>