<svg xmlns="http://www.w3.org/2000/svg" width="45" height="45"><path fill="none" stroke="#000" stroke-linecap="round" stroke-linejoin="round" stroke-miterlimit="10" stroke-width="1.5" d="m19.949 11.647 6.87-.325m-9.093-2.166 6.617-.291m-1.858 7.057 6.753-.243M10.85 12.293l2.545 2.543m2.425 4.291-2.425-4.29m-2.545-2.544 6.876-3.137m0 0 2.223 2.49m-6.554 3.19 6.554-3.19m-4.129 7.481 6.665-3.205m-2.536-4.275 2.536 4.275m1.858-7.057 2.477 2.457m2.418 4.357-2.418-4.357m2.418 4.357 6.506 2.784m-2.235-4.403 2.235 4.403m-2.235-4.403-2.419-2.595m-6.747-2.6 6.747 2.6m-4.27-.143 6.689 2.738m4.751 10.712-2.516-6.309m2.516 6.309-6.642-2.643m-6.698.405 6.698-.405m-6.698.405-6.641 2.26M11.58 29.2l6.699-4.405M11.58 29.2l-2.418-5.452m-2.379-3.88 2.379 3.88m-2.379-3.88L4.22 17.701m6.63-5.408-6.63 5.408m2.563 2.167 6.612-5.032m2.425 4.291-6.658 4.62m6.658-4.62 2.459 5.668m6.641-2.261-2.435-6.612m9.133 6.207-2.38-6.45m9.022 9.093 2.519 7.658m-6.727-2.609 6.727 2.609m-6.727-2.609-6.777-.084m-6.591 2.441 6.59-2.441m-6.59 2.441-6.573 3.955M11.58 29.2l2.53 6.933m6.574-3.955-2.405-7.383m6.641-2.261 2.355 7.203m6.777.084-2.434-7.692" color-interpolation="auto"/></svg>