<svg xmlns="http://www.w3.org/2000/svg" width="45" height="45"><path d="M37.5 13.185c0 4.529-1.634 10.745-4.138 16.172-2.985 6.47-6.037 8.466-9.919 8.466-7.137 0-10.706-2.964-10.706-8.891.201-4.912 1.79-9.163 3.287-13.618.635-1.932 1.945-4.88.219-5.48-3.133-1.088-4.91 4.568-5.854 8.047-.407 1.497-2.502 1.194-2.787-.313-.398-2.113.356-4.52 2.412-6.909 2.076-2.412 4.778-3.516 7.644-3.41s6.425 2.36 6.474 5.936c.008.542-.307 1.643-.814 3.334-1.382 4.61-3.146 8.898-3.224 13.602 0 3.36 1.506 5.9 4.1 5.04 6.623-2.194 8.826-11.114 9.9-17.674-.811-.162-1.478.004-2.97-1.291-2.49-2.16-2.133-5.746-.668-7.426 1.88-2.156 4.943-2.083 6.105.22.639 1.266.939 2.671.939 4.195z"/></svg>