<svg width="45" height="45" version="1.1" viewBox="0 0 45 45" xmlns="http://www.w3.org/2000/svg">
 <path d="m37.5 13.18467c0 4.528981-1.634212 10.745814-4.138114 16.17252-2.985139 6.469694-6.036439 8.465552-9.918422 8.465552-7.137841 0-10.706761-2.963665-10.706761-8.890994 0.201349-4.911366 1.789399-9.162986 3.287164-13.618248 0.634996-1.931296 1.945505-4.878584 0.219144-5.4786057-3.132896-1.0888822-4.910394 4.5668467-5.854282 8.0457237-0.4062345 1.497255-2.5021121 1.194702-2.786262-0.313063-0.3981195-2.112514 0.3552611-4.519976 2.411178-6.908162 2.076555-2.4121605 4.77884-3.5168421 7.643943-3.4097798s6.425475 2.3589805 6.474615 5.9350568c0.0075 0.542592-0.306927 1.642931-0.813965 3.334123-1.382092 4.609878-3.146215 8.898291-3.22455 13.602595 0 3.360211 1.505835 5.900361 4.101127 5.040317 6.622343-2.194552 8.824808-11.114579 9.898482-17.674877-0.810363-0.161493-1.477546 0.0046-2.970089-1.290794-2.489794-2.16086-2.132529-5.745571-0.667129-7.4255544 1.880744-2.1561473 4.943101-2.0832869 6.104732 0.2191441 0.639068 1.2666773 0.939189 2.6714723 0.939189 4.1950463z" stroke-width=".03141361"/>
</svg>
