<svg width="45" height="45" version="1.1" viewBox="0 0 45 45" xmlns="http://www.w3.org/2000/svg">
 <path d="m25.545042 5.1133522q0 1.3576476-0.766451 2.4306271-0.854045 1.1824672-2.146062 1.1824672-0.875944 0-1.445308-0.6569262-0.547465-0.6569264-0.547465-1.5547255 0-2.0583688 1.620496-3.1094508-0.700755-0.2189754-1.335814-0.2189754-0.722654 0-1.292017 0.9634918l-1.445308 9.2407626h5.233765q0.613161 0 0.613161 0.963492 0 1.42334-0.722654 1.42334h-5.452751l-1.664293 11.014463q-1.007335 6.700648-1.423409 8.233474-1.24822 4.795564-3.919849 7.116703-1.7518876 1.532827-3.5037753 1.532827-1.8832794 0-3.2628911-0.941595-1.5548004-1.072978-1.5548004-2.868578 0-1.357647 0.766451-2.430625 0.8540452-1.182469 2.1679611-1.182469 0.8978425 0 1.467206 0.63503 0.5693635 0.656925 0.5693635 1.554726 0 2.124061-1.6204962 3.10945 0.5693636 0.240874 1.1606257 0.240874 1.2044229 0 1.905178-2.846681 0.1751889-0.656927 0.6569579-3.875866l2.8906148-19.291733h-4.4454152q-0.6350593 0-0.6350593-0.919697 0-0.416053 0.1970873-0.875902 0.2408846-0.591233 0.5912622-0.591233h4.6863q0.810248-5.4086929 1.839482-7.7517298 1.948975-4.3138157 5.912621-4.3138157 1.927077 0 3.306688 0.9196968 1.598598 1.051082 1.598598 2.8685779z"/>
 <path d="m42.470382 28.784848q0 1.234508-0.645774 2.203122-0.740741 1.10156-1.918328 1.10156-0.797721 0-1.272555-0.55078-0.474834-0.569772-0.474834-1.386447 0-0.949622 0.531814-1.785289 0.531814-0.854659 1.405508-1.120553-0.645774-0.607758-1.709401-0.607758-1.025641 0-1.823362 1.234508-0.607787 0.930629-0.873694 2.165137l-1.595442 7.502011q-0.360873 1.690327-0.360873 2.658941 0 1.861259 1.880341 1.861259 1.329535 0 2.640076-1.101562 1.234568-1.044584 1.690408-2.374054 0.132954-0.569773 0.474834-1.462418 0.22792-0.360856 0.892687-0.360856 0.835708 0 0.835708 0.60776 0 0.03798-0.03799 0.17093-0.778727 2.582972-2.317189 4.216322-1.823361 1.918235-4.273503 1.918235-3.551757 0-4.843305-2.336069-0.607787 0.968614-1.690408 1.633348-1.139601 0.702721-2.222222 0.702721-1.728395 0-2.962963-1.006599-1.329534-1.082568-1.329534-2.753904 0-1.234507 0.664767-2.203122 0.740741-1.10156 1.918329-1.10156 0.759734 0 1.234567 0.588765 0.493827 0.569772 0.493827 1.32947 0 0.949622-0.51282 1.785288-0.550807 0.892645-1.424501 1.15854 0.588794 0.588765 1.690408 0.588765 1.044634 0 1.842355-1.2535 0.607787-0.968615 0.873694-2.203124l1.538461-7.331078q0.398861-1.899244 0.398861-2.772896 0-1.861258-1.880342-1.861258-1.348528 0-2.621082 1.082568-1.196581 1.006599-1.690408 2.355062-0.132954 0.493803-0.474834 1.462417-0.151947 0.360856-0.398861 0.360856h-0.91168q-0.436847 0-0.436847-0.55078 0-2.241107 2.412155-4.330275 2.317189-2.013198 4.596391-2.013198 3.817663 0 5.147198 2.355062 1.481481-2.355062 3.57075-2.355062 1.671414 0 2.811015 1.063577 1.158595 1.063576 1.158595 2.715918z" fill-opacity=".50196081"/>
</svg>
