<svg xmlns="http://www.w3.org/2000/svg" width="45" height="45"><path d="M25.545 5.113q0 1.358-.766 2.431-.854 1.182-2.146 1.182-.876 0-1.446-.656-.547-.657-.547-1.555 0-2.059 1.62-3.11-.7-.219-1.336-.219-.722 0-1.292.964l-1.445 9.24h5.234q.613 0 .613.964 0 1.423-.723 1.423H17.86l-1.665 11.015q-1.007 6.7-1.423 8.233-1.248 4.796-3.92 7.117-1.752 1.533-3.504 1.533-1.883 0-3.263-.942Q2.53 41.66 2.53 39.865q0-1.358.766-2.43.854-1.183 2.168-1.183.898 0 1.467.635.57.657.57 1.554 0 2.124-1.62 3.11.568.24 1.16.24 1.204 0 1.905-2.846.175-.657.657-3.876l2.89-19.292H8.048q-.635 0-.635-.92 0-.415.197-.875.241-.591.591-.591h4.687q.81-5.41 1.84-7.752 1.948-4.314 5.912-4.314 1.927 0 3.306.92 1.599 1.05 1.599 2.868z"/><path fill-opacity=".502" d="M42.47 28.785q0 1.234-.645 2.203-.741 1.102-1.919 1.102-.797 0-1.272-.551-.475-.57-.475-1.387 0-.95.532-1.785.532-.855 1.405-1.12-.646-.608-1.71-.608-1.025 0-1.823 1.234-.607.93-.873 2.165l-1.596 7.502q-.36 1.69-.36 2.66 0 1.86 1.88 1.86 1.33 0 2.64-1.101 1.234-1.045 1.69-2.374.133-.57.475-1.462.228-.361.893-.361.835 0 .835.607 0 .038-.037.171-.78 2.583-2.318 4.217-1.823 1.918-4.273 1.918-3.552 0-4.843-2.336-.608.968-1.69 1.633-1.14.703-2.223.703-1.729 0-2.963-1.007-1.33-1.082-1.33-2.754 0-1.234.665-2.203.74-1.101 1.918-1.101.76 0 1.235.588.494.57.494 1.33 0 .95-.513 1.785-.55.893-1.424 1.159.588.589 1.69.589 1.045 0 1.842-1.254.608-.969.874-2.203l1.538-7.331q.4-1.9.4-2.773 0-1.861-1.881-1.861-1.349 0-2.621 1.082-1.197 1.007-1.69 2.355-.133.494-.475 1.463-.152.36-.4.36h-.91q-.438 0-.438-.55 0-2.241 2.412-4.33 2.318-2.014 4.597-2.014 3.817 0 5.147 2.355 1.481-2.355 3.57-2.355 1.672 0 2.812 1.064 1.158 1.064 1.158 2.716z"/></svg>