<svg xmlns="http://www.w3.org/2000/svg" width="45" height="45"><path d="M2.5 36.696c1.411.555 2.01.77 3.036 1.026 1.496.342 2.907.513 4.318.513 4.875 0 8.808-2.608 10.048-6.841.385-1.155.556-2.694.556-4.276V6.765h-8.936v18.13c0 2.308-.257 3.42-.94 4.275-.685.898-1.797 1.368-3.208 1.368-.812 0-1.667-.17-2.736-.513zM41.411 12.13c-1.597-.436-2.287-.581-3.448-.763-1.634-.29-3.086-.4-4.429-.4-6.788 0-11.035 3.159-11.035 8.24 0 3.558 2.07 6.172 5.99 7.515.435.181 1.052.363 1.706.508l1.488.472c1.089.326 1.597.472 2.033.726.58.363.943.98.943 1.706 0 1.56-1.415 2.432-3.956 2.432-1.525 0-3.412-.327-6.244-1.126l-1.85 5.336c1.96.581 2.794.799 4.246 1.017 1.561.29 3.086.4 4.501.4 6.788 0 11.144-3.413 11.144-8.713 0-3.448-1.597-5.808-4.864-7.114a69.129 69.129 0 0 0-3.23-1.053l-1.634-.472c-1.815-.508-2.577-1.161-2.577-2.141 0-1.452 1.488-2.324 3.92-2.324 1.742 0 3.557.29 5.771.908z"/></svg>