<svg xmlns="http://www.w3.org/2000/svg" width="45" height="45"><path d="M24 10c-.554 0-1 .446-1 1v7h7v-7c0-.554-.446-1-1-1zm-1 10v10h7V20zm0 12v7c0 .554.446 1 1 1h5c.554 0 1-.446 1-1v-7zm-8-17c-.554 0-1 .446-1 1v3h7v-3c0-.554-.446-1-1-1zm-1 6v11h7V21zm0 13v5c0 .554.446 1 1 1h5c.554 0 1-.446 1-1v-5zM33 6c-.554 0-1 .446-1 1v5h8V7c0-.554-.446-1-1-1zm-1 8v8h8v-8zm0 10v8h8v-8zm0 10v5c0 .554.446 1 1 1h6c.554 0 1-.446 1-1v-5zM6 5c-.554 0-1 .446-1 1v4h7V6c0-.554-.446-1-1-1zm-1 7v21h7V12zm0 23v4c0 .554.446 1 1 1h5c.554 0 1-.446 1-1v-4z"/></svg>