<svg width="45" height="45" version="1.1" viewBox="0 0 45 45" xmlns="http://www.w3.org/2000/svg">
 <path d="m24 10c-0.554 0-1 0.446-1 1v7h7v-7c0-0.554-0.446-1-1-1zm-1 10v10h7v-10zm0 12v7c0 0.554 0.446 1 1 1h5c0.554 0 1-0.446 1-1v-7zm-8-17c-0.554 0-1 0.446-1 1v3h7v-3c0-0.554-0.446-1-1-1zm-1 6v11h7v-11zm0 13v5c0 0.554 0.446 1 1 1h5c0.554 0 1-0.446 1-1v-5zm19-28c-0.554 0-1 0.446-1 1v5h8v-5c0-0.554-0.446-1-1-1zm-1 8v8h8v-8zm0 10v8h8v-8zm0 10v5c0 0.554 0.446 1 1 1h6c0.554 0 1-0.446 1-1v-5zm-26-29c-0.554 0-1 0.446-1 1v4h7v-4c0-0.554-0.446-1-1-1zm-1 7v21h7v-21zm0 23v4c0 0.554 0.446 1 1 1h5c0.554 0 1-0.446 1-1v-4z"/>
</svg>
