<svg xmlns="http://www.w3.org/2000/svg" width="45" height="45"><path d="M32.232 34.604c1.447 0 2.35-.135 2.707-.403l-1.544-18.636-10.358 19.083c-.537.97-1.193 1.454-1.969 1.454s-1.223-.462-1.342-1.387l-1.656-19.15C12.18 26.512 9.043 32.45 8.562 33.328c-.39.712 1.301 1.276 2.349 1.276h.828l-.716 3.132h-.85c-2.059-.09-3.718-.135-4.978-.135s-2.428.053-3.501.157L1 37.825l.76-3.221h.828c1.656 0 2.857-.709 3.602-2.126l13.2-23.827c.552-.984 1.216-1.476 1.991-1.476s1.201.477 1.276 1.432l1.61 19.128L34.648 8.651c.552-.984 1.223-1.476 2.014-1.476.79 0 1.215.477 1.275 1.432l2.73 25.706c.268.194.984.29 2.147.29H44l-.738 3.133h-.85c-3.371-.09-5.78-.135-7.227-.135s-2.73.053-3.848.157l-.716.067.739-3.221z"/></svg>