<svg xmlns="http://www.w3.org/2000/svg" width="45" height="45"><path d="M32.232 34.604q2.171 0 2.707-.403l-1.544-18.636-10.358 19.083q-.805 1.454-1.969 1.454c-1.164 0-1.223-.462-1.342-1.387l-1.656-19.15C12.18 26.512 9.043 32.45 8.562 33.328c-.39.712 1.301 1.276 2.349 1.276h.828l-.716 3.132h-.85q-3.088-.135-4.978-.135c-1.89 0-2.428.053-3.501.157L1 37.825l.76-3.221h.828q2.484 0 3.602-2.126l13.2-23.827q.828-1.476 1.991-1.476c1.163 0 1.201.477 1.276 1.432l1.61 19.128L34.648 8.651q.828-1.476 2.014-1.476t1.275 1.432l2.73 25.706q.402.29 2.147.29H44l-.738 3.133h-.85q-5.057-.135-7.227-.135c-2.17 0-2.73.053-3.848.157l-.716.067.739-3.221z"/></svg>