<svg width="45" height="45" version="1.1" viewBox="0 0 45 45" xmlns="http://www.w3.org/2000/svg">
 <path d="m32.232051 34.603539c1.446757 0 2.349115-0.134235 2.707076-0.402706l-1.543705-18.636317-10.358481 19.083768c-0.536941 0.969476-1.193202 1.454214-1.968783 1.454214s-1.223032-0.462366-1.342352-1.387097l-1.655567-19.150885c-5.891433 10.947625-9.0275676 16.886331-9.5083252 17.763789-0.3900969 0.711988 1.3013718 1.275234 2.3491152 1.275234h0.827784l-0.715921 3.132154h-0.850156c-2.0582728-0.08949-3.7175688-0.134235-4.977888-0.134235s-2.4274195 0.0522-3.5013009 0.156608l-0.69354845 0.06712 0.76066605-3.221644h0.8277836c1.6555672 0 2.8562263-0.708464 3.6019773-2.125391l13.199792-23.826747c0.551856-0.9843913 1.215574-1.476587 1.991155-1.476587s1.20066 0.4772806 1.275235 1.4318419l1.610822 19.128513 10.380854-19.083768c0.551855-0.9843913 1.223031-1.476587 2.013527-1.476587 0.790497 0 1.215575 0.4772806 1.275235 1.4318419l2.729448 25.706037c0.268471 0.193895 0.984392 0.290843 2.147763 0.290843h1.185744l-0.738293 3.132154h-0.850156c-3.370795-0.08949-5.779571-0.134235-7.226328-0.134235s-2.729448 0.0522-3.848075 0.156608l-0.715921 0.06712 0.738294-3.221644z" stroke-width=".02237253"/>
</svg>
