<svg xmlns="http://www.w3.org/2000/svg" width="45" height="45"><path d="m9.649 29.574 4.168-17.099h-.66q-1.038 0-1.487-.676-.435-.7-.435-1.811T11.67 8.2q.449-.7 1.488-.7l3.86.024q1.038 0 1.473.676.449.677.449 1.788 0 1.328-.674 2.1-.323.387-1.32.387l-5.908 24.32H8.274l-5.895-24.32q-1.01 0-1.333-.386-.674-.749-.674-2.101 0-1.111.45-1.788.434-.7 1.473-.7l3.887.024q1.025 0 1.46.676.45.677.45 1.788 0 1.11-.436 1.81-.435.677-1.474.677H5.51zm16.404 7.199v-1.026q-.956.877-2.112 1.304-1.155.449-2.098.449-2.05 0-3.329-1.86-1.28-1.88-1.28-4.146 0-2.757 1.628-5.108 1.64-2.372 4.52-2.372 1.156 0 2.67.427v-1.047q0-.983-.496-1.603-.484-.62-1.863-.62-1.13 0-2.931.77-.67.278-1.043.278-.51 0-.87-.62-.347-.641-.347-1.624 0-.556.124-.962.124-.406.348-.641.223-.257.931-.599.944-.449 1.925-.705.981-.278 1.776-.278 2.372 0 3.676 1.774 1.317 1.753 1.317 4.809v9.019h.435q.919 0 1.304.62.397.598.397 1.581 0 .962-.397 1.582-.385.598-1.304.598zm0-7.843q-1.528-.513-2.82-.513-1.552 0-2.67 1.303-.695.834-.695 1.689 0 .62.335 1.004.621.706 1.702.706.919 0 2.074-.62 1.167-.62 2.074-1.689zm11.11-11.541v2.735q1.603-1.987 2.522-2.65.931-.662 1.738-.662 1.242 0 2.41 1.581.795 1.069.795 2.18 0 .94-.385 1.603-.373.641-.907.641-.472 0-.994-.812-.521-.812-.931-.812-.534 0-1.602 1.154-1.056 1.154-2.646 3.462v6.604h3.627q.92 0 1.304.62.398.599.398 1.582 0 .962-.398 1.581-.385.599-1.304.599h-7.688q-.919 0-1.316-.599-.385-.62-.385-1.603 0-.961.385-1.56.397-.62 1.316-.62h1.515V21.77h-.919q-.919 0-1.316-.598-.385-.62-.385-1.603 0-.962.385-1.56.397-.62 1.316-.62z"/></svg>