<svg width="45" height="45" version="1.1" viewBox="0 0 45 45" xmlns="http://www.w3.org/2000/svg">
 <path d="m9.6489895 29.573768 4.1682185-17.098718h-0.659617q-1.038546 0-1.487647-0.676221-0.435066-0.700371-0.435066-1.8113047t0.435066-1.7871542q0.449101-0.7003713 1.487647-0.7003713l3.859462 0.02415q1.038545 0 1.473612 0.6762206 0.449101 0.6762205 0.449101 1.7871542 0 1.3282901-0.673652 2.1011141-0.322791 0.386411-1.319234 0.386411l-5.908484 24.31979h-2.7647776l-5.8944503-24.319789q-1.0104771 0-1.3332684-0.386412-0.67365145-0.748673-0.67365145-2.1011137 0-1.1109337 0.44910095-1.7871542 0.4350665-0.7003713 1.4736125-0.7003713l3.8875302 0.02415q1.0245115 0 1.4595783 0.6762206 0.4491007 0.6762205 0.4491007 1.7871542 0 1.1109341-0.4350666 1.8113051-0.4350665 0.67622-1.4736124 0.67622h-0.6736515z"/>
 <path d="m26.052865 36.773336v-1.025879q-0.956332 0.876272-2.111384 1.303721-1.155051 0.448821-2.098964 0.448821-2.049285 0-3.328535-1.859404-1.279251-1.880777-1.279251-4.14626 0-2.757047 1.627008-5.108019 1.639428-2.372345 4.520846-2.372345 1.155052 0 2.67028 0.42745v-1.047251q0-0.983134-0.496796-1.602935-0.484376-0.619801-1.862986-0.619801-1.130212 0-2.931098 0.769408-0.670675 0.277842-1.043272 0.277842-0.509216 0-0.869394-0.619801-0.347757-0.641174-0.347757-1.624308 0-0.555683 0.124199-0.961761 0.124199-0.406077 0.347757-0.641174 0.223559-0.256469 0.931493-0.598428 0.943914-0.448823 1.925086-0.705292 0.981173-0.277842 1.776047-0.277842 2.372202 0 3.676292 1.773914 1.31651 1.752543 1.31651 4.808806v9.019182h0.434697q0.919074 0 1.304091 0.619801 0.397437 0.598428 0.397437 1.581562 0 0.961762-0.397437 1.581563-0.385017 0.59843-1.304091 0.59843zm0-7.843696q-1.527648-0.51294-2.819318-0.51294-1.552489 0-2.670281 1.303721-0.695514 0.833526-0.695514 1.688425 0 0.619802 0.335337 1.004506 0.620996 0.705291 1.701527 0.705291 0.919074 0 2.074125-0.619801 1.167471-0.619801 2.074124-1.688425z"/>
 <path d="m37.163388 17.388637v2.735676q1.602169-1.987639 2.521242-2.650187 0.931493-0.662546 1.738787-0.662546 1.241991 0 2.409462 1.581563 0.794874 1.068624 0.794874 2.179991 0 0.940389-0.385017 1.602936-0.372597 0.641174-0.906653 0.641174-0.471957 0-0.993593-0.812154-0.521636-0.812153-0.931493-0.812153-0.534056 0-1.602168 1.154112-1.055692 1.154114-2.645441 3.462341v6.604092h3.626614q0.919073 0 1.30409 0.619802 0.397437 0.598428 0.397437 1.581562 0 0.961762-0.397437 1.581563-0.385017 0.59843-1.30409 0.59843h-7.687923q-0.919073 0-1.316511-0.59843-0.385017-0.619801-0.385017-1.602935 0-0.961762 0.385017-1.56019 0.397438-0.619802 1.316511-0.619802h1.515229v-10.643489h-0.919073q-0.919073 0-1.316511-0.59843-0.385017-0.619801-0.385017-1.602934 0-0.961761 0.385017-1.56019 0.397438-0.619802 1.316511-0.619802z"/>
</svg>
