<svg width="45" height="45" version="1.1" viewBox="0 0 45 45" xmlns="http://www.w3.org/2000/svg">
 <path d="m21 2.5000017c-0.879031 6.2e-5 -1.466229 0.6680314-1.75 1.4999983l-11.75 34.5h-3.5c-2.7782553-0.0394-2.7782553 4.039195 0 3.999792h12.25c2.778255 0.0394 2.778255-4.039195 0-3.999792h-4.5l2.25-6.5h17l2.25 6.5h-4.5c-2.778255-0.0394-2.778255 4.039195 0 3.999792h12.25c2.778255 0.0394 2.778255-4.039195 0-3.999792h-3.25l-12-34.5c-0.283824-0.8318427-0.87107-1.4999099-1.75-1.4999983zm1.5 4.4999983 7.25 21h-14.5z"/>
</svg>
