<svg xmlns="http://www.w3.org/2000/svg" width="45" height="45"><path d="M36.602 27.9c-.87 3.666-2.667 4.267-4.134 4.267-4.518 0-4.285-5.818-4.108-9.137.2-3.776 1.107-8.53 1.373-10.397h6.984c1.057 0 1.082-1.732 1.082-2.8 0-1.12-.047-2.8-1.082-2.8H18.335c-7.067 0-9.989 3.071-12.267 9.4-.053.148.02.409.29.43.27.023.586-.155.777-.43 2.352-3.387 5.132-3.8 8.932-3.8-.8 17.267-3.86 18.687-6.599 19.534-.927.286-2.088 1.565-1.892 2.627.349 1.893 1.677 3.173 4.826 3.173 7.082 0 6.465-20.134 6.731-25.334h6.2c-.466 4.667-1.331 11.134-1.331 16.934 0 4.333 2.333 8.133 6.133 8.133 4.733 0 7.443-5.533 7.467-9.8.001-.254-.224-.406-.422-.422-.238-.018-.527.204-.578.422z"/></svg>