<svg width="45" height="45" version="1.1" viewBox="0 0 45 45" xmlns="http://www.w3.org/2000/svg">
 <path d="m36.601562 27.9c-0.869123 3.666084-2.666666 4.266666-4.133333 4.266666-4.518181 0-4.285047-5.81769-4.108608-9.136336 0.200753-3.775958 1.107107-8.53033 1.373773-10.396996h6.983158c1.057229 0 1.082758-1.732534 1.082758-2.8 0-1.1207476-0.04732-2.8-1.082758-2.8h-18.381656c-7.066666 0-9.9888722 3.07066-12.266666 9.4-0.053186 0.14779 0.020317 0.408192 0.2900354 0.430338 0.2697187 0.02214 0.5857795-0.155551 0.7766313-0.430338 2.352339-3.386878 5.1318311-3.8 8.9318311-3.8-0.8 17.266666-3.858937 18.686559-6.5984979 19.533332-0.9273916 0.286648-2.0885196 1.565699-1.8927083 2.627084 0.3492823 1.893265 1.6770833 3.172916 4.8260412 3.172916 7.082292 0 6.465165-20.133332 6.731832-25.333332h6.199999c-0.466666 4.666666-1.331831 11.133333-1.331831 16.933332 0 4.333334 2.333333 8.133333 6.133333 8.133333 4.733333 0 7.442627-5.533401 7.466666-9.799999 0.0014-0.254429-0.223598-0.406478-0.421875-0.421875-0.237846-0.01847-0.5264 0.203692-0.578125 0.421875z"/>
</svg>
