<svg xmlns="http://www.w3.org/2000/svg" width="45" height="45"><path d="M18.372 8.215C12.387 9.94 7.942 15.22 7.521 21.555c-.48 7.239 4.466 13.737 11.605 15.3 7.14 1.562 15.83-1.93 18.611-8.654a1.91 1.91 0 1 0-3.528-1.46c-2.072 5.01-8.912 7.556-14.266 6.385-3.478-.762-6.22-3.042-7.618-6.018l23.29-6.24a1.909 1.909 0 0 0 1.35-2.339c-1.876-7-8.656-11.583-15.94-10.83-.911.095-1.798.269-2.653.516zm1.053 3.668a11.489 11.489 0 0 1 1.992-.386c4.816-.498 9.255 2.07 11.202 6.22l-21.275 5.701a10.924 10.924 0 0 1-.014-1.61c.312-4.702 3.606-8.636 8.095-9.925z"/></svg>