<svg width="45" height="45" version="1.1" viewBox="0 0 45 45" xmlns="http://www.w3.org/2000/svg">
 <path d="m18.372295 8.2145174c-5.984832 1.7257799-10.430761 7.0057936-10.851342 13.340102-0.480732 7.239231 4.466154 13.737772 11.605461 15.300294 7.139308 1.56252 15.829361-1.930749 18.610692-8.653621 0.420015-0.977938-0.04081-2.110498-1.024263-2.517391-0.983507-0.406873-2.109764 0.06907-2.503434 1.057916-2.072731 5.010107-8.912212 7.555615-14.266861 6.383701-3.477136-0.761022-6.218917-3.041492-7.617524-6.017802l23.290424-6.240651c1.018269-0.272844 1.622513-1.319555 1.349733-2.337823-1.87575-7.000395-8.656654-11.582871-15.940985-10.829419-0.910526 0.0941764-1.796952 0.2681606-2.651901 0.514694zm1.05286 3.6680256c0.641289-0.184256 1.306939-0.314538 1.99182-0.385364 4.815929-0.498126 9.254654 2.068968 11.202477 6.220335l-21.275744 5.700818c-0.04303-0.528851-0.04966-1.066486-0.01354-1.610751 0.312179-4.701241 3.606013-8.635335 8.094988-9.925037z"/>
</svg>
