<?xml version="1.0" encoding="UTF-8" standalone="no"?>
<svg id="IMAGOTIPO" xmlns:rdf="http://www.w3.org/1999/02/22-rdf-syntax-ns#" xmlns="http://www.w3.org/2000/svg" xml:space="preserve" height="520" viewBox="0 0 2008 520" width="2008" version="1.1" y="0px" x="0px" xmlns:cc="http://creativecommons.org/ns#" xmlns:dc="http://purl.org/dc/elements/1.1/"><metadata id="metadata87"><rdf:RDF><cc:Work rdf:about=""><dc:format>image/svg+xml</dc:format><dc:type rdf:resource="http://purl.org/dc/dcmitype/StillImage"/><dc:title/></cc:Work></rdf:RDF></metadata><style id="style3" type="text/css">
	.fondo{fill:none;}
	.simbolo{fill:#2DAAE4;}
	.descartes{fill:#868686;}
	.matematicas{fill:#2DAAE4;}
</style><g id="SIMBOLO" transform="translate(-180,-60)" fill="#2daae4" class="simbolo"><path id="path7" d="m440 80c-132.5 0-240 107.5-240 240s107.5 240 240 240 240-107.5 240-240-107.5-240-240-240zm-11.1 462.2c-122.7 0-224.4-99.5-224.4-222.2s101.7-222.2 224.4-222.2 222.2 99.5 222.2 222.2-99.5 222.2-222.2 222.2z"/><path id="path9" d="m417.8 115.6c-112.9 0-208.9 91.5-208.9 204.4s96 204.4 208.9 204.4 204.4-91.5 204.4-204.4-91.5-204.4-204.4-204.4zm-11.1 391.1c-103.1 0-193.3-83.6-193.3-186.7s90.2-186.7 193.3-186.7 186.6 83.6 186.6 186.7-83.5 186.7-186.6 186.7z"/><path id="path11" d="m395.6 151.1c-93.3 0-177.8 75.6-177.8 168.9s84.5 168.9 177.8 168.9 168.8-75.6 168.8-168.9-75.6-168.9-168.8-168.9zm-11.2 320c-83.5 0-162.2-67.7-162.2-151.1s78.8-151.1 162.2-151.1 151.2 67.6 151.2 151.1-67.7 151.1-151.2 151.1z"/><path id="path13" d="m373.3 186.7c-73.6 0-146.7 59.7-146.7 133.3s73 133.3 146.7 133.3 133.4-59.7 133.4-133.3-59.7-133.3-133.4-133.3zm-11.1 248.9c-63.8 0-131.1-51.7-131.1-115.6s67.3-115.6 131.1-115.6 115.6 51.8 115.6 115.6-51.8 115.6-115.6 115.6z"/><path id="path15" d="m351.1 222.2c-54 0-115.6 43.8-115.6 97.8s61.6 97.8 115.6 97.8 97.8-43.8 97.8-97.8-43.8-97.8-97.8-97.8zm-11.1 177.8c-44.2 0-100-35.8-100-80s55.8-80 100-80 80 35.8 80 80-35.8 80-80 80z"/></g><g id="g4176" transform="matrix(2.0048 0 0 2.0048 379.49 -1100.5)"><g id="DESCARTES" fill="#868686" class="descartes"><path id="path18" d="m115.8 600.7c32.5 0 48.8 24.8 48.8 49.7s-16.2 49.6-48.8 49.6h-35.6v-99.3h35.6zm0 85c23 0 34.6-17.6 34.6-35.2s-11.6-35.4-34.6-35.4h-21.3v70.6h21.3z"/><path id="path20" d="m187.8 685.7h46.2v14.3h-60.6v-99.3h60.5v14.3h-46v28h45v14.5h-45v28.2z"/><path id="path22" d="m296 626.3c-2-8.9-11.6-12.8-20.3-12.6-6.7 0.1-14.1 2.4-18 7.5-2 2.6-2.7 5.8-2.4 9.2 0.7 10.2 11.9 11.5 22.6 12.5 13.6 1.7 30.5 5.3 34.4 21.2 0.4 2.1 0.7 4.5 0.7 6.5 0 19.2-19 30.2-36.9 30.2-15.3 0-33.9-9.1-35.8-26.8l-0.1-2.7 14.5-0.3 0.1 2.1v-0.6c1 9.2 12.2 14.1 21.4 14.1 10.6 0 22.3-6 22.3-16.2 0-1-0.1-2.1-0.4-3.4-1.7-7.5-11.9-8.8-21.9-9.8-15.5-1.6-33.7-5-35.2-25.7v0.1c-0.6-6.7 1.1-13.3 5.4-18.9 6.7-8.7 18.6-13.2 30.1-13.2 15.3 0 31.2 8 33.8 26.1l-14.3 0.7z"/><path id="path24" d="m334.2 614.9c8.7-8.9 20.9-14.8 34.4-14.8 22.7 0 40.6 14.2 46.3 36.6h-14.2c-5.3-14.9-17.5-22.4-32.1-22.4-9.5 0-18.2 4.1-24.4 10.7-6.2 6.5-10.2 15.3-10.2 25.6 0 9.9 4 18.7 10.2 25.3s14.9 10.6 24.4 10.6c15.1 0 27.8-8.7 32.9-23.7h14.1c-5.7 22.6-23.9 37.9-47 37.9-13.5 0-25.7-5.7-34.4-14.8-8.5-9.1-14.2-21.6-14.2-35.4 0-14 5.7-26.5 14.2-35.6z"/><path id="path26" d="m478.8 670.7h-35.6c-3.8 9.1-8.8 21-11.9 29.3h-15.5l39.9-100.7h10.5l39.8 100.7h-15.3l-11.9-29.3zm-30.3-13.4h24.7l-12.2-35.1-12.5 35.1z"/><path id="path28" d="m528.6 649.6h16.8c12.1 0 18-8.7 18-17.3 0-8.5-6-17.2-18-17.2h-22v84.9h-14.2v-99.4h36.2c21.6 0 32.4 15.9 32.4 31.7 0 14.1-8.7 27.4-25.7 30.4l31.4 37.3h-18.6l-36.2-43.6v-6.8z"/><path id="path30" d="m610.3 700.4v-85.3h-30.1v-14.5h74.4v14.5h-30v85.3h-14.3z"/><path id="path32" d="m676.4 685.7h46.1v14.3h-60.5v-99.3h60.5v14.3h-46v28h45v14.5h-45v28.2z"/><path id="path34" d="m784.6 626.3c-2-8.9-11.6-12.8-20.3-12.6-6.7 0.1-14.1 2.4-18 7.5-2 2.6-2.7 5.8-2.4 9.2 0.7 10.2 11.9 11.5 22.6 12.5 13.6 1.7 30.5 5.3 34.4 21.2 0.4 2.1 0.7 4.5 0.7 6.5 0 19.2-19 30.2-36.9 30.2-15.3 0-33.9-9.1-35.8-26.8l-0.1-2.7 14.5-0.3 0.1 2.1v-0.6c1 9.2 12.2 14.1 21.4 14.1 10.6 0 22.3-6 22.3-16.2 0-1-0.1-2.1-0.4-3.4-1.7-7.5-11.9-8.8-21.9-9.8-15.5-1.6-33.7-5-35.2-25.7v0.1c-0.6-6.7 1.1-13.3 5.4-18.9 6.7-8.7 18.6-13.2 30.1-13.2 15.3 0 31.2 8 33.8 26.1l-14.3 0.7z"/></g><g id="MATEMATICAS" fill="#2daae4" class="matematicas"><path id="path37" d="m115.9 760v-21.4c0-1.9-0.6-3.5-1.9-5-1.3-1.4-3.1-2.1-5.4-2.1-4.8 0-7.3 2.4-7.3 7v21.5h-3.1v-21.4c0-2.1-0.7-3.8-2.1-5-1.5-1.3-3.2-2-5.2-2-2.1 0-3.8 0.7-5.2 2s-2.1 3-2.1 5.1v21.3h-3.1v-31h3.1v3.1c1.5-2.3 3.9-3.5 7.3-3.5 4 0 6.9 1.6 8.9 4.9 1.8-3.3 4.7-4.9 8.8-4.9 3.1 0 5.6 0.9 7.5 2.6 1.9 1.8 2.9 4.3 2.9 7.4v21.4h-3.1z"/><path id="path39" d="m156.4 760v-5.3c-3.3 3.9-7.4 5.9-12.4 5.9-4.5 0-8.3-1.5-11.3-4.6-3.1-3.1-4.6-6.9-4.6-11.4s1.5-8.3 4.6-11.3c3.1-3.1 6.9-4.6 11.4-4.6 5 0 9.1 2 12.4 5.8v-5.5h3.1v31h-3.2zm-3.2-24.6c-2.5-2.6-5.6-3.8-9.2-3.8s-6.7 1.3-9.1 3.8c-2.6 2.5-3.8 5.6-3.8 9.2s1.3 6.6 3.8 9.2c2.5 2.5 5.6 3.8 9.1 3.8 3.6 0 6.6-1.3 9.2-3.8 2.5-2.6 3.8-5.6 3.8-9.2s-1.2-6.6-3.8-9.2z"/><path id="path41" d="m174.8 732.1v27.9h-3.1v-27.9h-4.2v-3.1h4.2v-13.6h3.1v13.6h7.2v3.1h-7.2z"/><path id="path43" d="m191 743.9c0 4.2 1.1 7.5 3.4 10s5.6 3.8 9.7 3.8c2.1 0 4-0.3 5.7-1 2.1-0.9 4.1-2.7 5.8-5.5l2.8 1.3c-2 3.7-5 6.2-9 7.5-1.6 0.5-3.3 0.8-5.3 0.8-4.7 0-8.5-1.5-11.5-4.6-3-3-4.6-6.9-4.6-11.5s1.5-8.5 4.5-11.5 6.9-4.6 11.6-4.6c4.6 0 8.4 1.4 11.4 4.3 3 2.8 4.6 6.6 4.6 11.1h-29.1zm21.2-9.9c-2.4-1.7-5.1-2.5-8.1-2.5-6.4 0-10.6 3.2-12.6 9.5h25.1c-0.5-2.9-2-5.2-4.4-7z"/><path id="path45" d="m263.9 760v-21.4c0-1.9-0.6-3.5-1.9-5-1.3-1.4-3.1-2.1-5.4-2.1-4.9 0-7.3 2.4-7.3 7v21.5h-3.1v-21.4c0-2.1-0.7-3.8-2.1-5-1.5-1.3-3.2-2-5.2-2-2.1 0-3.8 0.7-5.2 2s-2.1 3-2.1 5.1v21.3h-3.1v-31h3.1v3.1c1.5-2.3 3.9-3.5 7.3-3.5 4 0 6.9 1.6 8.8 4.9 1.8-3.3 4.7-4.9 8.8-4.9 3.1 0 5.6 0.9 7.5 2.6 1.9 1.8 2.8 4.3 2.8 7.4v21.4h-2.9z"/><path id="path47" d="m304.4 760v-5.3c-3.3 3.9-7.4 5.9-12.4 5.9-4.5 0-8.3-1.5-11.3-4.6-3.1-3.1-4.7-6.9-4.7-11.4s1.5-8.3 4.6-11.3c3.1-3.1 6.9-4.6 11.4-4.6 4.9 0 9.1 2 12.4 5.8v-5.5h3.1v31h-3.1zm-3.2-24.6c-2.5-2.6-5.6-3.8-9.1-3.8-3.6 0-6.7 1.3-9.2 3.8s-3.8 5.6-3.8 9.2 1.3 6.6 3.8 9.2 5.6 3.8 9.2 3.8 6.6-1.3 9.1-3.8c2.5-2.6 3.8-5.6 3.8-9.2s-1.3-6.6-3.8-9.2zm-9.7-10.6-1.9-1.7 10-10 1.7 1.8-9.8 9.9z"/><path id="path49" d="m322.8 732.1v27.9h-3.1v-27.9h-4.2v-3.1h4.2v-13.6h3.1v13.6h7.2v3.1h-7.2z"/><path id="path51" d="m340.5 723.5c-0.6 0-1.1-0.2-1.7-0.7-0.5-0.5-0.7-1-0.8-1.8 0-1.3 0.8-2.2 2.5-2.5 1.2 0 2.1 0.8 2.5 2.5 0 1.7-0.9 2.5-2.5 2.5zm-1.6 36.5v-31h3.1v31h-3.1z"/><path id="path53" d="m368.3 760.6c-4.6 0-8.4-1.5-11.5-4.6-3.1-3-4.6-6.9-4.6-11.5s1.5-8.4 4.6-11.5c3-3 6.9-4.6 11.5-4.6 3.9 0 7.1 0.9 9.5 2.7v3.7l-2-1.3-2.1-1.1c-1.9-0.6-3.7-1-5.4-1-3.9 0-7 1.2-9.4 3.6-2.5 2.5-3.7 5.6-3.7 9.5 0 3.8 1.2 6.9 3.7 9.4 2.4 2.5 5.6 3.7 9.4 3.7 3.6 0 6.8-1.2 9.5-3.6v3.8c-2.8 1.9-6 2.8-9.5 2.8z"/><path id="path55" d="m409.4 760v-5.3c-3.3 3.9-7.4 5.9-12.4 5.9-4.5 0-8.3-1.5-11.3-4.6-3.1-3.1-4.6-6.9-4.6-11.4s1.5-8.3 4.6-11.3c3.1-3.1 6.9-4.6 11.4-4.6 5 0 9.1 2 12.4 5.8v-5.5h3.1v31h-3.2zm-3.2-24.6c-2.5-2.6-5.6-3.8-9.2-3.8s-6.7 1.3-9.1 3.8c-2.6 2.5-3.8 5.6-3.8 9.2s1.3 6.6 3.8 9.2c2.5 2.5 5.6 3.8 9.1 3.8 3.6 0 6.6-1.3 9.2-3.8 2.5-2.6 3.8-5.6 3.8-9.2s-1.3-6.6-3.8-9.2z"/><path id="path57" d="m438.4 758c-2 1.7-4.4 2.5-7.2 2.5-4.8 0-8.4-2.2-10.8-6.5l2.6-1.6c0.8 1.6 1.9 2.8 3.1 3.6 1.2 1 3 1.4 5.1 1.4 4.7 0 7-2 7-6 0-1.8-0.8-3.3-2.5-4.6-0.5-0.3-1.2-0.6-2.1-1s-2.1-0.8-3.4-1.3c-2.5-0.9-4.3-1.8-5.4-2.7-1.6-1.3-2.4-3.2-2.4-5.6 0-2.1 0.8-3.9 2.4-5.4 1.5-1.5 3.6-2.3 6.1-2.3 3.5 0 6.4 1.2 8.8 3.6l-2.3 2c-1.7-1.7-3.9-2.5-6.5-2.5-3.6 0-5.4 1.6-5.4 4.7 0 1.4 0.5 2.5 1.6 3.5 0.9 0.7 2.3 1.4 4.3 2 1.7 0.6 3.1 1.2 4.2 1.7s1.9 1 2.5 1.4c2.1 1.7 3.2 3.9 3.2 6.7 0 2.6-1 4.8-2.9 6.4z"/><path id="path59" d="m472.2 723.5c-0.6 0-1.1-0.2-1.7-0.7-0.5-0.5-0.7-1-0.8-1.8 0-1.3 0.8-2.2 2.5-2.5 1.2 0 2.1 0.8 2.5 2.5 0 1.7-0.9 2.5-2.5 2.5zm-1.6 36.5v-31h3.1v31h-3.1z"/><path id="path61" d="m502.6 760v-18.5c0-6.5-3-9.8-8.8-9.8-2.9 0-5.1 0.9-6.6 2.5-1.5 1.7-2.3 4-2.3 7v18.8h-3.1v-31h3.1v3.8c1.4-2.8 4.4-4.1 8.9-4.1 3.8 0 6.8 1.1 8.8 3.3s3.1 5.3 3.1 9.2v18.8h-3.1z"/><path id="path63" d="m521.8 732.1v27.9h-3.1v-27.9h-4.2v-3.1h4.2v-13.6h3.1v13.6h7.2v3.1h-7.2z"/><path id="path65" d="m538 743.9c0 4.2 1.1 7.5 3.4 10s5.6 3.8 9.7 3.8c2.1 0 4-0.3 5.7-1 2.1-0.9 4.1-2.7 5.8-5.5l2.8 1.3c-2 3.7-5 6.2-9 7.5-1.5 0.5-3.3 0.8-5.3 0.8-4.6 0-8.5-1.5-11.5-4.6-3.1-3-4.6-6.9-4.6-11.5s1.5-8.5 4.5-11.5 6.9-4.6 11.5-4.6 8.4 1.4 11.4 4.3c3 2.8 4.6 6.6 4.6 11.1h-29zm21.1-9.9c-2.4-1.7-5.1-2.5-8.1-2.5-6.4 0-10.6 3.2-12.6 9.5h25.1c-0.5-2.9-1.9-5.2-4.4-7z"/><path id="path67" d="m590.2 733.6c-0.8-0.6-1.7-1.1-2.6-1.4s-1.8-0.5-2.8-0.5c-0.9 0-1.7 0.3-2.4 0.8s-1.4 1.2-1.9 2c-0.6 0.8-1 1.6-1.3 2.6s-0.5 1.8-0.5 2.6v20.3h-3.1v-31h3.1v4.2c0.6-1.1 1.5-2.2 2.6-3.1 1-0.9 2.2-1.4 3.4-1.4 1.5 0 2.8 0.2 3.8 0.5 1 0.4 2.1 1 3.4 1.9l-1.7 2.5z"/><path id="path69" d="m624.9 760v-5.3c-3.3 3.9-7.4 5.9-12.4 5.9-4.5 0-8.3-1.5-11.3-4.6-3.1-3.1-4.7-6.9-4.7-11.4s1.5-8.3 4.6-11.3c3.1-3.1 6.9-4.6 11.4-4.6 4.9 0 9.1 2 12.4 5.8v-5.5h3.1v31h-3.1zm-3.2-24.6c-2.5-2.6-5.6-3.8-9.1-3.8-3.6 0-6.7 1.3-9.2 3.8s-3.8 5.6-3.8 9.2 1.3 6.6 3.8 9.2 5.6 3.8 9.2 3.8 6.6-1.3 9.1-3.8c2.5-2.6 3.8-5.6 3.8-9.2s-1.3-6.6-3.8-9.2z"/><path id="path71" d="m653.2 760.6c-4.6 0-8.4-1.5-11.5-4.6s-4.6-6.9-4.6-11.5 1.5-8.4 4.6-11.5 6.9-4.6 11.5-4.6c3.9 0 7.1 0.9 9.4 2.7v3.7l-1.9-1.3-2.1-1.1c-1.9-0.6-3.7-1-5.4-1-3.9 0-7 1.2-9.4 3.6-2.5 2.5-3.7 5.6-3.7 9.5 0 3.8 1.2 6.9 3.7 9.4 2.4 2.5 5.6 3.7 9.4 3.7 3.6 0 6.8-1.2 9.4-3.6v3.8c-2.7 1.9-5.9 2.8-9.4 2.8z"/><path id="path73" d="m677.6 732.1v27.9h-3.1v-27.9h-4.2v-3.1h4.2v-13.6h3.1v13.6h7.2v3.1h-7.2z"/><path id="path75" d="m695.3 723.5c-0.6 0-1.1-0.2-1.7-0.7-0.5-0.5-0.7-1-0.8-1.8 0-1.3 0.8-2.2 2.5-2.5 1.2 0 2.1 0.8 2.5 2.5 0 1.7-0.8 2.5-2.5 2.5zm-1.6 36.5v-31h3.1v31h-3.1z"/><path id="path77" d="m720.2 761.3-14.6-32.3h3.3l11.3 24.7 11.3-24.7h3.5l-14.8 32.3z"/><path id="path79" d="m768.7 760v-5.3c-3.3 3.9-7.4 5.9-12.4 5.9-4.5 0-8.3-1.5-11.3-4.6-3.1-3.1-4.6-6.9-4.6-11.4s1.5-8.3 4.6-11.3c3.1-3.1 6.9-4.6 11.4-4.6 5 0 9.1 2 12.4 5.8v-5.5h3.1v31h-3.2zm-3.3-24.6c-2.5-2.6-5.6-3.8-9.2-3.8s-6.7 1.3-9.1 3.8c-2.6 2.5-3.8 5.6-3.8 9.2s1.3 6.6 3.8 9.2c2.5 2.5 5.6 3.8 9.1 3.8 3.6 0 6.6-1.3 9.2-3.8 2.5-2.6 3.8-5.6 3.8-9.2 0.1-3.6-1.2-6.6-3.8-9.2z"/><path id="path81" d="m797.6 758c-2 1.7-4.4 2.5-7.2 2.5-4.8 0-8.4-2.2-10.8-6.5l2.6-1.6c0.8 1.6 1.9 2.8 3.1 3.6 1.2 1 3 1.4 5.1 1.4 4.7 0 7-2 7-6 0-1.8-0.8-3.3-2.5-4.6-0.5-0.3-1.2-0.6-2.1-1s-2.1-0.8-3.4-1.3c-2.5-0.9-4.3-1.8-5.4-2.7-1.6-1.3-2.4-3.2-2.4-5.6 0-2.1 0.8-3.9 2.4-5.4 1.5-1.5 3.6-2.3 6.1-2.3 3.5 0 6.4 1.2 8.8 3.6l-2.3 2c-1.7-1.7-3.9-2.5-6.5-2.5-3.6 0-5.4 1.6-5.4 4.7 0 1.4 0.5 2.5 1.6 3.5 0.9 0.7 2.3 1.4 4.3 2 1.7 0.6 3.1 1.2 4.2 1.7s1.9 1 2.5 1.4c2.1 1.7 3.2 3.9 3.2 6.7 0 2.6-0.9 4.8-2.9 6.4z"/></g></g></svg>
