<?xml version="1.0" encoding="UTF-8" standalone="no"?>
<svg
   xmlns:dc="http://purl.org/dc/elements/1.1/"
   xmlns:cc="http://creativecommons.org/ns#"
   xmlns:rdf="http://www.w3.org/1999/02/22-rdf-syntax-ns#"
   xmlns:svg="http://www.w3.org/2000/svg"
   xmlns="http://www.w3.org/2000/svg"
   xmlns:sodipodi="http://sodipodi.sourceforge.net/DTD/sodipodi-0.dtd"
   xmlns:inkscape="http://www.inkscape.org/namespaces/inkscape"
   xml:space="preserve"
   enable-background="new 0 0 792 612"
   viewBox="0 0 1334 420"
   height="420"
   width="1334"
   y="0px"
   x="0px"
   id="Layer_1"
   version="1.0"
   inkscape:version="0.91 r13725"
   sodipodi:docname="HTML5_CSS_JavaScript.svg"><sodipodi:namedview
   pagecolor="#ffffff"
   bordercolor="#666666"
   borderopacity="1"
   objecttolerance="10"
   gridtolerance="10"
   guidetolerance="10"
   inkscape:pageopacity="0"
   inkscape:pageshadow="2"
   inkscape:window-width="1920"
   inkscape:window-height="1033"
   id="namedview26"
   showgrid="false"
   fit-margin-top="0"
   fit-margin-left="0"
   fit-margin-right="0"
   fit-margin-bottom="0"
   inkscape:zoom="0.75757576"
   inkscape:cx="807.50829"
   inkscape:cy="83.918485"
   inkscape:window-x="-4"
   inkscape:window-y="-4"
   inkscape:window-maximized="1"
   inkscape:current-layer="text4226" /><metadata
   id="metadata49"><rdf:RDF><cc:Work
       rdf:about=""><dc:format>image/svg+xml</dc:format><dc:type
         rdf:resource="http://purl.org/dc/dcmitype/StillImage" /><dc:title></dc:title></cc:Work></rdf:RDF></metadata><defs
   id="defs47" />
<g
   id="g4171"
   transform="translate(-48.313,-81.011007)"><g
     id="g3">
	<polygon
   points="196.856,500.986 75.383,467.266 48.313,163.646 345.763,163.646 318.665,467.217 "
   id="polygon5"
   style="fill:#e44f26" />
	<polygon
   points="295.465,447.887 318.623,188.471 197.038,188.471 197.038,475.175 "
   id="polygon7"
   style="fill:#f1662a" />
	<polygon
   points="197.038,338.316 197.038,301.08 147.763,301.08 144.359,262.948 197.038,262.948 197.038,225.709 196.909,225.709 103.663,225.709 104.555,235.7 113.707,338.316 "
   id="polygon9"
   style="fill:#ebebeb" />
	<polygon
   points="197.038,397.788 196.875,397.834 155.403,386.635 152.751,356.937 132.6,356.937 115.371,356.937 120.588,415.404 196.866,436.58 197.038,436.532 "
   id="polygon11"
   style="fill:#ebebeb" />
	<path
   d="m 75.988,81.135 18.924,0 0,18.696 17.311,0 0,-18.696 18.925,0 0,56.618 -18.924,0 0,-18.958 -17.31,0 0,18.958 -18.926,0 0,-56.618 0,0 z"
   id="path13"
   inkscape:connector-curvature="0"
   style="fill:#010101" />
	<path
   d="m 156.032,99.91 -16.66,0 0,-18.775 52.252,0 0,18.775 -16.667,0 0,37.843 -18.924,0 0,-37.843 -10e-4,0 z"
   id="path15"
   inkscape:connector-curvature="0"
   style="fill:#010101" />
	<path
   d="m 199.917,81.135 19.733,0 12.137,19.894 12.127,-19.894 19.739,0 0,56.618 -18.846,0 0,-28.063 -13.021,20.13 -0.325,0 -13.028,-20.13 0,28.063 -18.517,0 0,-56.618 z"
   id="path17"
   inkscape:connector-curvature="0"
   style="fill:#010101" />
	<path
   d="m 273.071,81.135 18.929,0 0,37.903 26.612,0 0,18.714 -45.542,0 0,-56.617 z"
   id="path19"
   inkscape:connector-curvature="0"
   style="fill:#010101" />
	<polygon
   points="283.467,301.08 273.433,301.08 196.909,301.08 196.909,338.316 242.763,338.316 238.441,386.61 196.909,397.82 196.909,436.562 273.249,415.404 273.808,409.114 282.559,311.079 "
   id="polygon21"
   style="fill:#ffffff" />
	<polygon
   points="290.19,225.709 196.909,225.709 196.909,248.837 196.909,262.856 196.909,262.948 286.736,262.948 286.736,262.948 286.856,262.948 287.603,254.578 289.299,235.7 "
   id="polygon23"
   style="fill:#ffffff" />
</g></g>



<g
   id="g4159"
   transform="translate(132.02395,-81.011007)"><g
     transform="translate(-66.001,0)"
     id="g25">
	<path
   style="fill:#131313"
   inkscape:connector-curvature="0"
   d="m 685.164,96.681 -24.688,0 25.674,27.859 0,13.261 -52.882,0 0,-15.526 25.669,0 -25.669,-27.86 0,-13.28 51.896,0 0,15.546 0,0 z m -62.378,0 -24.688,0 25.673,27.859 0,13.261 -52.882,0 0,-15.526 25.672,0 -25.672,-27.86 0,-13.28 51.897,0 0,15.546 z m -61.768,0.631 -26.64,0 0,24.313 26.64,0 0,16.176 -45.574,0 0,-56.666 45.574,0 0,16.177 z"
   id="path27" />
</g><polygon
     style="fill:#1572b6"
     transform="translate(-66,0)"
     points="479.142,467.29 452.071,163.67 749.521,163.67 722.425,467.241 600.614,501.011 "
     id="polygon29" /><polygon
     style="fill:#33a9dc"
     transform="translate(-66,0)"
     points="722.382,188.496 600.798,188.496 600.798,475.199 699.225,447.911 "
     id="polygon31" /><g
     transform="translate(-66,0)"
     id="g33">
	<polygon
   style="fill:#ffffff"
   points="600.797,298.496 650.072,298.496 653.475,260.364 600.797,260.364 600.797,223.125 600.926,223.125 694.172,223.125 693.279,233.116 684.127,335.732 600.797,335.732 "
   id="polygon35" />
	<polygon
   style="fill:#ebebeb"
   points="556.733,354.353 536.582,354.353 519.354,354.353 524.57,412.82 600.848,433.996 601.02,433.948 601.02,395.204 600.857,395.25 559.385,384.051 "
   id="polygon37" />
	<polygon
   style="fill:#ffffff"
   points="600.891,395.236 600.891,433.978 677.23,412.82 677.79,406.53 684.268,334.156 646.907,334.156 642.423,384.026 "
   id="polygon39" />
	<polygon
   style="fill:#ebebeb"
   points="600.926,223.125 600.926,246.253 600.926,260.272 600.926,260.364 511.098,260.364 511.098,260.364 510.979,260.364 510.232,251.994 508.535,233.116 507.645,223.125 "
   id="polygon41" />
	<path
   sodipodi:nodetypes="ccccccccc"
   inkscape:connector-curvature="0"
   id="polygon43"
   d="m 600.797,298.5 0,23.129 0,14.017 0,0.092 -82.828,0 0,0 -0.119,0 -3.334,-37.238 z"
   style="fill:#ebebeb" />
</g></g>
<g
   transform="translate(650.11889,-81.011007)"
   id="g4184"><g
     id="g4186"
     transform="translate(-96.001,0)">
	<path
   style="fill:#131313"
   d="m 685.164,96.681 -24.688,0 25.674,27.859 0,13.261 -52.882,0 0,-15.526 25.669,0 -25.669,-27.86 0,-13.28 51.896,0 0,15.546 z"
   id="path4220"
   inkscape:connector-curvature="0" /><path
   style="fill:#131313"
   d="m 602.084,121.625 -26.64,0 0,16.176 45.574,0 0,-56.666 -18.934,0 z"
   id="path4188"
   inkscape:connector-curvature="0"
   sodipodi:nodetypes="ccccccc" />
</g><polygon
     id="polygon4190"
     points="749.521,163.67 722.425,467.241 600.614,501.011 479.142,467.29 452.071,163.67 "
     transform="translate(-66,0)"
     style="fill:#63a814;fill-opacity:1" /><polygon
     id="polygon4192"
     points="600.798,475.199 699.225,447.911 722.382,188.496 600.798,188.496 "
     transform="translate(-66,0)"
     style="fill:#8acf17;fill-opacity:1" /><g
     id="g4194"
     transform="translate(-66,0)">
	<path
   style="fill:#ffffff"
   d="m 694.172,223.125 -10.045,112.607 -37.33,0 6.678,-75.368 -52.678,0 0.0645,-37.239 z"
   id="polygon4196"
   inkscape:connector-curvature="0"
   sodipodi:nodetypes="ccccccc" />
	<polygon
   id="polygon4198"
   points="600.848,433.996 601.02,433.948 601.02,395.204 600.857,395.25 559.385,384.051 556.733,354.353 536.582,354.353 519.354,354.353 524.57,412.82 "
   style="fill:#ebebeb" />
	<polygon
   id="polygon4200"
   points="600.891,433.978 677.23,412.82 677.79,406.53 684.268,334.156 646.907,334.156 642.423,384.026 600.891,395.236 "
   style="fill:#ffffff" />
	<polygon
   id="polygon4202"
   points="600.926,260.272 600.926,260.364 511.098,260.364 511.098,260.364 510.979,260.364 510.232,251.994 508.535,233.116 507.645,223.125 600.926,223.125 600.926,246.253 "
   style="fill:#ebebeb" />
	
</g></g><g
   style="font-style:normal;font-variant:normal;font-weight:bold;font-stretch:normal;font-size:281.01547241px;line-height:125%;font-family:Arial;-inkscape-font-specification:'Arial Bold';letter-spacing:0px;word-spacing:0px;fill:#000000;fill-opacity:1;stroke:none;stroke-width:1px;stroke-linecap:butt;stroke-linejoin:miter;stroke-opacity:1"
   id="text4222"
   transform="translate(-48.313,-81.011007)"><path
     d="m 438.4534,391.68996 0,-52.27875 -52.6904,0 0,-36.08744 52.6904,0 0,-52.27876 35.12694,0 0,52.27876 52.82761,0 0,36.08744 -52.82761,0 0,52.27875 -35.12694,0 z"
     id="path4231"
     inkscape:connector-curvature="0" /></g><g
   style="font-style:normal;font-variant:normal;font-weight:bold;font-stretch:normal;font-size:281.01547241px;line-height:125%;font-family:Arial;-inkscape-font-specification:'Arial Bold';letter-spacing:0px;word-spacing:0px;fill:#000000;fill-opacity:1;stroke:none;stroke-width:1px;stroke-linecap:butt;stroke-linejoin:miter;stroke-opacity:1"
   id="text4226"
   transform="translate(-48.313,-81.011007)"><path
     d="m 956.54834,391.68996 0,-52.27875 -52.6904,0 0,-36.08744 52.6904,0 0,-52.27876 35.12694,0 0,52.27876 52.82762,0 0,36.08744 -52.82762,0 0,52.27875 -35.12694,0 z"
     id="path4234"
     inkscape:connector-curvature="0" /></g></svg>