<svg xmlns="http://www.w3.org/2000/svg" width="1334" height="420" version="1"><path fill="#e44f26" d="M148.543 419.975L27.07 386.255 0 82.635h297.45l-27.098 303.571z"/><path fill="#f1662a" d="M247.152 366.876L270.31 107.46H148.725v286.704z"/><path fill="#ebebeb" d="M148.725 257.305v-37.236H99.45l-3.404-38.132h52.679v-37.239H55.35l.892 9.991 9.152 102.616zM148.725 316.777l-.163.046-41.472-11.199-2.652-29.698H67.058l5.217 58.467 76.278 21.176.172-.048z"/><path fill="#010101" d="M27.675.124h18.924V18.82H63.91V.124h18.925v56.618H63.911V37.784h-17.31v18.958H27.675V.124zM107.719 18.899h-16.66V.124h52.252v18.775h-16.667v37.843H107.72V18.899h-.001zM151.604.124h19.733l12.137 19.894L195.601.124h19.739v56.618h-18.846V28.679l-13.021 20.13h-.325l-13.028-20.13v28.063h-18.517V.124zM224.758.124h18.929v37.903h26.612v18.714h-45.542V.124z"/><path fill="#fff" d="M235.154 220.069h-86.558v37.236h45.854l-4.322 48.294-41.532 11.21v38.742l76.34-21.158.559-6.29 8.751-98.035zM241.877 144.698h-93.281v37.239h89.947l.747-8.37 1.696-18.878z"/><g><path fill="#131313" d="M751.187 15.67h-24.688l25.674 27.859V56.79h-52.882V41.264h25.669l-25.669-27.86V.124h51.896V15.67zm-62.378 0H664.12l25.673 27.859V56.79h-52.882V41.264h25.672l-25.672-27.86V.124h51.897V15.67zm-61.768.631H600.4v24.313h26.64V56.79h-45.574V.124h45.574v16.177z"/><path fill="#1572b6" d="M545.166 386.279l-27.071-303.62h297.45L788.449 386.23 666.638 420z"/><path fill="#33a9dc" d="M788.406 107.485H666.822v286.703l98.427-27.288z"/><path fill="#fff" d="M666.82 217.485h49.276l3.403-38.132H666.82v-37.239h93.375l-.893 9.991-9.152 102.616h-83.33z"/><path fill="#ebebeb" d="M622.757 273.342H585.378l5.216 58.467 76.278 21.176.172-.048v-38.744l-.163.046-41.472-11.199z"/><path fill="#fff" d="M666.915 314.225v38.742l76.339-21.158.56-6.29 6.478-72.374h-37.361l-4.484 49.87z"/><path fill="#ebebeb" d="M666.95 142.114v37.239H577.002l-.746-8.37-1.697-18.878-.89-9.991zM666.82 217.489v37.238h-82.946l-3.334-37.238z"/></g><g><g fill="#131313"><path d="M1239.282 15.67h-24.688l25.674 27.859V56.79h-52.882V41.264h25.669l-25.67-27.86V.124h51.897V15.67zM1156.202 40.614h-26.64V56.79h45.574V.124h-18.934z"/></g><path fill="#63a814" d="M1333.64 82.659l-27.096 303.571L1184.733 420l-121.472-33.721-27.071-303.62z"/><path fill="#8acf17" d="M1184.917 394.188l98.427-27.288 23.157-259.415h-121.584z"/><path fill="#fff" d="M1278.29 142.114l-10.044 112.607h-37.33l6.678-75.368h-52.678l.064-37.239z"/><path fill="#ebebeb" d="M1184.967 352.985l.172-.048v-38.744l-.163.046-41.472-11.199-2.652-29.698H1103.473l5.216 58.467z"/><path fill="#fff" d="M1185.01 352.967l76.339-21.158.56-6.29 6.478-72.374h-37.361l-4.484 49.87-41.532 11.21z"/><path fill="#ebebeb" d="M1185.045 179.261v.092H1095.097l-.746-8.37-1.697-18.878-.89-9.991h93.28v23.128z"/></g><g font-family="Arial" font-size="281.015" font-weight="700" letter-spacing="0" style="line-height:125%;-inkscape-font-specification:'Arial Bold'" word-spacing="0"><path d="M390.14 310.679V258.4h-52.69v-36.087h52.69v-52.279h35.127v52.279h52.828V258.4h-52.828v52.279H390.14z"/></g><g font-family="Arial" font-size="281.015" font-weight="700" letter-spacing="0" style="line-height:125%;-inkscape-font-specification:'Arial Bold'" word-spacing="0"><path d="M908.235 310.679V258.4h-52.69v-36.087h52.69v-52.279h35.127v52.279h52.828V258.4h-52.828v52.279h-35.127z"/></g></svg>