<svg xmlns="http://www.w3.org/2000/svg" width="568" height="247"><g fill-rule="evenodd"><path fill="#bd0000" stroke-width="1pt" d="M314.772 149.806h-.011c-1.106 0-2.082.365-3 1.106-.681.54-1.152 1.27-1.528 2.081h.047c.376-.811.847-1.54 1.517-2.081.918-.741 1.894-1.094 2.976-1.106z"/><path fill="#bd0000" stroke-width="1pt" d="M314.807 149.806h-.035c1.14.013 1.893.4 2.399 1.235.223.353.34.882.34 1.552 0 .118-.023.271-.035.4h.048c0-.129.023-.282.023-.4 0-.67-.106-1.2-.33-1.552-.505-.847-1.27-1.235-2.41-1.235z"/><g fill="#008033" stroke-width="1pt"><path d="M0 247h8.774l3.94-16.466h14.254l1.834-7.057H14.49l2.376-10.584h15.23l1.835-8.233H9.88L0 247zM39.352 247l2.634-11.056c1.388-5.986 4.317-11.29 9.856-11.29.494 0 .976.247 1.34.305l2.141-8.48c-.494 0-1.035-.058-1.646-.058-4.081 0-7.504 2.87-9.785 6.986h-.236c.341-2.011.636-3.916.859-5.81h-7.562c-.435 2.446-1.106 7.233-2.129 11.55l-4.304 17.852h8.832zM78.375 239.06c-2.435 1.189-5.21.883-8.445.883-2.552 0-4.528-.447-5.61-1.317-.564-.953-.8-2.435-.752-3.388 11.913.318 19.429-2.434 19.805-9.961.282-5.68-3.87-8.856-9.903-8.856-10.773 0-17.83 9.503-18.288 18.653-.4 7.985 3.74 11.925 12.279 11.925 3.28 0 7.632-.376 11.196-1.446l-.282-6.492zm-3.223-13.783c-.141 2.799-3.599 2.964-10.408 2.905.74-2.458 3.234-4.705 7.315-4.705 2.011 0 3.164.765 3.093 1.8zM109.553 239.06c-2.435 1.189-5.21.883-8.433.883-2.564 0-4.528-.447-5.61-1.317-.564-.953-.811-2.435-.764-3.388 11.925.318 19.429-2.434 19.817-9.961.282-5.68-3.87-8.856-9.903-8.856-10.785 0-17.841 9.503-18.3 18.653-.388 7.985 3.752 11.925 12.279 11.925 3.293 0 7.644-.376 11.208-1.446l-.294-6.492zm-3.211-13.783c-.141 2.799-3.599 2.964-10.42 2.905.753-2.458 3.234-4.705 7.315-4.705 2.011 0 3.176.765 3.105 1.8zM154.95 247c.07-3.729.964-9.586 1.893-13.432l3.776-15.971c-2.4-.811-6.14-1.176-9.738-1.176-14.608 0-21.852 10.82-22.358 20.958-.317 6.362 3.128 9.62 8.491 9.62 3.47 0 7.386-1.682 10.432-6.739h.13c-.236 2.435-.518 4.799-.67 6.74h8.044zm-6.034-16.795c-1.717 7.48-5.221 9.738-7.832 9.738-2.435 0-3.493-1.73-3.352-4.246.282-5.68 4.775-12.22 10.444-12.22.917 0 1.634-.164 2.305-.329l-1.565 7.057zM160.7 245.611c1.694 1.318 5.246 1.33 8.95 1.388 7.916.06 13.89-3.399 14.243-9.75.2-4.233-3.081-6.739-6.292-8.42-2.317-1.118-3.481-2.188-3.422-3.434.082-1.682 1.658-1.918 3.975-1.918 2.61 0 4.704.318 5.904.553l2.376-6.374c-1.353-.812-4.058-1.235-7.527-1.235-7.68 0-13.302 4.057-13.62 10.22-.188 3.81 2.553 6.375 5.87 8.115 2.68 1.376 3.598 2.435 3.528 3.928-.083 1.506-1.424 1.259-3.858 1.259-2.858 0-6.022-.377-7.692-.635l-2.434 6.303zM207.627 247l7.115-29.403h-8.715L198.865 247h8.762zm4.08-32.931c2.988 0 5.646-2.47 5.81-6.704.142-2.87-1.716-3.881-4.457-3.881-2.858 0-5.468 1.858-5.621 4.634-.142 2.799 1.717 5.95 4.269 5.95zM224.445 247l3.105-13.244c1.611-6.738 5.08-9.102 7.938-9.102 2.258 0 2.917.964 2.811 2.364a21.02 21.02 0 0 1-.47 3.375l-3.952 16.606h8.774l4.163-17.418c.318-1.505.67-3.751.741-5.116.259-5.304-2.387-7.233-7.256-7.233-3.905 0-7.704 1.812-10.703 5.74h-.117l.8-5.375h-7.74a167.814 167.814 0 0 1-2.07 9.115l-4.798 20.287h8.774zM262.197 247h8.774l3.952-16.466h14.242l1.835-7.057h-14.313l2.375-10.584h15.23l1.835-8.233h-24.05l-9.88 42.34zM301.55 247l2.634-11.056c1.387-5.986 4.316-11.29 9.855-11.29.494 0 .976.247 1.341.305l2.14-8.48c-.493 0-1.034-.058-1.646-.058-4.081 0-7.503 2.87-9.785 6.986h-.235c.34-2.011.635-3.916.858-5.81h-7.562c-.423 2.446-1.105 7.233-2.129 11.55l-4.304 17.852h8.832zM340.572 239.06c-2.435 1.189-5.21.883-8.444.883-2.552 0-4.528-.447-5.61-1.317-.565-.953-.8-2.435-.753-3.388 11.914.318 19.429-2.434 19.805-9.961.283-5.68-3.869-8.856-9.902-8.856-10.773 0-17.83 9.503-18.289 18.653-.4 7.985 3.752 11.925 12.279 11.925 3.281 0 7.644-.376 11.196-1.446l-.282-6.492zm-3.223-13.783c-.14 2.799-3.598 2.964-10.408 2.905.741-2.458 3.234-4.705 7.315-4.705 2.011 0 3.164.765 3.093 1.8zM371.75 239.06c-2.435 1.189-5.21.883-8.433.883-2.563 0-4.528-.447-5.61-1.317-.564-.953-.811-2.435-.764-3.388 11.926.318 19.429-2.434 19.817-9.961.282-5.68-3.87-8.856-9.903-8.856-10.784 0-17.84 9.503-18.3 18.653-.388 7.985 3.752 11.925 12.279 11.925 3.293 0 7.644-.376 11.208-1.446l-.294-6.492zm-3.21-13.783c-.142 2.799-3.6 2.964-10.42 2.905.752-2.458 3.233-4.705 7.314-4.705 2.012 0 3.176.765 3.105 1.8zM406.61 203.484l-3.306 13.36c-1.2-.494-2.763-.423-3.986-.423-11.267 0-19.241 9.644-19.77 20.088-.353 7.362 3.575 10.49 8.632 10.49 3.54 0 7.268-1.564 10.09-5.61h.118l-.67 5.61h7.974c.365-3.528 1.129-7.727 1.988-11.56l7.632-31.955h-8.703zm-6.87 28.72c-1.375 5.798-4.621 7.739-7.185 7.739-2.552 0-3.975-1.776-3.799-4.94.294-5.857 4.317-11.525 9.55-11.525 1.47 0 2.729.223 3.423.552l-1.988 8.174zM426.615 247c10.232 0 18.123-7.751 18.676-18.3.34-6.987-4.01-12.28-12.043-12.28-10.609 0-18.218 8.586-18.747 18.96-.365 7.55 4.504 11.62 12.114 11.62zm1.376-7.057c-2.988 0-4.634-1.906-4.458-4.752.235-4.74 3.164-11.714 8.21-11.714 3.48 0 4.55 2.67 4.41 5.293-.26 5.175-3.411 11.173-8.162 11.173zM456.193 247l3.176-13.432c1.329-5.986 4.645-10.09 7.62-10.09 2.141 0 2.73 1.564 2.623 3.61-.058 1.059-.294 2.246-.54 3.422L465.142 247h8.468l3.176-13.49c1.458-6.175 4.586-10.033 7.503-10.033 2.011 0 2.846 1.435 2.752 3.482-.059 1.188-.306 2.493-.612 3.68L482.62 247h8.527l4.104-17.418c.318-1.564.682-3.998.741-5.245.259-5.175-2.27-7.915-6.833-7.915-3.905 0-7.703 1.764-10.585 5.48-.106-2.681-2.023-5.48-6.774-5.48-3.846 0-7.515 1.74-10.455 5.68h-.118l.788-4.504h-7.55c-.495 2.517-1.094 5.563-2.012 9.115l-4.728 20.287h8.468z"/></g><path fill="#a00" fill-opacity="0" stroke="#007f32" stroke-width="5.880691639999999" d="M344.792 168.089c.478 1.227.955 2.453 1.452 3.651.766 1.629 1.652 3.187 2.716 4.642 5.749 7.815 15.377 12.094 27.601 13.16h13.15c4.157-.325 8.513-.93 13.029-1.813 7.788-1.523 16.044-3.862 24.617-6.988a220.13 220.13 0 0 0 19.943-8.427c14.75-7.07 29.988-16.19 44.938-27.196a298.34 298.34 0 0 0 14.183-11.116 282.377 282.377 0 0 0 11.956-10.525c10.633-10.246 18.66-20.653 23.205-29.791 4.734-9.516 5.68-17.652 1.8-22.777-2.377-3.146-6.356-4.832-11.478-5.23 23.075-17.314 36.523-38.318 31.7-51.56-1.533-4.227-4.904-7.38-9.738-9.123-2.149-.773-4.566-1.262-7.202-1.485h-7.101c-9.917.715-24.338 4.266-36.571 10.261"/><path fill="#008033" stroke-width="1pt" d="M53.367 8.111L13.84 186.583h363.914c-11.725-1.024-20.982-5.14-26.498-12.643-1.024-1.388-1.869-2.883-2.61-4.447-.47-1.153-.913-2.316-1.36-3.492-1.176-3.74-1.645-7.89-1.433-12.312.588-12.325 6.371-26.986 16.392-42.34 10.643-16.315 26.07-33.416 45.169-49.285 4.28-3.554 8.707-7.064 13.341-10.474 5.728-4.214 11.5-8.095 17.274-11.724 21.275-13.395 42.498-22.767 61.304-27.528-17.97 5.863-38.16 15.816-58.107 29.365-.717.485-1.426.981-2.131 1.47-11.067 7.669-21.093 15.812-29.844 24.037-28.155 26.473-43.037 53.906-36.274 69.977a20.073 20.073 0 0 0 1.727 3.16c7.268 10.691 25.281 12.54 48.11 6.8 1.552-.388 3.104-.828 4.704-1.286 7.292-2.106 15.033-4.949 23.007-8.453a225.124 225.124 0 0 0 5.807-2.647c.2-.094.388-.188.588-.294 25.168-12.505 44.51-26.894 48.697-35.54.918-1.88 1.138-3.484.515-4.74-2.987-6.058-23.89-1.966-49.212 9.004-2.035.882-4.093 1.79-6.175 2.756a195.997 195.997 0 0 1 5.256-4.704c2.87-2.472 5.84-4.89 9.004-7.277a179.748 179.748 0 0 1 14.885-10.144c23.075-17.409 34.74-33.876 32.306-39.987-.458-1.152-1.435-1.943-2.94-2.426-4.81-1.53-13.59.296-24.257 4.668-8.797 3.608-18.901 8.96-29.145 15.62l-1.396.919-.258.147-4.925 3.27 2.83-5.182c4.2-7.685 11.038-15.704 19.553-23.154 6.245-5.446 13.38-10.578 21.06-15.068 2.904-1.701 5.805-3.28 8.71-4.705a125.123 125.123 0 0 1 8.857-3.896c8.44-3.337 17.711-7.552 24.737-8.104-.64 0-20.952 2.187-20.952 2.187h-66.522-293.324H53.367zm288.627.258c-1.152 17.59 2.258 43.355 9.997 71.961a399.026 399.026 0 0 0 4.52 15.51 386.913 386.913 0 0 0 3.161 9.556c-.635.934-1.275 1.862-1.874 2.793-9.656 14.798-15.3 28.782-16.723 40.943-4.08-13.667-7.153-28.635-8.894-44.508a270.69 270.69 0 0 1-1.14-13.488c-1.905-32.276 2.309-61.533 10.953-82.767zM149.299 31.265c.22-.005.438 0 .662 0h43.478c3.717 0 6.59.697 8.637 2.095 2.035 1.407 2.798 3.226 2.316 5.44l-5.183 23.411h-15.325l5.035-22.786h-38.37l-13.856 62.626-4.999 22.677h38.334l.036-.147 7.682-34.695h-18.01l1.728-7.828H194.8l-9.556 43.295a6.121 6.121 0 0 1-.661 1.727c-.788 1.435-2.163 2.664-4.08 3.675-2.658 1.4-5.84 2.095-9.556 2.095h-43.441c-3.717 0-6.59-.695-8.637-2.095-2.035-1.4-2.81-3.187-2.316-5.402L135.7 38.8c.494-2.214 2.035-4.033 4.705-5.44.094-.05.2-.062.294-.11 2.437-1.22 5.296-1.906 8.6-1.985zm68.14 0h54.725c3.669 0 6.553.697 8.6 2.095 2.058 1.407 2.846 3.226 2.352 5.44L272.899 84.96c-.482 2.2-2.06 3.994-4.742 5.403-2.681 1.414-5.837 2.132-9.518 2.132h-39.767l-7.681 34.657-1.25 5.697h-14.995l1.14-5.145 21.353-96.44zm75.6 0h14.995l-16.98 76.704-3.711 16.759h35.87c.377 2.75.816 5.452 1.287 8.122h-53.954l4.264-19.258 18.23-82.327zm-62.406 8.16l-9.96 44.911h37.378l9.923-44.911h-37.341zm-79.703 106c.147-.006.294 0 .442 0 1.74 0 3.26.305 4.483.881 1.306.612 2.24 1.52 2.757 2.72.506 1.164.638 2.486.367 3.933l-.11.55h-4.3l.037-.514c.111-1.01-.015-1.805-.405-2.352a2.474 2.474 0 0 0-.183-.22 2.397 2.397 0 0 0-.368-.294c-.601-.38-1.543-.588-2.756-.588-1.612 0-2.816.28-3.639.845-.8.553-1.305 1.17-1.47 1.911-.165.753.106 1.148.294 1.36l.037.037c.238.203 1.066.679 3.638 1.286 2.329.565 3.871 1.072 4.741 1.507 1.318.67 2.238 1.54 2.72 2.61.482 1.058.588 2.297.294 3.638-.294 1.305-.96 2.51-1.948 3.638-.976 1.13-2.218 2.023-3.712 2.647a12.554 12.554 0 0 1-4.778.955c-2.117 0-3.816-.32-5.145-.955-1.388-.659-2.389-1.698-2.977-3.05-.565-1.318-.685-2.813-.368-4.448l.11-.514h4.227l-.036.514c-.106.976-.002 1.764.257 2.352.247.565.717 1.032 1.47 1.397.8.388 1.8.588 2.94.588a8.087 8.087 0 0 0 2.793-.478c.824-.294 1.478-.682 1.948-1.176.459-.494.728-1.016.846-1.58.117-.506.09-.934-.11-1.287-.224-.376-.667-.71-1.36-.992l-3.602-1.066c-2.011-.506-3.365-.988-4.153-1.47-1.07-.635-1.842-1.45-2.242-2.426-.4-.964-.443-2.033-.184-3.197.27-1.247.872-2.433 1.8-3.492.942-1.07 2.156-1.91 3.603-2.462 1.279-.48 2.625-.76 4.043-.809zm38.59.073c.233-.018.452 0 .7 0l2.645.294.882.073-1.286 3.271-.257.515-2.022-.184c-.596 0-1.035.092-1.323.294-.019.015-.056.058-.073.074a1.367 1.367 0 0 0-.147.147c-.177.232-.393.647-.551 1.396 0 0-.077.318-.148.589h3.161l-.808 3.638h-3.088c-.235 1.059-3.124 14.003-3.124 14.003h-4.263s2.771-12.439 3.124-14.003h-2.462l.808-3.638h2.426c.117-.506.294-1.14.294-1.14.259-1.176.53-2.021.882-2.61a5.549 5.549 0 0 1 2.021-1.984c.707-.41 1.602-.657 2.61-.735zm10.181.184l-1.396 6.284h2.756l-.808 3.639h-2.757a8761.97 8761.97 0 0 1-1.984 8.857s-.147.943-.147 1.213v.074c0 .001.035-.002.036 0l.442.036 2.02-.147-.22 3.271.037.588-2.903.33c-1.153 0-1.998-.187-2.61-.587-.646-.424-1.023-.985-1.176-1.69-.023-.13-.073-.318-.073-.589 0-.529.1-1.424.44-2.977 0 0 1.546-6.921 1.875-8.38h-2.021l.808-3.638h2.022c.188-.847.845-3.749.845-3.749l3.418-1.8 1.396-.736zm-135.434.147h16.54l-.92 4.116H67.796c-.189.835-.943 4.216-1.213 5.44h10.474l-.918 4.116H65.664c-.223 1.023-2.242 10.107-2.242 10.107h-4.447l5.292-23.78zm22.162 5.807c.166-.02.348 0 .515 0 1.058 0 2.036.321 2.977.992l.588.404-2.279 3.749-.625-.441a2.686 2.686 0 0 0-1.47-.441c-.447 0-.863.159-1.286.44a3.25 3.25 0 0 0-1.103 1.214c-.494.905-.855 1.92-1.102 3.014l-1.985 9.04h-4.263l3.932-17.64h3.97s-.137.534-.184.734c.188-.14.386-.335.551-.44a4.543 4.543 0 0 1 1.764-.625zm12.643 0c.257-.02.51 0 .772 0 2.4 0 4.215.84 5.403 2.499.74 1.07 1.139 2.393 1.139 3.97 0 .87-.107 1.806-.33 2.829l-.331 1.286H93.743a8.114 8.114 0 0 0-.037.735c0 .918.189 1.64.588 2.169.19.259.41.492.662.661.474.31 1.085.478 1.8.478.871 0 1.636-.24 2.353-.698.682-.435 1.335-1.13 1.911-2.095h4.557l-.404.882c-.87 1.764-2.084 3.14-3.602 4.116-1.517.977-3.33 1.507-5.329 1.507-2.599 0-4.534-.84-5.733-2.499-1.188-1.623-1.444-3.866-.809-6.689.635-2.87 1.903-5.163 3.75-6.763 1.654-1.434 3.532-2.23 5.622-2.388zm19.148 0c.257-.02.51 0 .772 0 2.4 0 4.215.84 5.403 2.499.74 1.07 1.14 2.393 1.14 3.97 0 .858-.108 1.78-.331 2.792l-.331 1.323H112.89c-.01.165-.025.314-.036.478-.01.062.003.156 0 .22v.037c0 .177.025.35.036.515.06.67.234 1.23.552 1.654.06.082.117.184.183.257.54.576 1.301.882 2.28.882.87 0 1.646-.24 2.351-.698.682-.435 1.335-1.13 1.911-2.095h4.594l-.44.882c-.87 1.764-2.085 3.14-3.602 4.116-1.518.976-3.33 1.507-5.33 1.507-2.599 0-4.533-.84-5.733-2.499-.776-1.058-1.14-2.407-1.14-4.006a13.318 13.318 0 0 1 .33-2.683c.637-2.858 1.867-5.163 3.713-6.763 1.656-1.435 3.57-2.23 5.66-2.389zm52.153 0c.262-.02.504 0 .772 0 2.446 0 4.326.827 5.55 2.462 1.21 1.635 1.505 3.84.881 6.615-.482 2.165-1.179 3.913-2.131 5.183a10.041 10.041 0 0 1-3.602 3.013 9.976 9.976 0 0 1-4.447 1.066c-2.494 0-4.35-.852-5.55-2.499-.776-1.047-1.176-2.395-1.176-4.006 0-.87.096-1.795.33-2.83.706-3.152 2.147-5.553 4.264-7.093 1.554-1.122 3.27-1.77 5.109-1.911zm64.574 0c.31-.02.598 0 .92 0 1.481 0 2.645.15 3.527.514.941.377 1.609.909 1.985 1.544.365.6.551 1.336.551 2.242l-.44 2.683-.81 3.638c-.693 3.105-.846 4.27-.881 4.705-.035.588.019 1.161.184 1.69l.294.956h-4.337l-.184-.552c-.07-.258-.05-.588-.074-.882-.823.506-1.648.955-2.389 1.213a10.38 10.38 0 0 1-3.38.588c-2 0-3.48-.52-4.374-1.543-.682-.753-.993-1.673-.993-2.72 0-.4.053-.815.147-1.25.2-.893.563-1.721 1.14-2.462a6.88 6.88 0 0 1 1.984-1.764c.73-.435 1.543-.744 2.39-.956l2.609-.44c2.01-.236 3.512-.529 4.594-.846.023-.118.073-.257.073-.257.17-.757.15-1.326-.036-1.617-.015-.02-.058-.058-.074-.074-.04-.042-.1-.109-.147-.147-.442-.35-1.196-.515-2.205-.515-1.14 0-1.985.187-2.573.552-.576.364-1.11 1.032-1.58 1.984h-4.447l.404-.882c.53-1.223 1.16-2.237 1.948-3.014.788-.776 1.852-1.377 3.087-1.8.947-.313 1.98-.52 3.087-.589zm18.634 0c.166-.02.347 0 .515 0 1.07 0 2.072.321 3.013.992l.552.404-2.279 3.749-.625-.441c-.459-.294-.928-.441-1.433-.441-.447 0-.888.159-1.323.44-.447.295-.772.685-1.066 1.214-.482.905-.856 1.92-1.103 3.014l-2.021 9.04h-4.263l3.932-17.64h3.97s-.1.534-.148.734c.189-.14.375-.335.552-.44.56-.34 1.135-.553 1.727-.625zm12.606 0c.257-.02.51 0 .772 0 2.4 0 4.227.84 5.403 2.499.752 1.07 1.139 2.393 1.139 3.97 0 .87-.144 1.806-.367 2.829l-.294 1.286h-11.982c-.024.247-.073.512-.073.735 0 .918.2 1.64.588 2.169.06.082.153.184.22.257.039.041.106.109.147.147.526.478 1.241.735 2.132.735.87 0 1.634-.24 2.352-.698.682-.435 1.323-1.13 1.911-2.095h4.594l-.44.882c-.871 1.764-2.097 3.14-3.603 4.116-1.529.977-3.318 1.507-5.329 1.507-2.599 0-4.497-.84-5.696-2.499-1.188-1.623-1.469-3.866-.846-6.689.635-2.87 1.866-5.163 3.712-6.762 1.666-1.435 3.572-2.231 5.66-2.39zm-64.354.33h4.374s.54 10.469.55 10.622c.177-.375.314-.69.332-.735l4.814-9.887h4.006s.368 10.343.368 10.401c.117-.211 5.476-10.4 5.476-10.4h4.337l-9.556 17.64h-3.932s-.381-9.565-.405-10.106c-1.623 3.328-4.924 10.107-4.924 10.107h-4.043l-1.397-17.642zm-102.687 3.345c-1.013.043-1.933.408-2.793 1.102-.682.542-1.143 1.284-1.507 2.095h7.24c.013-.129.037-.286.037-.404 0-.67-.12-1.19-.331-1.544-.518-.846-1.285-1.25-2.426-1.25-.068 0-.153-.003-.22 0zm19.148 0c-1.013.043-1.933.408-2.793 1.102-.682.542-1.13 1.284-1.507 2.095h7.24c.011-.129.037-.286.037-.404 0-.67-.107-1.19-.33-1.544a2.949 2.949 0 0 0-.368-.477c-.491-.508-1.167-.772-2.059-.772-.068 0-.153-.004-.22 0zm148.114 0c-1.042.032-2.015.385-2.904 1.102-.67.542-1.13 1.284-1.507 2.095h7.204c.013-.129.037-.286.037-.404 0-.67-.108-1.19-.331-1.544-.506-.835-1.285-1.237-2.426-1.25h-.073zm-96.293.073c-.972.116-1.876.56-2.72 1.323-1.01.918-1.744 2.359-2.168 4.264-.176.8-.257 1.483-.257 2.095 0 .835.16 1.49.478 1.984.085.127.196.261.294.368.523.555 1.253.845 2.168.845 1.188 0 2.235-.442 3.235-1.36 1.011-.929 1.733-2.384 2.168-4.336.4-1.788.344-3.123-.22-3.97-.542-.823-1.333-1.213-2.426-1.213-.186 0-.372-.021-.552 0zm66.413 6.432c-1 .27-2.12.498-3.602.698-1.106.165-1.894.339-2.352.515-.4.165-.722.393-.993.698a2.173 2.173 0 0 0-.514.956 2.584 2.584 0 0 0-.037.404v.037c.002.028-.003.083 0 .11.007.053.022.134.037.184.005.016.03.057.037.073.012.032.02.08.036.11.016.03.054.082.074.11.03.043.073.108.11.148.294.33.88.477 1.727.477.93 0 1.823-.176 2.647-.587a5.147 5.147 0 0 0 1.947-1.691c.353-.494.635-1.254.883-2.242zM38.698 131.14L61.93 29.3h13.667L55.02 119.608h53.065l-2.655 11.531H38.697"/></g></svg>