<svg xmlns="http://www.w3.org/2000/svg" width="45" height="45"><path fill="none" stroke="#000" stroke-opacity=".502" stroke-width="2" d="M2.5 37.5h40"/><path d="M27 32.5h8v10h-8zM23.102 3q0 1.56.444 2.397t1.162 1.226q.719.372 2.093.799 3.867 1.17 5.283 3.159 1.416 1.97 1.416 4.775 0 2.545-1.648 5.11l-.867-.317q1.247-1.84 1.247-4.552 0-2.415-2.6-3.864-2.578-1.468-6.53-1.468v14.994q0 2.21-2.367 3.976Q18.39 31 15.58 31q-1.923 0-3.001-.799-1.078-.799-1.078-2.211 0-2.211 2.346-3.976 2.367-1.765 5.199-1.765 1.521 0 2.536.539V3z"/></svg>