<svg width="45" height="45" version="1.1" viewBox="0 0 45 45" xmlns="http://www.w3.org/2000/svg">
 <path d="m2.5 37.5h40" fill="none" stroke="#000" stroke-opacity=".50196081" stroke-width="2"/>
 <rect x="27" y="32.5" width="8" height="10"/>
 <path d="m23.102306 2.9999994q0 1.5607166 0.443804 2.3968148t1.162344 1.2262774q0.71854 0.3715991 2.092218 0.7989382 3.867436 1.1705375 5.283382 3.1585932 1.415946 1.969475 1.415946 4.77505 0 2.545454-1.648415 5.109489l-0.866474-0.31586q1.246878-1.839416 1.246878-4.55209 0-2.415394-2.599423-3.864631-2.578291-1.467818-6.53026-1.467818v14.994028q0 2.211016-2.366955 3.976112-2.345821 1.765096-5.15658 1.765096-1.923151 0-3.00096-0.798938-1.07781-0.798939-1.07781-2.211015 0-2.211016 2.345821-3.976111 2.366955-1.765097 5.198847-1.765097 1.521614 0 2.536024 0.538818v-19.787657z"/>
</svg>
