<svg width="45" height="45" version="1.1" viewBox="0 0 45 45" xmlns="http://www.w3.org/2000/svg">
 <rect x="3" y="11" width="39" height="23" fill="none" stroke="#000" stroke-linejoin="round" stroke-opacity=".50196081" stroke-width="2"/>
 <path d="m9.0000011 29.75839v-14.75839h2.6036379v5.315437q1.20453-1.489933 2.853809-1.489933 1.797529 0 2.974262 1.419463 1.176733 1.409396 1.176733 4.057047 0 2.738255-1.20453 4.218121-1.195264 1.479866-2.909403 1.479866-0.84317 0-1.66781-0.45302-0.815374-0.463088-1.408373-1.359061v1.57047zm2.5851069-5.577181q0 1.661074 0.481811 2.456376 0.67639 1.127516 1.79753 1.127516 0.861702 0 1.463966-0.795301 0.611531-0.805369 0.611531-2.526846 0-1.832215-0.611531-2.637584-0.61153-0.815437-1.565888-0.815437-0.935827 0-1.556624 0.795302-0.620795 0.785236-0.620795 2.395974z"/>
 <path d="m25.224091 19.067115v2.255033h-1.778998v4.308725q0 1.308725 0.04633 1.530202 0.0556 0.211409 0.23164 0.352349 0.185313 0.14094 0.44475 0.14094 0.361359 0 1.047014-0.271813l0.222375 2.194631q-0.90803 0.422819-2.056967 0.422819-0.704186 0-1.269388-0.251678-0.565203-0.261745-0.833906-0.66443-0.259437-0.412751-0.361359-1.107382-0.08339-0.493288-0.08339-1.993288v-4.661075h-1.195264v-2.255033h1.195264v-2.124161l2.612903-1.651007v3.775168z"/>
 <path d="m35.999999 29.75839h-2.603638v-5.456376q0-1.731543-0.166781-2.234899-0.166781-0.513423-0.546671-0.795302-0.370624-0.28188-0.898764-0.28188-0.67639 0-1.213796 0.402685-0.537405 0.402684-0.741248 1.067114-0.194578 0.66443-0.194578 2.456376v4.842282h-2.603638v-10.691275h2.418326v1.570469q1.28792-1.81208 3.242964-1.81208 0.861702 0 1.575154 0.342281 0.713453 0.332215 1.074812 0.855705 0.370625 0.523491 0.509609 1.18792 0.148249 0.66443 0.148249 1.902684z"/>
</svg>
