<svg xmlns="http://www.w3.org/2000/svg" width="45" height="45"><path fill="none" stroke="#000" stroke-linejoin="round" stroke-opacity=".502" stroke-width="2" d="M3 11h39v23H3z"/><path d="M9 29.758V15h2.604v5.315q1.204-1.49 2.853-1.49 1.798 0 2.975 1.42 1.176 1.41 1.176 4.057 0 2.738-1.204 4.218Q16.209 30 14.494 30q-.843 0-1.667-.453-.816-.463-1.409-1.36v1.571zm2.585-5.577q0 1.661.482 2.457.676 1.127 1.797 1.127.862 0 1.464-.795.612-.806.612-2.527 0-1.832-.612-2.638-.611-.815-1.565-.815-.936 0-1.557.795-.62.785-.62 2.396zm13.639-5.114v2.255h-1.779v4.309q0 1.309.046 1.53.056.211.232.352.185.141.445.141.361 0 1.047-.271l.222 2.194Q24.53 30 23.38 30q-.704 0-1.27-.252-.564-.261-.833-.664-.26-.413-.361-1.107-.084-.494-.084-1.994v-4.66h-1.195v-2.256h1.195v-2.124l2.613-1.651v3.775zM36 29.758h-2.604v-5.456q0-1.732-.166-2.235-.167-.513-.547-.795-.37-.282-.899-.282-.676 0-1.214.403-.537.402-.74 1.067-.195.664-.195 2.456v4.842H27.03v-10.69h2.418v1.57q1.288-1.812 3.243-1.812.862 0 1.575.342.714.332 1.075.855.37.524.51 1.188.148.665.148 1.903z"/></svg>