<svg xmlns="http://www.w3.org/2000/svg" width="45" height="45"><path fill-opacity=".502" d="M22.5 2a12 12 0 0 0-12 12 12 12 0 0 0 8.299 11.408v-5.674c0-2.31 1.927-4.234 4.236-4.234s4.235 1.925 4.235 4.234v3.018a4.163 4.163 0 0 1 2.126.906c.093-.022.185-.034.278-.053A12 12 0 0 0 34.5 14a12 12 0 0 0-12-12z"/><path d="M21.3 19.735v11.928c-.08.245-.262.411-.47.43l-2.623-3.257c-.372-.462-.926-.815-1.472-.818A1.732 1.732 0 0 0 15 29.753c0 .423.204.796.438 1.149l5.28 7.953c1.35 2.537 4.106 4.141 7.124 4.145 4.19 0 7.665-3.046 7.955-6.973l.292-6.856c0-.958-.777-1.736-1.735-1.735-.72 0-1.364.139-1.62.81a9.707 9.707 0 0 0-.494-.222c0-1.175-.497-2.03-1.625-2.03-1.127 0-1.478.469-1.72 1.166-.135-.016-.263-.03-.398-.042 0-1.23-.691-1.983-1.724-1.971-1.032.011-1.735.776-1.735 1.735 0 .39-.018.547-.268.547v-7.694a1.735 1.735 0 1 0-3.47 0z"/></svg>