<svg width="45" height="45" version="1.1" viewBox="0 0 45 45" xmlns="http://www.w3.org/2000/svg">
 <path d="m22.5 2a12 12 0 0 0 -12 12 12 12 0 0 0 8.298828 11.408203v-5.673828c-9.1e-5 -2.309444 1.926928-4.234375 4.236328-4.234375s4.234424 1.924926 4.234375 4.234375v3.017578c0.774301 0.09368 1.504663 0.402786 2.126953 0.90625 0.092121-0.022243 0.184916-0.034259 0.277344-0.052734a12 12 0 0 0 4.826172 -9.605469 12 12 0 0 0 -12 -12z" fill-opacity=".50196081"/>
 <path d="m21.299732 19.735116v11.927752c-0.08019 0.245273-0.262095 0.411536-0.46975 0.429361l-2.622818-3.256537c-0.371896-0.461747-0.926481-0.814995-1.472083-0.818015-0.95826-0.0054-1.735121 0.776803-1.735081 1.735079 8.96e-4 0.423615 0.203727 0.796032 0.438034 1.148941l5.280645 7.953735c1.348542 2.536762 4.105749 4.140898 7.12374 4.144568 4.189561-1.53e-4 7.664593-3.046357 7.954928-6.973241l0.29138-6.855945c3.9e-5 -0.958278-0.776807-1.735544-1.735084-1.735081-0.71914 3.07e-4 -1.363228 0.138833-1.61929 0.81084-0.159019-0.07729-0.323879-0.15168-0.493984-0.222907 0-1.1747-0.497651-2.030549-1.625236-2.030096-1.127585 4.59e-4 -1.478321 0.469034-1.720161 1.166897-0.13516-0.01629-0.262873-0.03047-0.39752-0.04249 0-1.229777-0.69192-1.98321-1.724128-1.971453-1.032209 0.01175-1.735122 0.776803-1.735082 1.735081 0 0.389666-0.01816 0.547843-0.268387 0.547843v-7.694327c4e-5 -0.958278-0.776806-1.735123-1.735061-1.735123s-1.7351 0.776845-1.735062 1.735123z"/>
</svg>
