<svg xmlns="http://www.w3.org/2000/svg" width="45" height="45"><path fill="none" stroke="#000" stroke-opacity=".502" d="M3 13.5h39v18H3z"/><path d="M15.488 16.75a.498.502 0 0 0-.234.068l-4.502 2.623-4.504 2.623a.498.502 0 0 0-.248.461.498.502 0 0 0 .248.41l4.504 2.624 4.502 2.625a.498.502 0 0 0 .746-.436V17.252a.498.502 0 0 0-.512-.502zM29.512 16.75a.498.502 0 0 0-.512.502v10.496a.498.502 0 0 0 .746.436l4.502-2.625 4.504-2.623a.498.502 0 0 0 .248-.41.498.502 0 0 0-.248-.462l-4.504-2.623-4.502-2.623a.498.502 0 0 0-.234-.068z"/><path fill-opacity=".502" d="M21.5 16.5c-.546 0-1 .454-1 1v10c0 .546.454 1 1 1h2c.546 0 1-.454 1-1v-10c0-.546-.454-1-1-1z"/></svg>