<svg width="45" height="45" version="1.1" viewBox="0 0 45 45" xmlns="http://www.w3.org/2000/svg">
 <rect x="3" y="13.5" width="39" height="18" fill="none" stroke="#000" stroke-opacity=".50196081"/>
 <path d="m15.488281 16.75a0.49772731 0.50238353 0 0 0 -0.234375 0.06836l-4.501953 2.623047-4.5039061 2.623047a0.49772731 0.50238353 0 0 0 -0.2480469 0.460937 0.49772731 0.50238353 0 0 0 0.2480469 0.410156l4.5039061 2.623047 4.501953 2.625a0.49772731 0.50238353 0 0 0 0.746094 -0.435547v-10.496094a0.49772731 0.50238353 0 0 0 -0.511719 -0.501953z"/>
 <path d="m29.511719 16.75a0.49772731 0.50238353 0 0 0 -0.511719 0.501953v10.496094a0.49772731 0.50238353 0 0 0 0.746094 0.435547l4.501953-2.625 4.503906-2.623047a0.49772731 0.50238353 0 0 0 0.248047 -0.410156 0.49772731 0.50238353 0 0 0 -0.248047 -0.460938l-4.503906-2.623047-4.501953-2.623047a0.49772731 0.50238353 0 0 0 -0.234375 -0.068359z"/>
 <path d="m21.5 16.5c-0.546315 5.5e-5 -0.999945 0.453685-1 1v10c5.5e-5 0.546315 0.453685 0.999945 1 1h2c0.546315-5.5e-5 0.999945-0.453685 1-1v-10c-5.5e-5 -0.546315-0.453685-0.999945-1-1z" fill-opacity=".50196081"/>
</svg>
