<svg width="45" height="45" version="1.1" viewBox="0 0 45 45" xmlns="http://www.w3.org/2000/svg">
 <rect x="3" y="6" width="39" height="33" fill="none" stroke="#000" stroke-linejoin="round" stroke-opacity=".50196078" stroke-width="2"/>
 <path d="m33.224609 9c-0.170355 0.00834-0.324803 0.1017452-0.410156 0.2480469l-5.248047 9.0058591c-0.192893 0.331887 0.048989 0.746232 0.435547 0.746094h10.496094c0.385691-0.0013 0.626058-0.414951 0.433594-0.746094l-5.246094-9.0058591c-0.094422-0.1618956-0.272462-0.257705-0.460938-0.2480469z"/>
 <path d="m28.001953 26c-0.386558-1.38e-4 -0.62844 0.414207-0.435547 0.746094l5.248047 9.005859c0.08535 0.146302 0.239801 0.239706 0.410156 0.248047 0.188476 0.0097 0.366516-0.08615 0.460938-0.248047l5.246094-9.005859c0.192464-0.331143-0.047903-0.744747-0.433594-0.746094z"/>
 <path d="m23.5 8.5v28" fill="none" stroke="#000" stroke-width="1px"/>
</svg>
