<svg width="45" height="45" version="1.1" viewBox="0 0 45 45" xmlns="http://www.w3.org/2000/svg">
 <path d="m6 28.5 4.608458-11.999999h1.710778l4.911323 11.999999h-1.809004l-1.399727-3.634379h-5.0177354l-1.3178717 3.634379zm3.4624828-4.927694h4.0682122l-1.252387-3.323329q-0.572988-1.514324-0.851296-2.488403-0.229195 1.15416-0.646658 2.29195z"/>
 <path d="m19.686221 28.5h-1.366985v-11.999999h1.473397v4.281036q0.933151-1.170532 2.381991-1.170532 0.802183 0 1.514325 0.327422 0.720327 0.319236 1.178717 0.908595 0.466576 0.581173 0.728513 1.407912 0.261938 0.82674 0.261938 1.768076 0 2.234652-1.105048 3.454298-1.105048 1.219645-2.652115 1.219645-1.538881 0-2.414733-1.28513zm-0.01637-4.412005q0 1.563438 0.425648 2.259208 0.695771 1.13779 1.882674 1.13779 0.965894 0 1.66985-0.834925 0.703956-0.84311 0.703956-2.504774 0-1.702592-0.679399-2.512961-0.671214-0.810368-1.628922-0.810368-0.965894 0-1.66985 0.84311-0.703957 0.834925-0.703957 2.42292z"/>
 <path d="m33.331514 25.315826 1.44884 0.188267q-0.237381 1.497953-1.219645 2.349249-0.974079 0.843111-2.398363 0.843111-1.784447 0-2.873124-1.162347-1.080491-1.170532-1.080491-3.347885 0-1.407912 0.466576-2.463847 0.466575-1.055934 1.416098-1.579809 0.957708-0.53206 2.079127-0.53206 1.416098 0 2.316507 0.720328 0.900409 0.712141 1.154161 2.030013l-1.432469 0.22101q-0.204639-0.875853-0.728513-1.317872-0.515689-0.442019-1.252388-0.442019-1.113233 0-1.809004 0.802183-0.69577 0.793997-0.69577 2.521146 0 1.751705 0.671214 2.545702t1.751705 0.793997q0.867667 0 1.44884-0.53206t0.736699-1.637107z"/>
 <path d="m43 39h-10m10-33h-10m5.000001-0.999999v34.999997" stroke="#000" stroke-miterlimit="10" stroke-width="3"/>
 <path d="m2.9999998 11.5c-0.5522619 5.5e-5 -0.9999448 0.447738-1 1v20c5.52e-5 0.552262 0.4477381 0.999945 1 1h32.5v-2h-31.5v-18h31.5v-2zm37.5 0v2h0.5v18h-0.5v2h1.5c0.552262-5.5e-5 0.999945-0.447738 1-1v-20c-5.5e-5 -0.552262-0.447738-0.999945-1-1z" color="#000000" fill-opacity=".50196078" solid-color="#000000"/>
</svg>
