<svg xmlns="http://www.w3.org/2000/svg" width="45" height="45"><path d="M6 28.5l4.608-12h1.711l4.912 12h-1.81l-1.4-3.634H9.005L7.686 28.5zm3.462-4.928h4.069l-1.253-3.323q-.573-1.514-.851-2.488-.23 1.154-.647 2.292zM19.686 28.5H18.32v-12h1.474v4.281q.933-1.17 2.382-1.17.802 0 1.514.327.72.32 1.179.909.466.58.728 1.407.262.827.262 1.769 0 2.234-1.105 3.454-1.105 1.22-2.652 1.22-1.539 0-2.415-1.286zm-.016-4.412q0 1.563.425 2.26.696 1.137 1.883 1.137.966 0 1.67-.835.704-.843.704-2.505 0-1.702-.68-2.513-.67-.81-1.628-.81-.966 0-1.67.843-.704.835-.704 2.423zM33.332 25.316l1.448.188q-.237 1.498-1.22 2.35-.973.842-2.398.842-1.784 0-2.873-1.162-1.08-1.17-1.08-3.348 0-1.408.466-2.464.467-1.056 1.416-1.58.958-.531 2.08-.531 1.416 0 2.316.72.9.712 1.154 2.03l-1.432.22q-.205-.875-.729-1.317-.515-.442-1.252-.442-1.113 0-1.81.802-.695.794-.695 2.521 0 1.752.671 2.546t1.752.794q.868 0 1.449-.532t.737-1.637z"/><path stroke="#000" stroke-miterlimit="10" stroke-width="3" d="M43 39H33M43 6H33m5-1v35"/><path fill-opacity=".502" d="M3 11.5a1 1 0 0 0-1 1v20a1 1 0 0 0 1 1h32.5v-2H4v-18h31.5v-2zm37.5 0v2h.5v18h-.5v2H42a1 1 0 0 0 1-1v-20a1 1 0 0 0-1-1z" color="#000" solid-color="#000000"/></svg>