<svg width="45" height="45" version="1.1" viewBox="0 0 45 45" xmlns="http://www.w3.org/2000/svg">
 <path d="m2.5000002 31.242715 9.2751228-24.205515h3.443164l9.884679 24.205515h-3.640857l-2.817133-7.331001h-10.098847l-2.6523888 7.331001zm6.9686984-9.939781h8.1878084l-2.520592-6.703575q-1.153213-3.054584-1.713345-5.0194242-0.461285 2.3280882-1.301483 4.6231542z"/>
 <path d="m27.310543 37.962801v-24.25505h2.701812v2.278555q0.95552-1.337413 2.158155-1.997863 1.202637-0.676962 2.915981-0.676962 2.240527 0 3.953871 1.155789 1.713345 1.155788 2.586491 3.26923 0.873146 2.09693 0.873146 4.606643 0 2.691337-0.971992 4.854313-0.95552 2.146464-2.800659 3.302253-1.828666 1.139277-3.855025 1.139277-1.482702 0-2.668864-0.627428-1.169687-0.627428-1.927512-1.585082v8.536325zm2.685339-15.3885q0 3.38481 1.367379 5.002913 1.367381 1.618104 3.311368 1.618104 1.976936 0 3.377266-1.667637 1.416803-1.684149 1.416803-5.201049 0-3.351787-1.383855-5.019425-1.367381-1.667638-3.278418-1.667638-1.894563 0-3.360791 1.783217-1.449752 1.766705-1.449752 5.151515z"/>
</svg>
