<svg xmlns="http://www.w3.org/2000/svg" width="45" height="45"><path d="M2.5 31.243l9.275-24.206h3.443l9.885 24.206h-3.64l-2.818-7.331H8.546l-2.652 7.33zm6.969-9.94h8.188l-2.521-6.704q-1.153-3.054-1.713-5.02-.462 2.329-1.302 4.624zM27.31 37.963V13.708h2.702v2.278q.956-1.337 2.159-1.998 1.202-.677 2.915-.677 2.241 0 3.954 1.156 1.714 1.156 2.587 3.27.873 2.096.873 4.606 0 2.691-.972 4.854-.956 2.147-2.8 3.303-1.83 1.139-3.856 1.139-1.482 0-2.669-.627-1.17-.628-1.927-1.586v8.537zm2.686-15.389q0 3.385 1.367 5.003 1.368 1.618 3.312 1.618 1.977 0 3.377-1.667 1.417-1.684 1.417-5.201 0-3.352-1.384-5.02-1.368-1.667-3.279-1.667-1.894 0-3.36 1.783-1.45 1.766-1.45 5.151z"/></svg>