<svg width="45" height="45" version="1.1" viewBox="0 0 45 45" xmlns="http://www.w3.org/2000/svg">
 <path d="m3 5.75c-0.5522619 5.52e-5 -0.9999448 0.4477381-1 1v3.5h2v-2.5h37v2.5h2v-3.5c-5.5e-5 -0.5522619-0.447738-0.9999448-1-1zm-1 29v3.5c5.52e-5 0.552262 0.4477381 0.999945 1 1h39c0.552262-5.5e-5 0.999945-0.447738 1-1v-3.5h-2v2.5h-37v-2.5z" dominant-baseline="auto" fill-opacity=".50196081"/>
 <path d="m1.9999984 29.000001v-13h2.0204778v5.116644h3.9590444v-5.116644h2.0204775v13h-2.0204775v-5.684174h-3.9590444v5.684174z" fill-opacity=".93965518"/>
 <path d="m15.487125 29.000001v-10.800819h-2.987125v-2.199181h8.000001v2.199181h-2.980258v10.800819z" fill-opacity=".93965518"/>
 <path d="m23 29.000001v-13h3.128531l1.878531 8.867666 1.857345-8.867666h3.135593v13h-1.942091v-10.233288l-2.055083 10.233288h-2.012714l-2.048021-10.233288v10.233288z" fill-opacity=".93965518"/>
 <path d="m36 29.000001v-13h2.007752v10.791608h4.992248v2.208392z" fill-opacity=".93965518"/>
</svg>
