<svg xmlns="http://www.w3.org/2000/svg" width="45" height="45"><path fill-opacity=".502" d="M34 42.07q0 .93-.785.93h-8.059q-.38 0-.594-.334l-9.2-14.248h-1.546v10.245q0 1.692.618 2.169.475.381 2.116.381 1.402 0 1.402.858 0 .929-.808.929H2.808Q2 43 2 42.07q0-.857 1.379-.857 1.83 0 2.282-.453.476-.452.476-2.192V15.337q0-1.692-.618-2.169-.5-.381-2.14-.381Q2 12.787 2 11.882 2 11 2.808 11h15.335q4.778 0 8.225 1.93 4.209 2.359 4.209 6.79 0 6.696-8.131 8.174 8.463 13.319 10.77 13.319.784 0 .784.858zm-5.207-22.35q0-4.789-6.252-6.409 1.712 2.097 1.712 6.41 0 4.313-1.522 6.29 6.062-1.382 6.062-6.29zm-6.323 0q0-3.597-1.213-5.146-1.379-1.787-4.85-1.787-2.591 0-2.591 1.787v12.08h1.093q4.422 0 5.896-1.215 1.665-1.382 1.665-5.718zm7.536 21.493q-3.495-3.24-9.771-13.439-1.141.405-2.806.572l8.321 12.867zm-17.45-28.426H7.468q.452.953.452 2.55v23.231q0 1.692-.428 2.645h4.992q-.451-.953-.451-2.55V14.574q0-1 .523-1.787z"/><path d="M37.154 2c-1.37 0-2.609.513-3.612 1.492A4.997 4.997 0 0 0 32 7.146c0 .56.137 1.078.481 1.448.344.37.844.523 1.376.523.489 0 .966-.199 1.303-.558a1.96 1.96 0 0 0 .52-1.34c0-.546-.181-1.065-.539-1.411-.19-.185-.493-.173-.747-.248.212-.379.39-.784.732-1.057.51-.408 1.055-.6 1.708-.6.912 0 1.527.32 2.017 1.02s.733 1.517.733 2.55c0 1.58-.774 3.325-2.436 5.232h.002l-4.856 5.563c-.132.153-.294.546-.294.95V20h10.155L43 14.476h-1.72l-.352 2.02c-.038.158-.07.27-.098.347-.024.001-.105.027-.26.043-.275.03-.683.044-1.208.044h-3.567l4.087-4.08h.002c.964-.967 1.626-1.707 2.015-2.28.659-.97 1.007-2.018 1.007-3.097 0-1.61-.593-3.002-1.733-4.023h-.003C40.086 2.485 38.717 2 37.154 2z" color="#000"/></svg>