<svg width="45" height="45" version="1.1" viewBox="0 0 45 45" xmlns="http://www.w3.org/2000/svg">
 <path d="m33.999999 42.070737q0 0.929263-0.784547 0.929263h-8.059435q-0.380386 0-0.594353-0.333582l-9.200595-14.248697h-1.545319v10.24572q0 1.691734 0.618127 2.16828 0.475484 0.381236 2.115899 0.381236 1.402676 0 1.402676 0.85778 0 0.929263-0.808322 0.929263h-14.335809q-0.8083209 0-0.8083209-0.929263 0-0.85778 1.3789004-0.85778 1.8306091 0 2.2823179-0.452718 0.4754829-0.452718 0.4754829-2.192107v-23.231572q0-1.691735-0.6181278-2.16828-0.499257-0.381236-2.139673-0.381236-1.3789004 0-1.3789004-0.905435 0-0.881609 0.8083209-0.881609h15.334323q4.778604 0 8.225855 1.930008 4.208023 2.358897 4.208023 6.790767 0 6.695458-8.130757 8.172747 8.463596 13.319435 10.769687 13.319435 0.784547 0 0.784547 0.85778zm-5.206537-22.349962q0-4.789279-6.2526-6.409531 1.711738 2.096798 1.711738 6.409531 0 4.312732-1.521546 6.290394 6.062408-1.38198 6.062408-6.290394zm-6.323923 0q0-3.597916-1.212481-5.146687-1.378901-1.787044-4.849926-1.787044-2.591382 0-2.591382 1.787044v12.080417h1.093611q4.42199 0 5.895988-1.21519 1.66419-1.381981 1.66419-5.71854zm7.536404 21.492182q-3.4948-3.240507-9.771174-13.438571-1.141159 0.405064-2.805349 0.571854l8.320951 12.866717zm-17.450223-28.425913h-5.0876667q0.4517087 0.95309 0.4517087 2.549516v23.231572q0 1.691734-0.4279346 2.644825h4.9925706q-0.451709-0.953091-0.451709-2.549516v-24.089353q0-1.000745 0.523031-1.787044z" fill-opacity=".50196078"/>
 <path d="m37.153895 2c-1.370596 0-2.608938 0.5127263-3.611986 1.4919434-1.007346 0.9834129-1.541909 2.2431531-1.541909 3.6540527 0 0.5597131 0.137179 1.0777555 0.481314 1.447998 0.344134 0.3702428 0.843777 0.5229493 1.375792 0.5229493 0.488719 0 0.965446-0.1989813 1.303382-0.5581055 0.335001-0.3560066 0.519649-0.8412713 0.519649-1.340332 0-0.5456913-0.181532-1.0648709-0.538817-1.4106446-0.190921-0.1847699-0.493338-0.1730836-0.747528-0.248291 0.212121-0.3781949 0.390711-0.7836276 0.73262-1.0568847 0.509501-0.4071989 1.055007-0.5998536 1.708028-0.5998536 0.911067 0 1.526165 0.3204315 2.016575 1.0198413 0.490412 0.6994097 0.732879 1.5170692 0.732879 2.5507154 0 1.5796335-0.774249 3.3242983-2.436387 5.2316893h0.0022l-4.855912 5.562666c-0.132218 0.152998-0.293724 0.546341-0.293724 0.95003v0.782226h10.154433l0.845495-5.523926h-1.720806l-0.351401 2.019288c-0.03811 0.158659-0.07063 0.270505-0.09796 0.347167-0.02418 0.0018-0.104341 0.02756-0.259824 0.04394-0.275019 0.02904-0.682883 0.04394-1.207545 0.04394h-3.567263l4.086911-4.080322h0.0022c0.963613-0.967535 1.6253-1.706913 2.014599-2.280756 0.6588-0.9688991 1.007352-2.0173158 1.007352-3.0959473 0-1.6099569-0.593717-3.0019952-1.733583-4.0231934h-0.0022c-1.084913-0.9650631-2.453869-1.4501903-4.016584-1.4501903z" color="#000000"/>
</svg>
