<svg xmlns="http://www.w3.org/2000/svg" width="45" height="45"><path d="M37.424 2a5.556 5.556 0 0 0-3.197.977c-.985.665-1.587 1.72-1.587 2.931 0 .49.163.966.486 1.31l.006.006.007.007c.334.332.8.5 1.277.5.468 0 .927-.182 1.248-.522a1.86 1.86 0 0 0 .501-1.29c0-.533-.184-1.05-.571-1.375-.101-.084-.265-.055-.38-.112.514-.426 1.145-.716 2.108-.716.626 0 .999.187 1.304.602.28.377.439.889.439 1.601 0 1.055-.206 1.878-.587 2.516-.38.638-.877.941-1.683.994-.238.016-.48.028-.741.048s-.456.063-.656.183-.41.407-.41.699c0 .225.125.52.328.665.204.146.408.17.598.17h1.238c.868 0 1.375.302 1.775 1.04l.002.003v.002c.326.584.514 1.404.514 2.476 0 1.01-.175 1.81-.488 2.42-.4.77-.872 1.064-1.655 1.064a4.245 4.245 0 0 1-1.844-.407c-.347-.165-.512-.432-.748-.656.122-.006.363-.07.488-.194.354-.35.58-.862.58-1.39 0-.517-.2-1.015-.554-1.373a1.845 1.845 0 0 0-1.335-.57 1.85 1.85 0 0 0-1.373.579c-.342.373-.514.88-.514 1.41 0 1.36.664 2.533 1.774 3.29S36.079 20 37.38 20a5.75 5.75 0 0 0 3.858-1.441h.002l.002-.002C42.388 17.542 43 16.214 43 14.715c0-1.254-.474-2.397-1.36-3.326-.579-.607-1.38-.872-2.152-1.178.63-.347 1.298-.644 1.758-1.21.735-.895 1.124-1.937 1.124-3.056 0-1.234-.636-2.305-1.743-3.022C39.684 2.308 38.6 2 37.425 2z"/><path fill-opacity=".502" d="M34 42.07q0 .93-.785.93h-8.059q-.38 0-.594-.334l-9.2-14.248h-1.546v10.245q0 1.692.618 2.169.475.381 2.116.381 1.402 0 1.402.858 0 .929-.808.929H2.808Q2 43 2 42.07q0-.857 1.379-.857 1.83 0 2.282-.453.476-.452.476-2.192V15.337q0-1.692-.618-2.169-.5-.381-2.14-.381Q2 12.787 2 11.882 2 11 2.808 11h15.335q4.778 0 8.225 1.93 4.209 2.359 4.209 6.79 0 6.696-8.131 8.174 8.463 13.319 10.77 13.319.784 0 .784.858zm-5.207-22.35q0-4.789-6.252-6.409 1.712 2.097 1.712 6.41 0 4.313-1.522 6.29 6.062-1.382 6.062-6.29zm-6.323 0q0-3.597-1.213-5.146-1.379-1.787-4.85-1.787-2.591 0-2.591 1.787v12.08h1.093q4.422 0 5.896-1.215 1.665-1.382 1.665-5.718zm7.536 21.493q-3.495-3.24-9.771-13.439-1.141.405-2.806.572l8.321 12.867zm-17.45-28.426H7.468q.452.953.452 2.55v23.231q0 1.692-.428 2.645h4.992q-.451-.953-.451-2.55V14.574q0-1 .523-1.787z"/></svg>