<svg width="45" height="45" version="1.1" viewBox="0 0 45 45" xmlns="http://www.w3.org/2000/svg">
 <path d="m37.424418 2.000045c-1.154392 0-2.212562 0.310935-3.197544 0.9766509-0.98498 0.6657149-1.586748 1.7200855-1.586748 2.9313176 0 0.4903337 0.16277 0.9656991 0.485738 1.3092458l0.0066 0.00664 0.0066 0.00664c0.334106 0.3320953 0.799813 0.5008524 1.276671 0.5008524 0.468712 0 0.9268-0.1825396 1.24873-0.5228192 0.325894-0.3371488 0.50078-0.8075181 0.50078-1.289476 0-0.5332457-0.184036-1.0506852-0.571707-1.3751473-0.100631-0.084229-0.264747-0.055204-0.380421-0.1120277 0.514777-0.4264098 1.145887-0.7161318 2.108441-0.7161318 0.626381 0 0.999282 0.1872443 1.30461 0.6019024 0.279894 0.3777422 0.438452 0.8893203 0.438452 1.60141 0 1.0544855-0.20547 1.8782215-0.58651 2.5161994-0.381038 0.6379779-0.877407 0.9407104-1.683127 0.9941616-0.238221 0.015312-0.480266 0.027472-0.741218 0.047914-0.260951 0.020442-0.456191 0.063012-0.65581 0.182742-0.199621 0.1197364-0.410512 0.4071109-0.410512 0.6985579 0 0.225144 0.125124 0.519613 0.328839 0.665606 0.203714 0.145995 0.407832 0.16915 0.597499 0.16915h1.237984c0.868629 0 1.37497 0.302902 1.775302 1.041245l0.0022 0.0022v0.0022c0.325391 0.583885 0.513677 1.403772 0.513677 2.475706 0 1.009399-0.174498 1.80987-0.487885 2.420788-0.400635 0.769005-0.871625 1.063213-1.654944 1.063213-0.658489 0-1.266415-0.13386-1.84408-0.406394-0.346606-0.165135-0.511672-0.432307-0.747948-0.656819 0.121569-0.0056 0.362514-0.06939 0.487886-0.193312 0.354388-0.350328 0.580305-0.861915 0.580305-1.390525 0-0.51716-0.199727-1.015203-0.554513-1.372951-0.347915-0.364811-0.831752-0.568952-1.3347-0.568952-0.521853 0-1.025539 0.197706-1.373388 0.577739-0.341755 0.373278-0.513677 0.880696-0.513677 1.4102 0 1.35948 0.663623 2.533428 1.773956 3.289518s2.304765 1.112711 3.605682 1.112711c1.451763 0 2.766107-0.489756 3.857952-1.441049h0.0022l0.0022-0.0022c1.145585-1.01459 1.758108-2.342329 1.758108-3.842067 0-1.253548-0.474056-2.396991-1.360492-3.325837-0.578231-0.606698-1.379136-0.872016-2.151412-1.177423 0.629276-0.347489 1.298112-0.6439701 1.758107-1.2103933 0.734427-0.8947035 1.124073-1.937508 1.124073-3.0556405 0-1.2341359-0.636728-2.3051274-1.743064-3.0226891-0.943669-0.6149543-2.027332-0.9226032-3.202648-0.9226032z" color-rendering="" dominant-baseline=""/>
 <path d="m33.999999 42.070737q0 0.929263-0.784547 0.929263h-8.059435q-0.380386 0-0.594353-0.333582l-9.200595-14.248697h-1.545319v10.24572q0 1.691734 0.618127 2.16828 0.475484 0.381236 2.115899 0.381236 1.402676 0 1.402676 0.85778 0 0.929263-0.808322 0.929263h-14.335809q-0.8083209 0-0.8083209-0.929263 0-0.85778 1.3789004-0.85778 1.8306091 0 2.2823179-0.452718 0.4754829-0.452718 0.4754829-2.192107v-23.231572q0-1.691735-0.6181278-2.16828-0.499257-0.381236-2.139673-0.381236-1.3789004 0-1.3789004-0.905435 0-0.881609 0.8083209-0.881609h15.334323q4.778604 0 8.225855 1.930008 4.208023 2.358897 4.208023 6.790767 0 6.695458-8.130757 8.172747 8.463596 13.319435 10.769687 13.319435 0.784547 0 0.784547 0.85778zm-5.206537-22.349962q0-4.789279-6.2526-6.409531 1.711738 2.096798 1.711738 6.409531 0 4.312732-1.521546 6.290394 6.062408-1.38198 6.062408-6.290394zm-6.323923 0q0-3.597916-1.212481-5.146687-1.378901-1.787044-4.849926-1.787044-2.591382 0-2.591382 1.787044v12.080417h1.093611q4.42199 0 5.895988-1.21519 1.66419-1.381981 1.66419-5.71854zm7.536404 21.492182q-3.4948-3.240507-9.771174-13.438571-1.141159 0.405064-2.805349 0.571854l8.320951 12.866717zm-17.450223-28.425913h-5.0876667q0.4517087 0.95309 0.4517087 2.549516v23.231572q0 1.691734-0.4279346 2.644825h4.9925706q-0.451709-0.953091-0.451709-2.549516v-24.089353q0-1.000745 0.523031-1.787044z" fill-opacity=".50196078"/>
</svg>
