<svg xmlns="http://www.w3.org/2000/svg" width="45" height="45"><path d="M22.5 2.5L10.787 21.113c-1.467 2.355-2.2 4.848-2.2 7.475 0 3.84 1.358 7.118 4.075 9.836C15.38 41.14 18.66 42.5 22.5 42.5s7.12-1.359 9.838-4.076c2.717-2.718 4.074-5.996 4.074-9.836 0-2.681-.732-5.174-2.2-7.475L22.5 2.5zm4.17 13.275l6.064 9.64a7.066 7.066 0 0 1 1.141 3.87c0 1.99-.704 3.687-2.111 5.094-1.408 1.407-3.105 2.111-5.094 2.111-1.99 0-3.688-.704-5.096-2.111-1.407-1.407-2.111-3.105-2.111-5.094 0-1.36.38-2.651 1.14-3.87l6.067-9.64z" color-interpolation="auto"/></svg>