<svg width="45" height="45" version="1.1" viewBox="0 0 45 45" xmlns="http://www.w3.org/2000/svg">
 <path d="m22.5 2.5l-11.712891 18.613281c-1.4674125 2.355085-2.1992184 4.847784-2.1992184 7.47461 0 3.84057 1.3568046 7.118546 4.0742184 9.835937 2.717392 2.717414 5.997322 4.076172 9.837891 4.076172s7.120522-1.358758 9.837891-4.076172c2.717392-2.717391 4.074218-5.995367 4.074218-9.835937 0-2.681179-0.731851-5.173855-2.199218-7.47461l-11.712891-18.613281zm4.169922 13.275391l6.064453 9.638671c0.759964 1.191585 1.140625 2.482484 1.140625 3.871094 0 1.989071-0.703963 3.686385-2.111328 5.09375-1.407354 1.407377-3.104679 2.111328-5.09375 2.111328-1.98907 0-3.688338-0.703951-5.095703-2.111328-1.407377-1.407365-2.111328-3.104679-2.111328-5.09375 0-1.360459 0.380637-2.65137 1.140625-3.871094l6.066406-9.638671z" color-interpolation="auto" color-rendering="auto" image-rendering="auto" shape-rendering="auto"/>
</svg>
