<svg xmlns="http://www.w3.org/2000/svg" width="45" height="45"><path d="M22.5 19.167q2.48 0 4.24 1.76t1.76 4.24q0 2.478-1.76 4.24-1.76 1.76-4.24 1.76c-2.48 0-3.066-.587-4.24-1.76q-1.76-1.761-1.76-4.24t1.76-4.24 4.24-1.76M37.167 10.5q2.208 0 3.77 1.562 1.563 1.564 1.563 3.771V34.5q0 2.209-1.562 3.77-1.563 1.563-3.771 1.563H7.833q-2.208 0-3.77-1.562Q2.499 36.708 2.5 34.5V15.833q0-2.208 1.563-3.77 1.561-1.564 3.77-1.563H12.5l1.062-2.833q.396-1.021 1.448-1.76t2.157-.74h10.666q1.104 0 2.157.74 1.051.739 1.447 1.76L32.5 10.5zM22.5 34.5q3.854 0 6.594-2.74t2.74-6.593q0-3.855-2.74-6.594t-6.594-2.74-6.594 2.74q-2.74 2.739-2.74 6.594 0 3.854 2.74 6.593 2.74 2.74 6.594 2.74"/></svg>