<svg xmlns="http://www.w3.org/2000/svg" width="45" height="45"><path d="M22.5 19.167c1.653 0 3.066.586 4.24 1.76 1.173 1.174 1.76 2.587 1.76 4.24 0 1.652-.587 3.066-1.76 4.24-1.174 1.173-2.587 1.76-4.24 1.76s-3.066-.587-4.24-1.76c-1.173-1.174-1.76-2.588-1.76-4.24 0-1.653.587-3.066 1.76-4.24 1.174-1.174 2.587-1.76 4.24-1.76zM37.167 10.5c1.472 0 2.729.52 3.77 1.562 1.042 1.042 1.563 2.3 1.563 3.771V34.5c0 1.472-.52 2.73-1.562 3.77-1.042 1.042-2.299 1.563-3.771 1.563H7.833c-1.472 0-2.729-.52-3.77-1.562C3.02 37.229 2.5 35.972 2.5 34.5V15.833c0-1.472.52-2.729 1.563-3.77C5.104 11.02 6.36 10.5 7.833 10.5H12.5l1.062-2.833c.264-.68.747-1.268 1.448-1.76.702-.494 1.42-.74 2.157-.74h10.666c.736 0 1.455.246 2.157.74.701.492 1.183 1.08 1.447 1.76L32.5 10.5h4.667zM22.5 34.5c2.57 0 4.767-.913 6.594-2.74 1.826-1.826 2.74-4.024 2.74-6.593 0-2.57-.914-4.768-2.74-6.594-1.827-1.826-4.025-2.74-6.594-2.74-2.57 0-4.767.914-6.594 2.74-1.826 1.826-2.74 4.024-2.74 6.594 0 2.57.914 4.767 2.74 6.593 1.827 1.827 4.025 2.74 6.594 2.74" color-interpolation="auto"/></svg>