<svg width="45" height="45" version="1.1" viewBox="0 0 45 45" xmlns="http://www.w3.org/2000/svg">
 <path d="m22.499998 19.166655c1.652703 0 3.066036 0.586801 4.239592 1.760425 1.173555 1.173601 1.760402 2.586821 1.760402 4.239591 0 1.652748-0.586847 3.065968-1.760402 4.239592-1.173556 1.173601-2.58689 1.760402-4.239592 1.760402-1.652769 0-3.065989-0.586801-4.23959-1.760402-1.173601-1.173624-1.760401-2.586844-1.760401-4.239592 0-1.65277 0.5868-3.06599 1.760401-4.239591 1.173602-1.173624 2.586821-1.760425 4.23959-1.760425zm14.666659-8.666664c1.472394 0 2.729112 0.520796 3.770978 1.562387 1.041569 1.041798 1.562365 2.298676 1.562365 3.770955v18.666654c0 1.472233-0.520796 2.72918-1.562365 3.77084-1.041866 1.041661-2.298584 1.562502-3.770978 1.562502h-29.333315c-1.4722336 0-2.7291805-0.520841-3.7708408-1.562502-1.0416602-1.04166-1.5625018-2.298607-1.5625018-3.77084v-18.666654c0-1.472279 0.5208416-2.729157 1.5625018-3.770955 1.0416603-1.041591 2.2986072-1.562387 3.7708408-1.562387h4.6666459l1.062497-2.8332714c0.263928-0.6805645 0.746547-1.2673423 1.447948-1.7605847 0.701378-0.4929912 1.420141-0.7394639 2.156224-0.7394639h10.666685c0.73606 0 1.454801 0.2464727 2.156225 0.7394639 0.701561 0.4932424 1.183905 1.0800202 1.447856 1.7605847l1.062565 2.8332714h4.666669zm-14.666659 23.999996c2.56939 0 4.76731-0.913169 6.593763-2.739576 1.826406-1.826384 2.739576-4.024305 2.739576-6.59374 0-2.569434-0.91317-4.767378-2.739576-6.593762-1.826453-1.826407-4.024373-2.739576-6.593763-2.739576-2.569433 0-4.767354 0.913169-6.593761 2.739576-1.826384 1.826384-2.739576 4.024328-2.739576 6.593762 0 2.569435 0.913192 4.767356 2.739576 6.59374 1.826407 1.826407 4.024328 2.739576 6.593761 2.739576" color-interpolation="auto" color-rendering="auto" image-rendering="auto" shape-rendering="auto"/>
</svg>
