<svg xmlns="http://www.w3.org/2000/svg" width="45" height="45"><path d="m2.5 36.925.067-1.52q2.794-.357 3.553-1.14.492-.535.76-2.793l.67-16.938q0-3.151-.38-3.643-.357-.492-2.86-.96-.626-.135-.983-.224l-.045-1.632q.827-.067 1.944-.067l8.201.313q.38.447.76 1.185l8.47 18.413 7.664-17.274q.94-2.033 1.028-2.145c.134-.12.331-.16.805-.179l8.849-.402q.224 0 .536.045l-.045 1.765q-2.1.313-3.419.939-.915.447-.916 1.117l1.073 21.81q.023.536.223.693.224.156 4.023 1.296v1.475c-2.565-.14-5.034-.508-7.598-.514a89 89 0 0 0-7.084.335l.045-1.542q.915-.358 2.436-.603 1.072-.179 1.363-.604.29-.424.29-2.368l-.693-18.034-9.787 23.352-1.72-.022L9.516 14.087l-.335 17.43q0 1.698.625 2.436.648.714 2.749 1.229l1.072.268v1.631a32 32 0 0 1-2.793-.179q-1.475-.179-3.933-.179-.514 0-4.402.202z"/></svg>