<svg width="45" height="45" version="1.1" viewBox="0 0 45 45" xmlns="http://www.w3.org/2000/svg">
 <path d="m5.8125001 8.835933h1.3671875l0.1953125 0.917969h16.718751l0.15625-0.917969h1.425781l2.871094 8.007814-1.757813 0.624998q-1.269531-3.203124-3.007813-4.492187-1.738281-1.308595-4.453125-1.308595-1.132812 0-1.347656 0.09766-0.214844 0.07813-0.3125 0.292969-0.07813 0.214843-0.07813 1.367188v18.906251q0 1.347656 0.136719 1.816407 0.15625 0.468748 0.429687 0.722655 0.273438 0.253907 0.742188 0.371094 0.488281 0.09766 2.148437 0.117186v1.640627h-10.507812v-1.640627q1.738286-0.01953 2.128911-0.117186 0.683594-0.195312 0.976562-0.742187 0.292969-0.546876 0.292969-2.011719v-19.316408q0-0.898438-0.09766-1.093749-0.07813-0.195312-0.332031-0.292969-0.234375-0.117189-0.996094-0.117189-2.128906 0-3.4179687 0.546876-1.2695274 0.546876-2.4023399 1.855468-1.1328124 1.308595-1.9335938 3.398438l-1.7578125-0.625001z" color-interpolation="auto" color-rendering="auto" image-rendering="auto" shape-rendering="auto"/>
 <path d="m41 39h-10m10-33h-10m5.000001-0.999999v34.999997" color-interpolation="auto" color-rendering="auto" fill="none" image-rendering="auto" shape-rendering="auto" stroke="#000" stroke-miterlimit="10" stroke-opacity=".50196081" stroke-width="2"/>
</svg>
