<svg xmlns="http://www.w3.org/2000/svg" width="45" height="45"><path d="M5.813 8.836H7.18l.195.918h16.719l.156-.918h1.426l2.87 8.008-1.757.625q-1.27-3.203-3.008-4.492-1.738-1.309-4.453-1.309-1.133 0-1.348.098-.214.078-.312.293-.078.214-.078 1.367v18.906q0 1.348.137 1.816.156.47.43.723.273.254.741.371.489.098 2.149.117V37H10.539v-1.64q1.738-.02 2.129-.118.684-.195.977-.742.293-.547.293-2.012V13.172q0-.899-.098-1.094-.078-.195-.332-.293-.235-.117-.996-.117-2.13 0-3.418.547-1.27.547-2.403 1.855-1.131 1.31-1.933 3.4L3 16.844z" color-interpolation="auto"/><path fill="none" stroke="#000" stroke-miterlimit="10" stroke-opacity=".502" stroke-width="2" d="M41 39H31M41 6H31m5 0v33" color-interpolation="auto"/></svg>