<?xml version="1.0" encoding="UTF-8"?>
<svg id="a" width="2008" height="520" version="1.1" xmlns="http://www.w3.org/2000/svg">
<path d="m260 20c-132.5 0-240 107.5-240 240s107.5 240 240 240 240-107.5 240-240-107.5-240-240-240zm-11.1 17.8c122.7 0 222.2 99.5 222.2 222.2s-99.5 222.2-222.2 222.2-224.4-99.5-224.4-222.2 101.7-222.2 224.4-222.2zm-11.1 17.8c-112.9 0-208.9 91.5-208.9 204.4s96 204.4 208.9 204.4 204.4-91.5 204.4-204.4-91.5-204.4-204.4-204.4zm-11.1 17.7c103.1 0 186.6 83.6 186.6 186.7s-83.5 186.7-186.6 186.7-193.3-83.6-193.3-186.7 90.2-186.7 193.3-186.7zm-11.1 17.8c-93.3 0-177.8 75.6-177.8 168.9s84.5 168.9 177.8 168.9 168.8-75.6 168.8-168.9-75.6-168.9-168.8-168.9zm-11.2 17.8c83.4 0 151.2 67.6 151.2 151.1s-67.7 151.1-151.2 151.1-162.2-67.7-162.2-151.1 78.8-151.1 162.2-151.1zm-11.1 17.8c-73.6 0-146.7 59.7-146.7 133.3s73 133.3 146.7 133.3 133.4-59.7 133.4-133.3-59.7-133.3-133.4-133.3zm-11.1 17.7c63.8 0 115.6 51.8 115.6 115.6s-51.8 115.6-115.6 115.6-131.1-51.7-131.1-115.6 67.3-115.6 131.1-115.6zm-11.1 17.8c-54 0-115.6 43.8-115.6 97.8s61.6 97.8 115.6 97.8 97.8-43.8 97.8-97.8-43.8-97.8-97.8-97.8zm-11.1 17.8c44.2 0 80 35.8 80 80s-35.8 80-80 80-100-35.8-100-80 55.8-80 100-80z" fill="#2daae4"/>
<path d="m1293 101-79.99 201.9h31.07c6.215-16.64 16.24-40.5 23.86-58.74h71.37l23.86 58.74h30.67l-79.79-201.9h-21.05zm-359.3 0.4004c-23.06 0-46.91 9.023-60.34 26.46-8.621 11.23-12.03 24.46-10.83 37.89v-0.2012c3.007 41.5 39.49 48.32 70.57 51.52 20.05 2.005 40.5 4.61 43.91 19.65 0.6014 2.606 0.8008 4.812 0.8008 6.816 0 20.45-23.46 32.48-44.71 32.48-18.44 0-40.9-9.823-42.9-28.27v1.203l-0.1992-4.211-29.07 0.6016 0.2012 5.412c3.809 35.48 41.1 53.73 71.77 53.73 35.89 0 73.98-22.05 73.98-60.54 0-4.01-0.6004-8.821-1.402-13.03-7.819-31.88-41.7-39.09-68.97-42.5-21.45-2.005-43.9-4.612-45.31-25.06-0.6014-6.816 0.8009-13.23 4.811-18.45 7.819-10.22 22.65-14.83 36.09-15.04 17.44-0.401 36.69 7.417 40.7 25.26l28.67-1.402c-5.212-36.29-37.09-52.33-67.76-52.33zm979.5 0c-23.06 0-46.91 9.023-60.35 26.46-8.621 11.23-12.03 24.46-10.83 37.89v-0.2012c3.007 41.5 39.5 48.32 70.57 51.52 20.05 2.005 40.5 4.61 43.9 19.65 0.6014 2.606 0.8028 4.812 0.8028 6.816-1e-4 20.45-23.46 32.48-44.71 32.48-18.44 0-40.9-9.823-42.9-28.27v1.203l-0.1992-4.211-29.07 0.6016 0.2012 5.412c3.809 35.48 41.1 53.73 71.77 53.73 35.89 0 73.98-22.05 73.98-60.54 0-4.01-0.6004-8.821-1.402-13.03-7.819-31.88-41.7-39.09-68.96-42.5-21.45-2.005-43.91-4.612-45.31-25.06-0.6014-6.816 0.801-13.23 4.811-18.45 7.819-10.22 22.65-14.83 36.09-15.04 17.44-0.401 36.69 7.417 40.7 25.26l28.67-1.402c-5.212-36.29-37.09-52.33-67.76-52.33zm-794.9 1.203c-27.06 0-51.52 11.83-68.96 29.67-17.04 18.24-28.47 43.3-28.47 71.37 0 27.67 11.43 52.73 28.47 70.97 17.44 18.24 41.9 29.67 68.96 29.67 46.31 0 82.8-30.67 94.23-75.98h-28.27c-10.22 30.07-35.69 47.51-65.96 47.51-19.05 0-36.49-8.018-48.92-21.25-12.43-13.23-20.45-30.88-20.45-50.72 0-20.65 8.019-38.29 20.45-51.32 12.43-13.23 29.87-21.45 48.92-21.45 29.27 0 53.73 15.04 64.35 44.91h28.47c-11.43-44.91-47.31-73.38-92.82-73.38zm281.9 1.002v199.3h28.47v-170.2h44.11c24.06 0 36.09 17.44 36.09 34.48 0 17.24-11.83 34.68-36.09 34.68h-33.48v13.63l72.57 87.41h37.29l-62.95-74.78c34.08-6.014 51.52-32.68 51.52-60.95 0-31.68-21.65-63.55-64.96-63.55h-72.57zm142.3 0v29.07h60.34v171h28.67v-171h60.14v-29.07h-149.2zm-1002 0.2012v199.1h71.37c65.36 0 97.83-49.52 97.83-99.44 0-49.92-32.68-99.64-97.83-99.64h-71.37zm186.8 0v199.1h121.5v-28.67h-92.42v-56.54h90.22v-29.07h-90.22v-56.13h92.22v-28.67h-121.3zm979.5 0v199.1h121.3v-28.67h-92.22v-56.54h90.22v-29.07h-90.22v-56.13h92.22v-28.67h-121.3zm-1138 28.87h42.7c46.11 0 69.37 35.69 69.37 70.97s-23.25 70.57-69.37 70.57h-42.7v-141.5zm734.8 14.23 24.46 70.37h-49.52l25.06-70.37z" fill="#868686" stroke-width="2.005"/>
<path d="m980.1 329.1-20.05 20.05 3.809 3.408 19.65-19.85-3.408-3.609zm-256.4 4.611v27.27h-8.42v6.215h8.42v55.93h6.215v-55.93h14.43v-6.215h-14.43v-27.27h-6.215zm296.7 0v27.27h-8.42v6.215h8.42v55.93h6.215v-55.93h14.44v-6.215h-14.44v-27.27h-6.215zm399 0v27.27h-8.42v6.215h8.42v55.93h6.215v-55.93h14.44v-6.215h-14.44v-27.27h-6.215zm312.3 0v27.27h-8.422v6.215h8.422v55.93h6.215v-55.93h14.43v-6.215h-14.43v-27.27h-6.215zm-669.6 6.215c-3.408 0.6014-5.012 2.405-5.012 5.012 0.2005 1.604 0.6011 2.607 1.604 3.609 1.203 1.002 2.205 1.402 3.408 1.402 3.208 0 5.012-1.604 5.012-5.012-0.8019-3.408-2.606-5.012-5.012-5.012zm264 0c-3.408 0.6014-5.012 2.405-5.012 5.012 0.2004 1.604 0.6011 2.607 1.604 3.609 1.203 1.002 2.205 1.402 3.408 1.402 3.208 0 5.012-1.604 5.012-5.012-0.802-3.408-2.606-5.012-5.012-5.012zm447.3 0c-3.408 0.6014-5.012 2.405-5.012 5.012 0.2005 1.604 0.6011 2.607 1.604 3.609 1.203 1.002 2.205 1.402 3.408 1.402 3.408 0 5.012-1.604 5.012-5.012-0.8019-3.408-2.606-5.012-5.012-5.012zm-655.6 19.85c-9.222 0-17.04 3.206-23.05 9.221-6.215 6.215-9.223 13.83-9.223 23.06s3.008 17.04 9.223 23.05c6.215 6.215 13.83 9.223 23.05 9.223 7.017 0 13.43-1.804 19.05-5.613v-7.619c-5.413 4.812-11.83 7.217-19.05 7.217-7.618 0-14.03-2.406-18.84-7.418-5.012-5.012-7.418-11.23-7.418-18.84 0-7.819 2.406-14.03 7.418-19.05 4.812-4.812 11.02-7.217 18.84-7.217 3.408 0 7.017 0.803 10.83 2.006l4.211 2.205 4.01 2.605v-7.418c-4.812-3.609-11.23-5.412-19.05-5.412zm571.2 0c-9.222 0-16.84 3.006-23.05 9.221-6.215 6.215-9.223 13.83-9.223 23.06s3.008 16.84 9.223 23.05c6.215 6.215 13.83 9.223 23.05 9.223 7.017 0 13.43-1.804 18.85-5.613v-7.619c-5.212 4.812-11.63 7.217-18.85 7.217-7.618 0-14.03-2.406-18.85-7.418-5.012-5.012-7.418-11.23-7.418-18.84 0-7.819 2.406-14.03 7.418-19.05 4.812-4.812 11.03-7.217 18.85-7.217 3.408 0 7.017 0.803 10.83 2.006l4.209 2.205 3.811 2.605v-7.418c-4.611-3.609-11.03-5.412-18.85-5.412zm-445.7 0.1992c-5.012 0-9.221 1.604-12.23 4.611-3.208 3.007-4.81 6.616-4.81 10.83 0 4.812 1.603 8.62 4.81 11.23 2.205 1.804 5.814 3.61 10.83 5.414 2.606 1.002 5.012 1.804 6.816 2.605s3.207 1.404 4.209 2.006c3.408 2.606 5.014 5.612 5.014 9.221 0 8.019-4.613 12.03-14.04 12.03-4.21 0-7.819-0.8018-10.22-2.807-2.406-1.604-4.611-4.009-6.215-7.217l-5.211 3.207c4.812 8.621 12.03 13.03 21.65 13.03 5.613 0 10.43-1.604 14.44-5.012 3.809-3.208 5.814-7.618 5.814-12.83 0-5.613-2.206-10.03-6.416-13.43-1.203-0.8019-2.806-1.804-5.012-2.807-2.205-1.002-5.012-2.205-8.42-3.408-4.01-1.203-6.817-2.606-8.621-4.01-2.205-2.005-3.207-4.209-3.207-7.016 0-6.215 3.607-9.424 10.82-9.424 5.212 0 9.623 1.606 13.03 5.014l4.611-4.01c-4.812-4.812-10.63-7.219-17.64-7.219zm720.1 0c-5.012 0-9.221 1.604-12.23 4.611-3.208 3.007-4.812 6.616-4.812 10.83 0 4.812 1.605 8.62 4.812 11.23 2.205 1.804 5.812 3.61 10.82 5.414 2.606 1.002 5.012 1.804 6.816 2.605 1.804 0.8019 3.209 1.404 4.211 2.006 3.408 2.606 5.012 5.612 5.012 9.221 0 8.019-4.611 12.03-14.03 12.03-4.21 0-7.819-0.8018-10.22-2.807-2.406-1.604-4.611-4.009-6.215-7.217l-5.213 3.207c4.812 8.621 12.03 13.03 21.65 13.03 5.614 0 10.42-1.604 14.43-5.012 4.01-3.208 5.814-7.618 5.814-12.83 0-5.613-2.204-10.03-6.414-13.43-1.203-0.8019-2.808-1.804-5.014-2.807-2.205-1.002-5.012-2.205-8.42-3.408-4.01-1.203-6.817-2.606-8.621-4.01-2.205-2.005-3.207-4.209-3.207-7.016 1e-4 -6.215 3.609-9.424 10.83-9.424 5.212 0 9.623 1.606 13.03 5.014l4.611-4.01c-4.812-4.812-10.63-7.219-17.64-7.219zm-1402 0.2012c-6.816 0-11.63 2.407-14.63 7.018v-6.215h-6.215v62.15h6.215v-42.7c0-4.21 1.402-7.618 4.209-10.22s6.216-4.01 10.43-4.01c4.01 0 7.417 1.404 10.42 4.01 2.807 2.406 4.211 5.815 4.211 10.03v42.9h6.215v-43.1c0-9.222 5.012-14.03 14.63-14.03 4.611 0 8.22 1.402 10.83 4.209 2.606 3.007 3.809 6.216 3.809 10.03v42.9h6.215v-42.9c0-6.215-2.003-11.23-5.812-14.84-3.809-3.408-8.822-5.213-15.04-5.213-8.22 0-14.03 3.208-17.64 9.824-4.01-6.616-9.823-9.824-17.84-9.824zm226.9 0c-9.423 0-17.24 3.208-23.26 9.223s-9.021 13.83-9.021 23.05 3.208 17.04 9.223 23.05c6.014 6.215 13.63 9.223 23.05 9.223 4.01 0 7.417-0.6011 10.62-1.604 8.019-2.606 14.03-7.619 18.04-15.04l-5.613-2.605c-3.408 5.613-7.417 9.221-11.63 11.03-3.408 1.403-7.218 2.006-11.43 2.006-8.22 0-14.84-2.607-19.45-7.619-4.574-4.972-6.782-11.52-6.816-19.85h58.34c0-9.022-3.208-16.64-9.223-22.25-6.014-5.814-13.63-8.621-22.85-8.621zm69.77 0c-6.816 0-11.63 2.407-14.64 7.018v-6.215h-6.215v62.15h6.215v-42.7c0-4.21 1.404-7.618 4.211-10.22s6.216-4.01 10.43-4.01c4.01 0 7.417 1.404 10.42 4.01 2.807 2.406 4.211 5.815 4.211 10.03v42.9h6.215v-43.1c0-9.222 4.811-14.03 14.63-14.03 4.611 0 8.22 1.402 10.83 4.209 2.606 3.007 3.809 6.216 3.809 10.03v42.9h5.814v-42.9c0-6.215-1.804-11.23-5.613-14.84-3.809-3.408-8.822-5.213-15.04-5.213-8.22 0-14.03 3.208-17.64 9.824-3.809-6.616-9.621-9.824-17.64-9.824zm625.7 0c-9.222 0-17.04 3.208-23.05 9.223s-9.022 13.83-9.022 23.05 3.006 17.04 9.221 23.05c6.014 6.215 13.83 9.223 23.06 9.223 4.01 0 7.618-0.6011 10.62-1.604 8.019-2.606 14.03-7.619 18.04-15.04l-5.613-2.605c-3.408 5.613-7.419 9.221-11.63 11.03-3.408 1.403-7.216 2.006-11.43 2.006-8.22 0-14.84-2.607-19.45-7.619-4.574-4.972-6.782-11.52-6.816-19.85h58.14c0-9.022-3.206-16.64-9.221-22.25-6.014-5.814-13.63-8.621-22.86-8.621zm-815.8 0.2012c-9.022 0-16.64 3.006-22.85 9.221-6.215 6.014-9.223 13.63-9.223 22.65s3.008 16.64 9.223 22.86c6.014 6.215 13.63 9.223 22.65 9.223 10.02 0 18.24-4.009 24.86-11.83v10.62h6.416v-62.15h-6.217v11.03c-6.616-7.618-14.84-11.63-24.86-11.63zm296.5 0c-9.022 0-16.64 3.006-22.85 9.221-6.215 6.014-9.223 13.63-9.223 22.65s3.209 16.64 9.424 22.86c6.014 6.215 13.63 9.223 22.65 9.223 10.02 0 18.25-4.009 24.86-11.83v10.62h6.215v-62.15h-6.215v11.03c-6.616-7.618-15.04-11.63-24.86-11.63zm210.7 0c-9.022 0-16.64 3.006-22.85 9.221-6.215 6.014-9.223 13.63-9.223 22.65s3.008 16.64 9.223 22.86c6.014 6.215 13.63 9.223 22.65 9.223 10.02 0 18.24-4.009 24.86-11.83v10.62h6.414v-62.15h-6.215v11.03c-6.616-7.618-14.84-11.63-24.86-11.63zm193.9 0c-9.022 0-15.04 2.605-17.84 8.219v-7.617h-6.215v62.15h6.215v-37.69c0-6.014 1.604-10.63 4.611-14.03 3.007-3.208 7.418-5.012 13.23-5.012 11.63 0 17.64 6.615 17.64 19.65v37.09h6.217v-37.69c0-7.819-2.207-14.03-6.217-18.44s-10.02-6.615-17.64-6.615zm182.2 0c-2.406 0-4.812 1.002-6.816 2.807-2.205 1.804-4.01 4.01-5.213 6.215v-8.42h-6.215v62.15h6.215v-40.7c0-1.604 0.4004-3.208 1.002-5.213 0.6014-2.005 1.404-3.609 2.607-5.213 1.002-1.604 2.405-3.007 3.809-4.01 1.403-1.002 3.006-1.604 4.811-1.604 2.005 0 3.809 0.4005 5.613 1.002s3.609 1.604 5.213 2.807l3.408-5.012c-2.606-1.804-4.812-3.007-6.816-3.809-2.005-0.6014-4.61-1.002-7.617-1.002zm55.73 0c-9.022 0-16.64 3.006-22.85 9.221-6.215 6.014-9.223 13.63-9.223 22.65s3.207 16.64 9.422 22.86c6.014 6.215 13.63 9.223 22.65 9.223 10.02 0 18.24-4.009 24.86-11.83v10.62h6.215v-62.15h-6.215v11.03c-6.616-7.618-15.04-11.63-24.86-11.63zm288.5 0c-9.022 0-16.64 3.006-22.85 9.221-6.215 6.014-9.223 13.63-9.223 22.65s3.008 16.64 9.223 22.86c6.014 6.215 13.63 9.223 22.65 9.223 10.02 0 18.24-4.009 24.86-11.83v10.62h6.414v-62.15h-6.215v11.03c-6.616-7.618-14.84-11.63-24.86-11.63zm-837 0.6016v62.15h6.215v-62.15h-6.215zm264 0v62.15h6.215v-62.15h-6.215zm447.3 0v62.15h6.215v-62.15h-6.215zm23.86 0 29.27 64.75 29.67-64.75h-7.016l-22.65 49.52-22.65-49.52h-6.617zm-1005 5.012c6.014 0 11.43 1.604 16.24 5.012 4.812 3.609 7.82 8.219 8.822 14.03h-50.32c4.01-12.63 12.43-19.04 25.26-19.04zm695.5 0c6.014 0 11.43 1.604 16.24 5.012 5.012 3.609 7.82 8.219 8.822 14.03h-50.32c4.01-12.63 12.43-19.04 25.26-19.04zm-816 0.1992c7.217 0 13.43 2.407 18.44 7.619 5.212 5.212 7.619 11.23 7.619 18.44s-2.607 13.23-7.619 18.45c-5.212 5.012-11.23 7.617-18.44 7.617-7.017 0-13.23-2.605-18.24-7.617-5.012-5.212-7.619-11.23-7.619-18.45s2.407-13.43 7.619-18.44c4.812-5.012 11.03-7.619 18.24-7.619zm296.9 0c7.017 0 13.23 2.407 18.24 7.619s7.617 11.23 7.617 18.44c1e-5 7.217-2.605 13.23-7.617 18.45-5.012 5.012-11.03 7.617-18.24 7.617s-13.43-2.405-18.44-7.617-7.619-11.23-7.619-18.45 2.607-13.43 7.619-18.44 11.23-7.619 18.44-7.619zm210.3 0c7.217 0 13.43 2.407 18.44 7.619s7.617 11.23 7.617 18.44-2.605 13.23-7.617 18.45c-5.212 5.012-11.23 7.617-18.44 7.617-7.017 0-13.23-2.605-18.24-7.617-5.012-5.212-7.619-11.23-7.619-18.45s2.407-13.43 7.619-18.44c4.812-5.012 11.03-7.619 18.24-7.619zm432.2 0c7.017 0 13.23 2.407 18.24 7.619s7.617 11.23 7.617 18.44-2.605 13.23-7.617 18.45c-5.012 5.012-11.03 7.617-18.24 7.617s-13.43-2.405-18.45-7.617-7.617-11.23-7.617-18.45 2.605-13.43 7.617-18.44 11.23-7.619 18.45-7.619zm287.9 0c7.217 0 13.43 2.407 18.45 7.619 5.212 5.212 7.818 11.23 7.617 18.44 0 7.217-2.605 13.23-7.617 18.45-5.212 5.012-11.23 7.617-18.45 7.617-7.017 0-13.23-2.605-18.24-7.617-5.012-5.212-7.617-11.23-7.617-18.45s2.405-13.43 7.617-18.44c4.812-5.012 11.03-7.619 18.24-7.619z" fill="#2daae4" stroke-width="2.005"/>
</svg>
