<?xml version="1.0" encoding="UTF-8"?>
<svg width="1334" height="420" version="1" xmlns="http://www.w3.org/2000/svg">
<path d="m148.5 420-121.5-33.72-27.07-303.6h297.4l-27.1 303.6z" fill="#e44f26"/>
<path d="m247.2 366.9 23.16-259.4h-121.6v286.7z" fill="#f1662a"/>
<path d="m148.7 257.3v-37.24h-49.28l-3.404-38.13h52.68v-37.24h-93.38l0.892 9.991 9.152 102.6zm0 59.47-0.163 0.046-41.47-11.2-2.652-29.7h-37.38l5.217 58.47 76.28 21.18 0.172-0.048z" fill="#ebebeb"/>
<path d="m27.68 0.123v56.62h18.93v-18.96h17.31v18.96h18.93v-56.62h-18.93v18.7h-17.31v-18.7h-18.92zm63.38 0v18.78h16.66 0.00195v37.84h18.92v-37.84h16.67v-18.78h-52.25zm60.54 0v56.62h18.52v-28.06l13.03 20.13h0.3242l13.02-20.13v28.06h18.85v-56.62h-19.74l-12.13 19.89-12.14-19.89h-19.73zm73.15 0v56.62h45.54v-18.71h-26.61v-37.9h-18.93zm356.7 0v56.67h45.57v-16.18h-26.64v-24.31h26.64v-16.18h-45.57zm55.44 0v13.28l25.67 27.86h-25.67v15.53h52.88v-13.26l-25.67-27.86h24.69v-15.55h-51.9zm62.38 0v13.28l25.67 27.86h-25.67v15.53h52.88v-13.26l-25.68-27.86h24.69v-15.55h-51.9zm456.9 0v40.49h-26.64v16.18h45.57v-56.67h-18.94zm31.18 0v13.28l25.67 27.86h-25.67v15.53h52.88v-13.26l-25.67-27.86h24.69v-15.55h-51.9zm-797.2 169.9v52.28h-52.69v36.09h52.69v52.28h35.13v-52.28h52.83v-36.09h-52.83v-52.28h-35.13zm518.1 0v52.28h-52.69v36.09h52.69v52.28h35.13v-52.28h52.83v-36.09h-52.83v-52.28h-35.13z" fill="#000000"/>
<path d="m235.2 220.1h-86.56v37.24h45.85l-4.322 48.29-41.53 11.21v38.74l76.34-21.16 0.559-6.29 8.751-98.04zm6.723-75.37h-93.28v37.24h89.95l0.747-8.37 1.696-18.88z" fill="#fff"/>
<path d="m545.2 386.3-27.07-303.6h297.4l-27.1 303.6-121.8 33.77z" fill="#1572b6"/>
<path d="m788.4 107.5h-121.6v286.7l98.43-27.29z" fill="#33a9dc"/>
<path d="m666.8 217.5h49.28l3.403-38.13h-52.68v-37.24h93.38l-0.893 9.991-9.152 102.6h-83.33z" fill="#ffffff"/>
<path d="m622.8 273.3h-37.38l5.216 58.47 76.28 21.18 0.172-0.048v-38.74l-0.163 0.046-41.47-11.2z" fill="#ebebeb"/>
<path d="m666.9 314.2v38.74l76.34-21.16 0.56-6.29 6.478-72.37h-37.36l-4.484 49.87z" fill="#ffffff"/>
<path d="m667 142.1v37.24h-89.95l-0.746-8.37-1.697-18.88-0.89-9.991zm-0.13 75.38v37.24h-82.95l-3.334-37.24z" fill="#ebebeb"/>
<path d="m1334 82.66-27.1 303.6-121.8 33.77-121.5-33.72-27.07-303.6z" fill="#63a814"/>
<path d="m1185 394.2 98.43-27.29 23.16-259.4h-121.6z" fill="#8acf17"/>
<path d="m1278 142.1-10.04 112.6h-37.33l6.678-75.37h-52.68l0.064-37.24z" fill="#ffffff"/>
<path d="m1185 353 0.172-0.048v-38.74l-0.163 0.046-41.47-11.2-2.652-29.7h-37.38l5.216 58.47z" fill="#ebebeb"/>
<path d="m1185 353 76.34-21.16 0.56-6.29 6.478-72.37h-37.36l-4.484 49.87-41.53 11.21z" fill="#ffffff"/>
<path d="m1185 179.3v0.092h-89.95l-0.746-8.37-1.697-18.88-0.89-9.991h93.28v23.13z" fill="#ebebeb"/>
</svg>
