<?xml version="1.0" encoding="UTF-8"?>
<svg width="568" height="247" version="1.1" xmlns="http://www.w3.org/2000/svg">
<path d="m539.5 0.5703-0.1055 0.007812c-8.583 0.6189-20.02 3.18-30.85 7.533h-60.95-293.3-100.9l-39.53 178.5h342.3c5.651 3.303 12.53 5.22 20.2 5.889l0.1289 0.01172h13.39l0.1133-0.00976c4.281-0.3347 8.748-0.9546 13.37-1.857 7.96-1.557 16.36-3.939 25.06-7.111l0.00196-0.00196c6.871-2.513 13.61-5.362 20.2-8.537l0.00586-0.00195c14.93-7.154 30.31-16.37 45.4-27.48 4.885-3.596 9.662-7.339 14.32-11.22l0.00391-0.0039c4.125-3.429 8.151-6.974 12.08-10.63l0.01953-0.01758 0.01758-0.01758c10.82-10.42 19.03-21.02 23.8-30.6 2.481-4.987 4.037-9.706 4.426-14.09 0.389-4.379-0.452-8.523-2.912-11.77l-0.00196-0.001953c-1.804-2.387-4.339-3.967-7.246-5.008 9.469-7.775 17.18-16.08 22.23-24.2 5.903-9.488 8.537-18.89 5.656-26.81l-0.00195-0.003907c-1.845-5.082-6.017-8.905-11.5-10.88h-0.00195v-0.001953c-2.438-0.877-5.104-1.406-7.949-1.646l-0.123-0.01172h-7.332zm0.2578 5.881h6.748c2.405 0.2073 4.562 0.6484 6.408 1.312 4.178 1.507 6.747 3.989 7.969 7.357v0.001953l0.00196 0.001953c1.94 5.326 0.2595 13.04-5.123 21.69-5.383 8.651-14.28 18.03-25.58 26.51l-6.236 4.68 7.773 0.6055c4.6 0.3574 7.629 1.78 9.359 4.07l0.00195 0.001953c1.419 1.874 2.044 4.358 1.746 7.707s-1.581 7.458-3.834 11.99c-4.326 8.698-12.16 18.91-22.61 28.98l-0.0039 0.00391c-3.834 3.57-7.767 7.032-11.79 10.38l-0.00196 0.00196v0.00195c-4.569 3.809-9.254 7.479-14.04 11.01-14.81 10.9-29.89 19.93-44.46 26.91l-0.00196 0.00195-0.0039 0.00196c-6.418 3.092-12.98 5.866-19.67 8.312-8.446 3.08-16.56 5.376-24.17 6.865-4.39 0.8584-8.61 1.441-12.62 1.758h-12.81c-0.0703-6e-3 -0.1409-0.01313-0.2109-0.01953h1.221c-11.72-1.024-20.98-5.14-26.5-12.64-1.024-1.388-1.868-2.883-2.609-4.447-0.47-1.153-0.9143-2.314-1.361-3.49-1.176-3.74-1.644-7.89-1.432-12.31 0.588-12.32 6.37-26.99 16.39-42.34 10.64-16.32 26.07-33.42 45.17-49.29 4.28-3.554 8.708-7.065 13.34-10.47 5.728-4.214 11.5-8.096 17.27-11.72 21.28-13.4 42.5-22.77 61.3-27.53-17.97 5.863-38.16 15.82-58.11 29.37-0.717 0.485-1.426 0.9817-2.131 1.471-11.07 7.669-21.09 15.81-29.84 24.04-28.16 26.47-43.04 53.91-36.28 69.98a20.07 20.07 0 0 0 1.727 3.16c7.268 10.69 25.28 12.54 48.11 6.799 1.552-0.388 3.103-0.8272 4.703-1.285 7.292-2.106 15.03-4.949 23.01-8.453a225.1 225.1 0 0 0 5.807-2.646c0.2-0.094 0.3879-0.1889 0.5879-0.2949 25.17-12.5 44.51-26.89 48.7-35.54 0.918-1.88 1.139-3.484 0.5156-4.74-2.987-6.058-23.89-1.966-49.21 9.004-2.035 0.882-4.094 1.79-6.176 2.756a196 196 0 0 1 5.258-4.705c2.87-2.472 5.84-4.888 9.004-7.275a179.7 179.7 0 0 1 14.88-10.14c23.08-17.41 34.74-33.88 32.3-39.99-0.458-1.152-1.434-1.945-2.939-2.428-4.81-1.53-13.59 0.296-24.26 4.668-8.797 3.608-18.9 8.961-29.14 15.62l-1.396 0.918-0.2578 0.1484-4.924 3.27 2.83-5.182c4.2-7.685 11.04-15.7 19.55-23.15 6.245-5.446 13.38-10.58 21.06-15.07 2.904-1.701 5.804-3.28 8.709-4.705a125.1 125.1 0 0 1 8.857-3.896c2.343-0.9265 4.751-1.92 7.156-2.885 8.128-2.638 16.19-4.247 22.27-4.691zm-197.7 1.918c-1.152 17.59 2.257 43.35 9.996 71.96a399 399 0 0 0 4.521 15.51 386.9 386.9 0 0 0 3.16 9.557c-0.635 0.934-1.274 1.862-1.873 2.793-9.656 14.8-15.3 28.78-16.72 40.94-4.08-13.67-7.152-28.64-8.893-44.51a270.7 270.7 0 0 1-1.141-13.49c-1.905-32.28 2.309-61.53 10.95-82.77zm-280.1 20.93h13.67l-20.58 90.31h53.07l-2.656 11.53h-66.73l23.23-101.8zm87.37 1.965c0.22-5e-3 0.4381 0 0.6621 0h43.48c3.717 0 6.59 0.6958 8.637 2.094 2.035 1.407 2.798 3.227 2.316 5.441l-5.184 23.41h-15.32l5.035-22.79h-38.37l-13.86 62.62-5 22.68h38.33l0.03711-0.1484 7.682-34.69h-18.01l1.729-7.828h33.34l-9.557 43.29a6.121 6.121 0 0 1-0.6621 1.727c-0.788 1.435-2.161 2.665-4.078 3.676-2.658 1.4-5.841 2.094-9.557 2.094h-43.44c-3.717 0-6.59-0.6938-8.637-2.094-2.035-1.4-2.81-3.187-2.316-5.402l19.15-86.55c0.494-2.214 2.035-4.034 4.705-5.441 0.094-0.05 0.2009-0.06137 0.2949-0.1094 2.437-1.22 5.296-1.905 8.6-1.984zm68.14 0h54.72c3.669 0 6.553 0.6958 8.6 2.094 2.058 1.407 2.846 3.227 2.352 5.441l-10.22 46.16c-0.482 2.2-2.06 3.993-4.742 5.402-2.681 1.414-5.837 2.131-9.518 2.131h-39.77l-7.68 34.66-1.25 5.697h-15l1.141-5.146 21.35-96.44zm75.6 0h14.99l-16.98 76.7-3.711 16.76h35.87c0.377 2.75 0.8161 5.451 1.287 8.121h-53.95l4.264-19.26 18.23-82.33zm-62.41 8.16-9.959 44.91h37.38l9.924-44.91h-37.34zm-79.7 106-0.00195 0.00195c0.147-6e-3 0.2934 0 0.4414 0 1.74 0 3.261 0.3049 4.484 0.8809 1.306 0.612 2.239 1.519 2.756 2.719 0.506 1.164 0.6382 2.487 0.3672 3.934l-0.1094 0.5508h-4.301l0.03711-0.5156c0.111-1.01-0.0143-1.805-0.4043-2.352a2.474 2.474 0 0 0-0.1836-0.2188 2.397 2.397 0 0 0-0.3672-0.2949c-0.601-0.38-1.543-0.5879-2.756-0.5879-1.612 0-2.816 0.2807-3.639 0.8457-0.8 0.553-1.306 1.169-1.471 1.91-0.165 0.753 0.105 1.147 0.293 1.359l0.03711 0.03711c0.238 0.203 1.067 0.6801 3.639 1.287 2.329 0.565 3.87 1.071 4.74 1.506 1.318 0.67 2.239 1.541 2.721 2.611 0.482 1.058 0.5889 2.296 0.2949 3.637-0.294 1.305-0.9612 2.511-1.949 3.639-0.976 1.13-2.217 2.022-3.711 2.646a12.55 12.55 0 0 1-4.779 0.9551c-2.117 0-3.816-0.3201-5.145-0.9551-1.388-0.659-2.389-1.697-2.977-3.049-0.565-1.318-0.6861-2.814-0.3691-4.449l0.1113-0.5137h4.227l-0.03516 0.5137c-0.106 0.976-3e-3 1.764 0.2559 2.352 0.247 0.565 0.7177 1.033 1.471 1.398 0.8 0.388 1.799 0.5879 2.939 0.5879a8.087 8.087 0 0 0 2.793-0.4785c0.824-0.294 1.477-0.6818 1.947-1.176 0.459-0.494 0.7297-1.016 0.8477-1.58 0.117-0.506 0.0887-0.9341-0.1113-1.287-0.224-0.376-0.6664-0.7102-1.359-0.9922l-3.602-1.066c-2.011-0.506-3.366-0.9868-4.154-1.469-1.07-0.635-1.84-1.45-2.24-2.426-0.4-0.964-0.4446-2.033-0.1855-3.197 0.27-1.247 0.8728-2.433 1.801-3.492 0.942-1.07 2.157-1.911 3.604-2.463 1.279-0.48 2.625-0.7596 4.043-0.8086zm38.59 0.07422h0.00195c0.2323-0.0178 0.4519 0 0.6992 0l2.645 0.2949 0.8809 0.07226-1.285 3.271-0.2578 0.5137-2.021-0.1836c-0.596 0-1.034 0.0929-1.322 0.2949-0.01901 0.015-0.05722 0.05822-0.07422 0.07422a1.367 1.367 0 0 0-0.1465 0.1465c-0.177 0.232-0.3928 0.6475-0.5508 1.396 0 0-0.0774 0.3169-0.1484 0.5879h3.162l-0.8086 3.639h-3.088c-0.235 1.059-3.125 14-3.125 14h-4.262s2.77-12.44 3.123-14h-2.461l0.8066-3.639h2.428c0.117-0.506 0.293-1.141 0.293-1.141 0.259-1.176 0.5308-2.02 0.8828-2.609a5.549 5.549 0 0 1 2.02-1.984c0.7065-0.4097 1.602-0.6562 2.609-0.7344zm10.18 0.1836-1.396 6.285h2.756l-0.8066 3.639h-2.758a8762 8762 0 0 1-1.984 8.857s-0.1465 0.9429-0.1465 1.213v0.07227 0.00195h0.00196c6e-3 1.1e-4 0.0269-0.00295 0.0332-0.00195l0.4434 0.03711 2.02-0.1465-0.2207 3.27 0.03711 0.5879-2.902 0.3301c-1.153 0-1.997-0.1859-2.609-0.5859-0.646-0.424-1.025-0.9844-1.178-1.689-0.023-0.13-0.07226-0.3188-0.07226-0.5898 0-0.529 0.0994-1.424 0.4394-2.977 0 0 1.546-6.922 1.875-8.381h-2.02l0.8066-3.637h2.023c0.188-0.847 0.8438-3.75 0.8438-3.75l3.418-1.799 1.396-0.7363zm-135.4 0.1465h16.54l-0.9199 4.117h-12.09c-0.189 0.835-0.9448 4.215-1.215 5.439h10.47l-0.918 4.117h-10.47c-0.223 1.023-2.242 10.11-2.242 10.11h-4.447l5.293-23.78zm22.29 5.799c0.129-3e-3 0.2615 0.00977 0.3867 0.00977 1.058 0 2.038 0.3212 2.979 0.9922l0.5879 0.4023-2.279 3.75-0.625-0.4414a2.686 2.686 0 0 0-1.471-0.4414c-0.447 0-0.8622 0.1604-1.285 0.4414a3.25 3.25 0 0 0-1.104 1.213c-0.494 0.905-0.8546 1.92-1.102 3.014l-1.986 9.041h-4.262l3.932-17.64h3.971s-0.1385 0.5344-0.1855 0.7344c0.188-0.14 0.3858-0.3344 0.5508-0.4394a4.543 4.543 0 0 1 1.766-0.625c0.0415-5e-3 0.08394-0.00877 0.127-0.00977zm167.2 0c0.1288-3e-3 0.2627 0.00977 0.3887 0.00977 1.07 0 2.073 0.3212 3.014 0.9922l0.5508 0.4023-2.277 3.75-0.625-0.4414c-0.459-0.294-0.9286-0.4414-1.434-0.4414-0.447 0-0.8873 0.1604-1.322 0.4414-0.447 0.295-0.7724 0.6839-1.066 1.213-0.482 0.905-0.8565 1.92-1.104 3.014l-2.021 9.041h-4.262l3.932-17.64h3.969s-0.0985 0.5344-0.1465 0.7344c0.189-0.14 0.3738-0.3344 0.5508-0.4394 0.56-0.34 1.135-0.553 1.727-0.625 0.0415-5e-3 0.084-0.00877 0.127-0.00977zm-135.5 0.00782 0.00195 0.00195c0.257-0.02 0.5095 0 0.7715 0 2.4 0 4.214 0.839 5.402 2.498 0.74 1.07 1.141 2.394 1.141 3.971 0 0.858-0.109 1.779-0.332 2.791l-0.3301 1.324h-11.98c-0.01 0.165-0.0261 0.3126-0.0371 0.4766-0.01 0.062 3e-3 0.1567 0 0.2207v0.03711c0 0.177 0.0261 0.3506 0.0371 0.5156 0.06001 0.67 0.2328 1.228 0.5508 1.652 0.06 0.082 0.1176 0.1848 0.1836 0.2578 0.54 0.576 1.3 0.8828 2.279 0.8828 0.87 0 1.647-0.2412 2.352-0.6992 0.682-0.435 1.336-1.129 1.912-2.094h4.594l-0.4414 0.8809c-0.87 1.764-2.085 3.141-3.602 4.117-1.518 0.976-3.33 1.506-5.33 1.506-2.599 0-4.532-0.839-5.732-2.498-0.776-1.058-1.141-2.407-1.141-4.006a13.32 13.32 0 0 1 0.3301-2.684c0.637-2.858 1.867-5.164 3.713-6.764 1.656-1.435 3.57-2.23 5.66-2.389zm116.7 0v0.00195c0.31-0.02 0.5979 0 0.9199 0 1.481 0 2.645 0.1497 3.527 0.5137 0.941 0.377 1.608 0.908 1.984 1.543 0.365 0.6 0.5508 1.336 0.5508 2.242l-0.4395 2.684-0.8105 3.639c-0.693 3.105-0.8459 4.27-0.8809 4.705-0.035 0.588 0.0186 1.16 0.1836 1.689l0.2949 0.9551h-4.338l-0.1836-0.5508c-0.07-0.258-0.05022-0.5888-0.07422-0.8828-0.823 0.506-1.648 0.9549-2.389 1.213a10.38 10.38 0 0 1-3.381 0.5879c-2 0-3.479-0.52-4.373-1.543-0.682-0.753-0.9922-1.672-0.9922-2.719 0-0.4 0.0525-0.815 0.1465-1.25 0.2-0.893 0.5617-1.722 1.139-2.463a6.88 6.88 0 0 1 1.984-1.764c0.73-0.435 1.544-0.745 2.391-0.957l2.609-0.4395c2.01-0.236 3.512-0.5287 4.594-0.8457 0.023-0.118 0.07226-0.2578 0.07226-0.2578 0.17-0.757 0.1508-1.326-0.03515-1.617-0.015-0.02-0.05822-0.05627-0.07422-0.07226-0.04-0.04201-0.0995-0.1104-0.1465-0.1484-0.442-0.35-1.196-0.5137-2.205-0.5137-1.14 0-1.986 0.1858-2.574 0.5508-0.576 0.364-1.11 1.032-1.58 1.984h-4.445l0.4023-0.8828c0.53-1.223 1.161-2.237 1.949-3.014 0.788-0.776 1.851-1.376 3.086-1.799 0.947-0.313 1.981-0.5208 3.088-0.5898zm31.24 0v0.00195c0.257-0.02 0.5095 0 0.7715 0 2.4 0 4.226 0.839 5.402 2.498 0.752 1.07 1.141 2.394 1.141 3.971 0 0.87-0.1442 1.805-0.3672 2.828l-0.2949 1.287h-11.98c-0.024 0.247-0.07226 0.5114-0.07226 0.7344 0 0.918 0.1999 1.639 0.5879 2.168 0.06 0.082 0.1537 0.1848 0.2207 0.2578 0.039 0.041 0.1055 0.1085 0.1465 0.1465 0.526 0.478 1.24 0.7363 2.131 0.7363 0.87 0 1.636-0.2412 2.354-0.6992 0.682-0.435 1.322-1.129 1.91-2.094h4.594l-0.4395 0.8809c-0.871 1.764-2.098 3.141-3.604 4.117-1.529 0.977-3.317 1.506-5.328 1.506-2.599 0-4.498-0.839-5.697-2.498-1.188-1.623-1.469-3.866-0.8457-6.689 0.635-2.87 1.867-5.163 3.713-6.762 1.666-1.435 3.572-2.232 5.66-2.391zm-167.1 0.00195c0.257-0.02 0.5095 0 0.7715 0 2.4 0 4.214 0.839 5.402 2.498 0.74 1.07 1.141 2.394 1.141 3.971 0 0.87-0.1071 1.805-0.3301 2.828l-0.332 1.287h-11.98a8.114 8.114 0 0 0-0.03711 0.7344c0 0.918 0.1908 1.639 0.5898 2.168 0.19 0.259 0.4082 0.4931 0.6602 0.6621 0.474 0.31 1.086 0.4785 1.801 0.4785 0.871 0 1.637-0.2412 2.354-0.6992 0.682-0.435 1.334-1.129 1.91-2.094h4.557l-0.4023 0.8809c-0.87 1.764-2.086 3.141-3.604 4.117-1.517 0.977-3.329 1.506-5.328 1.506-2.599 0-4.533-0.839-5.732-2.498-1.188-1.623-1.446-3.866-0.8105-6.689 0.635-2.87 1.903-5.164 3.75-6.764 1.654-1.434 3.533-2.229 5.623-2.387zm71.3 0c0.262-0.02 0.5035 0 0.7715 0 2.446 0 4.327 0.8259 5.551 2.461 1.21 1.635 1.505 3.84 0.8809 6.615-0.482 2.165-1.179 3.914-2.131 5.184a10.04 10.04 0 0 1-3.602 3.012 9.976 9.976 0 0 1-4.447 1.066c-2.494 0-4.351-0.851-5.551-2.498-0.776-1.047-1.176-2.395-1.176-4.006 0-0.87 0.0961-1.795 0.3301-2.83 0.706-3.152 2.147-5.554 4.264-7.094 1.554-1.122 3.27-1.769 5.109-1.91zm31.46 0.3301h4.375s0.5408 10.47 0.5508 10.62c0.177-0.375 0.314-0.6894 0.332-0.7344l4.812-9.887h4.006s0.3691 10.34 0.3691 10.4c0.117-0.211 5.477-10.4 5.477-10.4h4.336l-9.557 17.64h-3.932s-0.3803-9.564-0.4043-10.11c-1.623 3.328-4.924 10.11-4.924 10.11h-4.043l-1.398-17.64zm-102.7 3.344c-1.013 0.043-1.933 0.4076-2.793 1.102-0.682 0.542-1.144 1.285-1.508 2.096h7.24c0.013-0.129 0.03711-0.2863 0.03711-0.4043 0-0.67-0.1191-1.189-0.3301-1.543-0.518-0.846-1.287-1.25-2.428-1.25-0.068 0-0.1518-3e-3 -0.2188 0zm19.15 0c-1.013 0.043-1.933 0.4076-2.793 1.102-0.682 0.542-1.131 1.285-1.508 2.096h7.24c0.01099-0.129 0.0371-0.2863 0.0371-0.4043 0-0.67-0.1071-1.189-0.3301-1.543a2.949 2.949 0 0 0-0.3691-0.4785c-0.491-0.508-1.167-0.7715-2.059-0.7715-0.068 0-0.1518-4e-3 -0.2188 0zm148.1 0c-1.042 0.032-2.015 0.3846-2.904 1.102-0.67 0.542-1.131 1.285-1.508 2.096h7.205c0.013-0.129 0.03711-0.2863 0.03711-0.4043 0-0.67-0.109-1.189-0.332-1.543-0.506-0.835-1.285-1.237-2.426-1.25h-0.07227zm-96.16 0.06445c-0.0456 9.8e-4 -0.0917 0.00477-0.1367 0.00977-0.972 0.116-1.877 0.5593-2.721 1.322-1.01 0.918-1.744 2.359-2.168 4.264-0.176 0.8-0.2559 1.484-0.2559 2.096 0 0.835 0.1586 1.49 0.4766 1.984 0.085 0.127 0.1969 0.2602 0.2949 0.3672 0.523 0.555 1.253 0.8457 2.168 0.8457 1.188 0 2.234-0.4433 3.234-1.361 1.011-0.929 1.733-2.384 2.168-4.336 0.4-1.788 0.3452-3.122-0.2188-3.969-0.542-0.823-1.333-1.213-2.426-1.213-0.1395 0-0.279-0.01247-0.416-0.00977zm66.28 6.441c-1 0.27-2.12 0.4973-3.602 0.6973-1.106 0.165-1.894 0.3396-2.352 0.5156-0.4 0.165-0.7231 0.3923-0.9941 0.6973a2.173 2.173 0 0 0-0.5137 0.957 2.584 2.584 0 0 0-0.03711 0.4043v0.03516c2e-3 0.028-3e-3 0.0843 0 0.1113 7e-3 0.05299 0.02211 0.1336 0.03711 0.1836 5e-3 0.016 0.03011 0.05626 0.03711 0.07226 0.012 0.032 0.0211 0.0813 0.0371 0.1113 0.016 0.03 0.05422 0.0814 0.07422 0.1094 0.03 0.043 0.0724 0.1084 0.1094 0.1484 0.294 0.33 0.8796 0.4766 1.727 0.4766 0.93 0 1.822-0.1769 2.646-0.5879a5.147 5.147 0 0 0 1.947-1.689c0.353-0.494 0.6348-1.254 0.8828-2.242zm-23.47 41.67c-2.858 0-5.468 1.857-5.621 4.633-0.142 2.799 1.716 5.951 4.268 5.951 2.988 0 5.647-2.469 5.811-6.703 0.142-2.87-1.716-3.881-4.457-3.881zm193.5 0-3.305 13.36c-1.2-0.494-2.763-0.4219-3.986-0.4219-11.27 0-19.24 9.644-19.77 20.09-0.353 7.362 3.574 10.49 8.631 10.49 3.54 0 7.268-1.563 10.09-5.609h0.1191l-0.6699 5.609h7.973c0.365-3.528 1.129-7.726 1.988-11.56l7.633-31.96h-8.703zm-396.7 1.176-9.881 42.34h8.773l3.941-16.47h14.25l1.834-7.057h-14.31l2.375-10.58h15.23l1.836-8.232h-24.05zm262.2 0-9.879 42.34h8.773l3.953-16.47h14.24l1.836-7.057h-14.31l2.375-10.58h15.23l1.834-8.232h-24.05zm161.2 11.76c-10.61 0-18.22 8.587-18.75 18.96-0.365 7.55 4.503 11.62 12.11 11.62 10.23 0 18.12-7.752 18.68-18.3 0.34-6.987-4.01-12.28-12.04-12.28zm-379.6 0.00196c-4.081 0-7.504 2.868-9.785 6.984h-0.2363c0.341-2.011 0.6364-3.915 0.8594-5.809h-7.562c-0.435 2.446-1.106 7.232-2.129 11.55l-4.305 17.85h8.832l2.635-11.05c1.388-5.986 4.316-11.29 9.855-11.29 0.494 0 0.9758 0.2467 1.34 0.3047l2.141-8.48c-0.494 0-1.034-0.05664-1.645-0.05664zm19.79 0c-10.77 0-17.83 9.502-18.29 18.65-0.4 7.985 3.74 11.92 12.28 11.92 3.28 0 7.631-0.3753 11.2-1.445l-0.2812-6.492c-2.435 1.189-5.21 0.8828-8.445 0.8828-2.552 0-4.527-0.4464-5.609-1.316-0.564-0.953-0.8-2.436-0.752-3.389 11.91 0.318 19.43-2.434 19.8-9.961 0.282-5.68-3.869-8.855-9.902-8.855zm31.19 0c-10.79 0-17.84 9.502-18.3 18.65-0.388 7.985 3.752 11.92 12.28 11.92 3.293 0 7.645-0.3753 11.21-1.445l-0.2949-6.492c-2.435 1.189-5.211 0.8828-8.434 0.8828-2.564 0-4.527-0.4464-5.609-1.316-0.564-0.953-0.8107-2.436-0.7637-3.389 11.92 0.318 19.43-2.434 19.82-9.961 0.282-5.68-3.869-8.855-9.902-8.855zm46.22 0c-14.61 0-21.85 10.82-22.36 20.96-0.317 6.362 3.127 9.619 8.49 9.619 3.47 0 7.386-1.681 10.43-6.738h0.1309c-0.236 2.435-0.5179 4.799-0.6699 6.74h8.043c0.07-3.729 0.9655-9.586 1.895-13.43l3.775-15.97c-2.4-0.811-6.14-1.176-9.738-1.176zm28.03 0c-7.68 0-13.3 4.056-13.62 10.22-0.188 3.81 2.552 6.375 5.869 8.115 2.68 1.376 3.599 2.435 3.529 3.928-0.083 1.506-1.425 1.26-3.859 1.26-2.858 0-6.021-0.3768-7.691-0.6348l-2.434 6.303c1.694 1.317 5.246 1.329 8.949 1.387 7.916 0.06 13.89-3.399 14.24-9.75 0.2-4.233-3.08-6.739-6.291-8.42-2.317-1.118-3.481-2.188-3.422-3.434 0.082-1.682 1.658-1.918 3.975-1.918 2.61 0 4.704 0.3177 5.904 0.5527l2.375-6.373c-1.353-0.812-4.058-1.234-7.527-1.234zm137 0c-4.081 0-7.501 2.868-9.783 6.984h-0.2363c0.34-2.011 0.6364-3.915 0.8594-5.809h-7.562c-0.423 2.446-1.105 7.232-2.129 11.55l-4.305 17.85h8.832l0.00195 0.00195 2.633-11.06c1.387-5.986 4.316-11.29 9.855-11.29 0.494 0 0.9768 0.2467 1.342 0.3047l2.139-8.48c-0.493 0-1.034-0.05664-1.646-0.05664zm19.79 0c-10.77 0-17.83 9.502-18.29 18.65-0.4 7.985 3.752 11.92 12.28 11.92 3.281 0 7.643-0.3753 11.2-1.445l-0.2812-6.492c-2.435 1.189-5.209 0.8828-8.443 0.8828-2.552 0-4.529-0.4464-5.611-1.316-0.565-0.953-0.799-2.436-0.752-3.389 11.91 0.318 19.43-2.434 19.8-9.961 0.283-5.68-3.869-8.855-9.902-8.855zm31.19 0c-10.78 0-17.84 9.502-18.3 18.65-0.388 7.985 3.752 11.92 12.28 11.92 3.293 0 7.645-0.3753 11.21-1.445l-0.2949-6.492c-2.435 1.189-5.211 0.8828-8.434 0.8828-2.563 0-4.527-0.4464-5.609-1.316-0.564-0.953-0.8107-2.436-0.7637-3.389 11.93 0.318 19.43-2.434 19.82-9.961 0.282-5.68-3.869-8.855-9.902-8.855zm104.9 0c-3.846 0-7.515 1.74-10.46 5.68h-0.1191l0.7891-4.504h-7.551c-0.495 2.517-1.094 5.563-2.012 9.115l-4.729 20.29h8.469l3.176-13.43c1.329-5.986 4.644-10.09 7.619-10.09 2.141 0 2.73 1.563 2.623 3.609-0.058 1.059-0.2931 2.246-0.5391 3.422l-3.93 16.49h8.467l3.176-13.49c1.458-6.175 4.587-10.03 7.504-10.03 2.011 0 2.846 1.435 2.752 3.482-0.059 1.188-0.3053 2.493-0.6113 3.68l-3.811 16.36h8.527l4.105-17.42c0.318-1.564 0.6812-3.997 0.7402-5.244 0.259-5.175-2.271-7.916-6.834-7.916-3.905 0-7.702 1.764-10.58 5.48-0.106-2.681-2.022-5.48-6.773-5.48zm-231.5 0.8105c-3.905 0-7.704 1.812-10.7 5.74h-0.1172l0.8008-5.375h-7.74a167.8 167.8 0 0 1-2.07 9.115l-4.797 20.29h8.773l3.105-13.24c1.611-6.738 5.08-9.102 7.938-9.102 2.258 0 2.917 0.9633 2.811 2.363a21.02 21.02 0 0 1-0.4707 3.375l-3.951 16.61h8.773l4.164-17.42c0.318-1.505 0.6692-3.75 0.7402-5.115 0.259-5.304-2.387-7.232-7.256-7.232zm-34.27 0.3652-7.162 29.4h8.762l7.115-29.4h-8.715zm-55.55 5.551-1.564 7.057c-1.717 7.48-5.221 9.738-7.832 9.738-2.435 0-3.493-1.73-3.352-4.246 0.282-5.68 4.774-12.22 10.44-12.22 0.917 0 1.634-0.1631 2.305-0.3281zm-78.42 0.3281c2.011 0 3.165 0.7658 3.094 1.801-0.141 2.799-3.599 2.963-10.41 2.904 0.74-2.458 3.233-4.705 7.314-4.705zm31.18 0c2.011 0 3.176 0.7658 3.105 1.801-0.141 2.799-3.599 2.963-10.42 2.904 0.753-2.458 3.233-4.705 7.314-4.705zm231 0c2.011 0 3.165 0.7658 3.094 1.801-0.14 2.799-3.598 2.963-10.41 2.904 0.741-2.458 3.233-4.705 7.314-4.705zm31.18 0c2.012 0 3.176 0.7658 3.105 1.801-0.142 2.799-3.6 2.963-10.42 2.904 0.752-2.458 3.233-4.705 7.314-4.705zm66.31 0c3.48 0 4.55 2.67 4.41 5.293-0.26 5.175-3.411 11.17-8.162 11.17-2.988 0-4.633-1.906-4.457-4.752 0.235-4.74 3.163-11.71 8.209-11.71zm-33.44 0.00196c1.47 0 2.728 0.2218 3.422 0.5508l-1.988 8.174c-1.375 5.798-4.622 7.74-7.186 7.74-2.552 0-3.975-1.775-3.799-4.939 0.294-5.857 4.318-11.53 9.551-11.53z" fill="#008033"/>
</svg>
