<svg id="Layer_1" xmlns="http://www.w3.org/2000/svg" width="80" height="80"><style>.st0{fill:#fff}</style><g id="XMLID_19_"><path id="XMLID_189_" class="st0" d="M35.2 35.6h15.3c.3 0 .5-.2.5-.5v-8.7c0-.3-.2-.5-.5-.5H35.2c-.3 0-.5.2-.5.5v8.7c0 .3.2.5.5.5zm.5-8.6H50v7.7H35.7V27z"/><path id="XMLID_926_" class="st0" d="M58.9 17.4H24.6c-.6 0-1 .4-1 1v7.1h-2.5c-.6 0-1 .4-1 1s.4 1 1 1h2.5v6.9h-2.5c-.6 0-1 .4-1 1s.4 1 1 1h2.5v6.9h-2.5c-.6 0-1 .4-1 1s.4 1 1 1h2.5v6.9h-2.5c-.6 0-1 .4-1 1s.4 1 1 1h2.5v7.3c0 .6.4 1 1 1h34.3c.6 0 1-.4 1-1V18.4c0-.5-.4-1-1-1zm-1 43.2H25.6v-6.3h2.5c.6 0 1-.4 1-1s-.4-1-1-1h-2.5v-6.9h2.5c.6 0 1-.4 1-1s-.4-1-1-1h-2.5v-6.9h2.5c.6 0 1-.4 1-1s-.4-1-1-1h-2.5v-6.9h2.5c.6 0 1-.4 1-1s-.4-1-1-1h-2.5v-6.1h32.3v41.1z"/></g></svg>