<svg id="Layer_1" xmlns="http://www.w3.org/2000/svg" width="80" height="80"><style>.st0{fill:#fff}</style><g id="XMLID_19_"><path id="XMLID_24_" class="st0" d="M39.4 51.1s.1 0 .1.1c0 0 .1 0 .1.1.1 0 .2.1.4.1.1 0 .2 0 .4-.1 0 0 .1 0 .1-.1 0 0 .1 0 .1-.1l14.1-10.2c.2-.2.4-.4.4-.7 0-.3 0-.5-.2-.7-.2-.3-.5-.4-.8-.4-.2 0-.4.1-.6.2l-12.5 9V19.1c0-.6-.4-1-1-1s-1 .4-1 1v29.2l-12.5-9.1c-.2-.1-.4-.2-.6-.2-.3 0-.6.2-.8.4-.2.2-.2.5-.2.7 0 .3.2.5.4.7l14.1 10.3z"/><path id="XMLID_38_" class="st0" d="M57.5 51c-.6 0-1 .4-1 1v7.8h-33V52c0-.6-.4-1-1-1s-1 .4-1 1v8.8c0 .6.4 1 1 1h35c.6 0 1-.4 1-1V52c0-.5-.5-1-1-1z"/></g></svg>