<svg id="Layer_1" xmlns="http://www.w3.org/2000/svg" width="80" height="80"><style>.st0{fill:#fff}</style><g id="XMLID_843_"><g id="XMLID_1_"><path id="XMLID_451_" class="st0" d="M60.8 40.2v20.5H19.2V30.9h8c.3 0 .5-.1.7-.3.6-.6.2-1.7-.7-1.7h-8v-9.7h19.7c.3 0 .5-.1.7-.3.6-.6.2-1.7-.7-1.7H18.2c-.6 0-1 .4-1 1v43.5c0 .6.4 1 1 1h43.5c.6 0 1-.4 1-1V40.2c0-.9-1.1-1.3-1.7-.7-.1.2-.2.5-.2.7z"/><circle id="XMLID_704_" class="st0" cx="32.1" cy="24.6" r="1.5"/><circle id="XMLID_931_" class="st0" cx="25.3" cy="24.6" r="1.5"/><path id="XMLID_133_" class="st0" d="M25.6 44.6l-.5 8.8c0 .3.1.6.3.8.2.2.4.3.7.3L35 54c.2 0 .5-.1.6-.3l26.2-26.2c.2-.2.3-.4.3-.7 0-.3-.1-.5-.3-.7l-8.3-8.3c-.2-.2-.4-.3-.7-.3s-.5.1-.7.3L25.9 44c-.1.1-.2.4-.3.6zm27.3-24.7l6.9 6.9-2.8 2.8-7-6.9 2.9-2.8zM27.6 45.1l21-21 6.9 6.9-21 21-3.3.2c0-1.1-.3-2-.9-2.7-.7-.7-1.6-1.1-2.7-1.1v-3.3z"/></g></g></svg>