<svg id="Layer_1" xmlns="http://www.w3.org/2000/svg" width="80" height="80"><style>.st0{fill:#2daae4}</style><g id="XMLID_131_"><path id="XMLID_178_" class="st0" d="M16.6 8.1s16-8.7 29.7 1.8l-7.7 26.3s-8.6-5.9-14.9-5.3S9 34.6 9 34.6l7.6-26.5z"/><path id="XMLID_177_" class="st0" d="M7.6 39.3s8.6-4 15.7-3.5 12.8 4.3 14 5.2l-7.7 26.6S21 62 14.9 62.5 3.5 63.9 0 65.8l7.6-26.5z"/><path id="XMLID_138_" class="st0" d="M41.4 43.6s8.2 5.3 13.5 5.2c5.3-.1 8.9-.5 16-3.3.1 0 .2-.1.2-.1-.2.1-7.7 26.3-7.7 26.3s-8.4 3.9-16.1 3.6c-7.6-.4-12.2-4.7-13.6-5.3l7.7-26.4z"/><path id="XMLID_136_" class="st0" d="M50.3 12.7l-7.7 26.2s6.2 6.1 15 5.6 13.5-3.3 14.7-3.7L80 14.4s-10.1 4.2-16.7 3.5c-6.6-.8-10.8-3.6-13-5.2z"/></g></svg>