<svg id="Layer_1" xmlns="http://www.w3.org/2000/svg" width="80" height="80"><style>.st0{fill:#fff}</style><g id="XMLID_24_"><path id="XMLID_488_" class="st0" d="M61.8 17.2H18.2c-.6 0-1 .4-1 1v43.5c0 .6.4 1 1 1h43.5c.6 0 1-.4 1-1V18.2c.1-.5-.4-1-.9-1zm-1 2v9.7H19.2v-9.7h41.6zM19.2 60.8V30.9h41.5v29.9H19.2z"/><circle id="XMLID_495_" class="st0" cx="25.3" cy="24.6" r="1.5"/><circle id="XMLID_496_" class="st0" cx="32.1" cy="24.6" r="1.5"/><path id="XMLID_497_" class="st0" d="M39 26.1c.8 0 1.5-.7 1.5-1.5s-.7-1.5-1.5-1.5-1.5.7-1.5 1.5.6 1.5 1.5 1.5z"/><path id="XMLID_498_" class="st0" d="M40 36.9H26.3c-.6 0-1 .4-1 1s.4 1 1 1H40c.6 0 1-.4 1-1 0-.5-.4-1-1-1z"/><path id="XMLID_718_" class="st0" d="M40 43.2H26.3c-.6 0-1 .4-1 1s.4 1 1 1H40c.6 0 1-.4 1-1s-.4-1-1-1z"/><path id="XMLID_722_" class="st0" d="M40 49.6H26.3c-.6 0-1 .4-1 1s.4 1 1 1H40c.6 0 1-.4 1-1s-.4-1-1-1z"/><path id="XMLID_927_" class="st0" d="M53.7 37.4H45c-.3 0-.5.2-.5.5v12.7c0 .3.2.5.5.5h8.7c.3 0 .5-.2.5-.5V37.9c0-.3-.3-.5-.5-.5zm-.5 12.7h-7.7V38.4h7.7v11.7z"/></g></svg>