<svg id="Layer_1" xmlns="http://www.w3.org/2000/svg" width="80" height="80"><style>.st0{fill:#fff}</style><g id="XMLID_201_"><path id="XMLID_204_" class="st0" d="M62.9 33.5c-.1 0-.2-.1-.4-.1-.4 0-.8.2-.9.6l-10 25H23.5c-2.8 0-5-2.2-5-5v-2.3c0-2.8 2.2-5 5-5h28.3c.1 0 .2 0 .4-.1h.1c.1 0 .2-.1.2-.1l.1-.1c.1-.1.1-.2.2-.3l10.7-25.6c0-.1.1-.2.1-.4V20c0-.1 0-.2-.1-.3 0-.1-.1-.2-.2-.2 0 0 0-.1-.1-.1-.1-.1-.2-.2-.3-.2-.1-.2-.2-.2-.4-.2H33.7c-2.7 0-5.1 1.5-6.3 3.9 0 .1-.1.2-.1.3L17.2 48.4v.1c-.5 1-.8 2-.8 3.2V54c0 3.9 3.1 7 7 7h28.4c.1 0 .2.1.4.1.4 0 .8-.2.9-.6L63.4 35c.1-.2.1-.5 0-.8 0-.4-.2-.6-.5-.7zM33.7 21H61l-9.9 23.6H23.5c-1 0-1.9.2-2.8.6l8.7-21.6c.8-1.6 2.5-2.6 4.3-2.6z"/><path id="XMLID_203_" class="st0" d="M50.4 49.9H23.2c-.6 0-1 .4-1 1s.4 1 1 1h27.3c.6 0 1-.4 1-1-.1-.5-.5-1-1.1-1z"/><path id="XMLID_202_" class="st0" d="M50.4 53.6H23.2c-.6 0-1 .4-1 1s.4 1 1 1h27.3c.6 0 1-.4 1-1-.1-.5-.5-1-1.1-1z"/></g></svg>