<svg id="Layer_1" xmlns="http://www.w3.org/2000/svg" width="80" height="80"><style>.st0{fill:#2daae4}</style><g id="XMLID_127_"><path id="XMLID_307_" class="st0" d="M41.1 1.5l2.4.6c3.2 1.1 5.7 3.1 7.1 6.2.9 2 1.3 4.1 1.4 6.3.1 1.9.1 3.8.3 5.7.4 2.9 1.4 5.6 3 8 1.9 3 4 5.8 5.8 8.8 1.3 2 2.3 4.2 3.3 6.4.7 1.7 1.2 3.5 1.6 5.3.5 1.9.2 3.8-.4 5.7-.2.5-1.5.9-1.9.5-1.2-1.2-2.6-1.4-4.2-1.5-.2 0-.4-.1-.6-.1 0 0-.1 0-.1-.1.3-1 .5-2 .8-3 .5-2.1.6-4.3-.1-6.4-.7-2.1-2.1-3.8-3.9-5.1-.1-.1-.2-.1-.3-.2 0 0-.1 0 0 0 .8 1 1.8 2 2.5 3.2 1.6 2.3 1.9 4.9 1.4 7.7-.2 1-.5 2-.8 3-.2.6-.6 1.1-1.3 1.3-.3.1-.6.3-.9.6 2.7-1 5.1-.7 7.4 1.1-1 1.5-1.8 3-3.6 3.7-.5.2-1.1.2-1.6.2-1.2-.1-1.8-.8-1.8-2.1v-1c-.1-.7-.3-1.2-1-1.5-.7-.3-.7-.7-.7-1.4 0-2.1 0-4.1-.1-6.2-.2-2.7-1.1-5.3-2.2-7.8l-3-7.2-2.4-5.4c-.3-.7-.3-1.3-.1-2 .2-.6.3-1.2.4-1.9.2-.9-.1-1.6-.8-2.2-.4-.3-.3-.5-.2-.9.4-1.2.7-2.3.4-3.6-.3-1.4-1-2.6-2-3.5-1.1-.9-3.3-.6-4.3.6-.8 1-1.3 2-1.2 3.3v.7h-3c0-.3-.1-.7-.1-1 0-1.3-.7-2.3-1.6-3.1-1.1-.9-2.6-.5-3.2.8-.6 1.5-.7 3.1-.3 4.6 0 .1 0 .2.1.2.4.9.4 1.7-.4 2.5-1.2 1.1-1.1 2.6-.1 3.9 1.2 1.6.8 3.3.2 4.9-.3.9-1 1.7-1.6 2.5-.2.4-.5.8-.6 1.3-.4 1.1-.2 1.8.7 2.4.4.3.8.5 1.3.8-.3.2-.6.4-.9.4-2 .6-3.2 2.1-4.2 3.8-1.3 2.4-2.3 5-2.7 7.7-.2 1.4-.2 2.8-.3 4.2v.6c-.7-.7-1.2-1.4-1.4-2.2-.7-2.7-.1-5.3 1-7.8.5-1.2 1.1-2.3 1.6-3.4.1-.2.2-.5.2-.8-1.3 1.9-2.4 4-3 6.2-.6 2.3-.7 4.6 0 6.8-.8-.1-1.5-.2-2.2-.1-.7.1-1.3.5-2.1.7-.4-1-.4-2.1 0-3.1 1.3-3.9 2.9-7.6 4.8-11.2 1.5-2.9 3.4-5.5 5.5-8 1.8-2.2 2.4-4.7 2.3-7.4-.2-4.3-.4-8.7-.4-13 0-2.2.8-4.3 2.3-6 1.4-1.5 3.1-2.2 5.1-2.7.8-.2 1.6-.3 2.4-.5.7.2 1.5.2 2.3.2zm10.1 26.1c.3-.2.5-.4.7-.6.2-.4.2-.9-.2-1.2-.7-.5-1.4-1-2.2-1.4-.4-.2-.6.1-.5.5.3.7.7 1.4 1.1 2 .2.3.7.5 1.1.7zM44.5 5.3c-.6 0-.9.3-.9 1 0 .5.1.9.2 1.4.5-.1 1-.2 1.5-.4.2-.1.4-.3.5-.6.2-.6-.6-1.4-1.3-1.4zm-8.6 8.1c-.1-.8-1-1.6-1.8-1.5.6.6 1.1 1 1.8 1.5zm10.7-.2c-.5-1.2-1.3-1.8-1.9-1.7.6.5 1.2 1.1 1.9 1.7z"/><path id="XMLID_306_" class="st0" d="M26.5 78.5c-3.8-1.1-7.5-2.3-11.3-3.4-1.7-.5-3.5-.9-5.2-1.3-.2 0-.4-.1-.6-.2-1.5-.6-2-1.4-1.8-3 .1-1 .3-2 .4-3 0-1.4-.1-2.7-.2-4.1 0-.2 0-.4-.1-.5-.1-1.6.2-2.1 1.7-2.6.9-.3 1.8-.5 2.7-.7 1.2-.3 2.1-.9 2.9-1.9.9-1.1 1.7-2.2 2.7-3.2.9-1 2.2-1 3.1 0 1.3 1.5 2.6 3.1 3.8 4.7 1.8 2.6 3.5 5.4 5.3 8l1.8 2.4c.7.9.9 1.9 1.1 3.1.2 1.7-.5 2.8-1.8 3.8-1 .7-1.8 1.6-3 1.9h-1.5z"/><path id="XMLID_305_" class="st0" d="M54.3 78.5c-.6-.1-1.2-.2-1.8-.4-1.2-.4-2-1.3-2.3-2.5-.5-1.8-.4-3.6 0-5.3.8-4 .9-8 1-12 0-.5.1-1 .1-1.5.1-.8.5-1.2 1.3-1.3.6-.1 1.3 0 2 0 .6 0 .8.4.8.9v.9c0 1.4.7 2.5 2.1 2.9 2.2.7 4-.1 5.5-1.7.5-.5.9-1.1 1.4-1.7.3-.4.7-.7 1.3-.6.5.1.9.5.9 1 .1.6.2 1.3.2 1.9 0 1.3.5 2.3 1.5 3.2 1.1 1 2.2 1.9 3.4 2.8 1.5 1.2 1.5 2.5 0 3.6-1.4 1-2.9 1.8-4.4 2.7-2.5 1.5-4.9 3.2-7.1 5.3-1.1 1-2.4 1.6-3.9 1.7-.1 0-.2.1-.3.1h-1.7z"/><path id="XMLID_298_" class="st0" d="M32.7 20.1c-.3-.5-.8-1.2-1-1.9-.2-.6-.1-1.2-.1-1.8.1-.6.5-1 1.1-1.1.6-.1 1.2.2 1.4.8.2.5.3 1 .4 1.5.1.4.1.7.1 1 1.1-.2 2.1-.4 3.1-.4s2 .4 3 .6c0-.6 0-1.4.1-2.1.2-1.4 1.8-2.1 2.9-1.2 1.1.9 1.6 3.5-.3 4.3-.1 0-.1.1-.3.2.5.2 1 .3 1.4.5.8.3 1.8.6 1.8 1.8 0 1.3-.2 2.6-1.5 3.3-1.6.9-3.1 1.8-4.7 2.6-1.5.8-3.2 1-4.8.4-.8-.3-1.4-.9-2.1-1.5-.9-.8-1.8-1.7-2.6-2.7-.6-.7-.5-1.7 0-2.4.9-.6 1.5-1.2 2.1-1.9zm12.7 2.3c0-.1-.1-.1-.1-.2-.4.2-.9.3-1.3.5-1.4.7-2.8 1.5-4.3 2.3-2.7 1.4-5.4 1.4-7.9-.8-.2-.2-.5-.3-.8-.5l-.2.2c.3.4.6.8.9 1.1 2.3 2 4.8 2 7.5 1.1 2.1-.7 3.9-2 5.7-3.1.2-.2.4-.4.5-.6zm-7.3-3.3c.3.5 1 .8 1.4.6-.2-.6-.4-.7-1.4-.6zm-4.5-1.9c.2-.9 0-1.2-.7-1.2.3.5.5.8.7 1.2zm9.6-1.3c-.1 0-.1.1-.2.1.2.3.5.7.8 1.1.2-.8.1-.9-.6-1.2zM36 19.2c-.5-.1-.9 0-1.1.5.5.1.9 0 1.1-.5z"/><path id="XMLID_297_" class="st0" d="M48.2 74.9c-2.4-.6-4.7-.6-7.1-.5l-7 .3-.3-4c5.9.7 11.1-.7 15.5-4.9-.4 3.2-.7 6.1-1.1 9.1z"/><path id="XMLID_296_" class="st0" d="M24 56.1c.3.2.6.4.8.7 2.2 1.8 4.3 3.6 6.5 5.5.8.7 1 1.6.8 2.7-.2.6-.6 1-1.3 1.1-.6.1-.8-.4-1-.8-1.9-3.1-3.9-6.1-5.8-9.2z"/></g></svg>