<svg xmlns="http://www.w3.org/2000/svg" width="188" height="188" id="svg32"><style id="style2"></style><g id="XMLID_127_"><circle id="XMLID_129_" cx="94" cy="94" r="94" fill="#fff" opacity=".1" fill-opacity=".959"/></g><g transform="matrix(.193 0 0 .193 2.73 91.568)" id="g28"><rect transform="matrix(0 -1 -1 0 0 0)" x="-259.157" y="-525.516" width="135.714" height="105" rx="20" ry="20" fill="#a0a0a0" stroke="#37474e" stroke-linecap="round" stroke-linejoin="round" stroke-width="13" id="rect10"/><path d="M168.016 223.157h610v66h-610z" fill="#a0a0a0" id="path12"/><path d="M168.016 223.157h610m0 66h-610" fill="none" stroke="#37474e" stroke-linejoin="round" stroke-width="13" id="path14"/><rect x="348.016" y="203.657" width="250" height="105" rx="20" ry="20" fill="#7b7b7b" stroke="#37474e" stroke-linecap="round" stroke-linejoin="round" stroke-width="13" id="rect16"/><path d="M386.508 232.19h173.016" fill="none" stroke="#fff" stroke-linecap="round" stroke-linejoin="round" stroke-width="20" id="path18"/><circle cx="473.016" cy="-65.968" r="223.976" fill="#fff" id="circle20"/><path d="M396.226-150.446c-46.644 0-99.853 37.834-99.853 84.478 0 46.644 53.21 84.477 99.853 84.477s84.478-37.836 84.478-84.48c0-46.644-37.834-84.478-84.478-84.478zm-9.588 153.58c-38.18 0-86.378-30.923-86.378-69.102 0-38.18 48.2-69.103 86.378-69.103 38.18 0 69.102 30.92 69.102 69.1 0 38.18-30.923 69.102-69.102 69.102zm28.764-184.244c-63.574 0-126.717 51.568-126.717 115.142S351.74 49.174 415.402 49.174 530.63-2.394 530.63-65.968 479.062-181.11 415.402-181.11zm-9.588 214.995c-55.11 0-113.242-44.658-113.242-99.853 0-55.196 58.133-99.853 113.242-99.853 55.11 0 99.853 44.74 99.853 99.85 0 55.11-44.744 99.853-99.853 99.853zm28.85-245.746c-80.59 0-153.58 65.3-153.58 145.89 0 80.59 72.99 145.892 153.58 145.892 80.59 0 145.806-65.302 145.806-145.892 0-80.59-65.302-145.892-145.806-145.892zM424.99 64.55c-72.126 0-140.105-58.48-140.105-130.518 0-72.04 68.065-130.517 140.105-130.517 72.04 0 130.603 58.39 130.603 130.517 0 72.125-58.478 130.517-130.603 130.517zm28.85-307.075c-97.52 0-180.444 79.036-180.444 176.557 0 97.52 82.923 176.556 180.444 176.556 97.52 0 176.557-79.035 176.557-176.556 0-97.52-79.036-176.557-176.557-176.557zM444.252 95.3c-89.056 0-166.97-72.213-166.97-161.268 0-89.056 77.914-161.268 166.97-161.268s161.18 72.212 161.18 161.268c0 89.055-72.124 161.267-161.18 161.267zm28.764-368.575c-114.45 0-207.307 92.856-207.307 207.307S358.562 141.34 473.013 141.34s207.31-92.858 207.31-207.31-92.857-207.307-207.308-207.307zm-9.588 399.24c-105.986 0-193.832-85.947-193.832-191.933 0-105.986 87.846-191.932 193.832-191.932S655.36-171.954 655.36-65.968c0 105.986-85.946 191.932-191.932 191.932z" fill="#2daae4" stroke-width=".864" id="path22"/><path d="M606.992-285.163l44.266 9.454 94.14 20.104 116.32 24.84-82.126 39.4c11.694 31.943 17.933 67.007 17.96 102.866-.1 122.464-71.47 225.87-166.84 241.727C700.4 116.01 745.44 32.05 745.487-60.723c-.042-104.07-56.504-195.57-138.496-224.44z" fill="#2daae4" id="path24"/><path d="M339.04 153.226l-44.266-9.453-94.14-20.102-116.32-24.836 82.126-39.4C154.746 27.49 148.506-7.574 148.48-43.433c.1-122.466 71.47-225.87 166.84-241.73-69.69 37.218-114.73 121.177-114.777 213.953.043 104.07 56.505 195.568 138.496 224.436z" fill="#d38a42" id="path26"/></g></svg>