<svg xmlns="http://www.w3.org/2000/svg" width="188" height="188" id="svg22"><style id="style2"></style><g id="XMLID_127_"><circle id="XMLID_129_" cx="94" cy="94" r="94" fill="#fff" opacity=".1"/><g stroke-width="2.294" id="g19"><path id="puddle" d="M140.958 150.298c0 8.952-20.735 16.21-46.31 16.21-25.58 0-46.315-7.258-46.315-16.21s20.735-16.21 46.315-16.21c25.575 0 46.31 7.26 46.31 16.21z" fill="#9cdaf1"/><g id="shadow-legs" fill="#7dbbe6"><path d="M82.06 165.902V154.35c0-1.493-.27-2.74-.72-3.795 2.988 2.32 3.19 8.15 3.19 8.15v7.414c2.688.21 5.465.335 8.307.374l-.075-7.377c-.412-10.084-9.055-11.32-9.055-11.32-3.16-.716-3.112.87-2.794 1.894-3.1-5.284-11.405-4.602-11.405-4.602-2.882 1.027-.207 2.88-.207 2.88 4.53 1.646 4.94 6.585 4.94 6.585v10.3c2.496.426 5.107.78 7.824 1.046zm36.428-20.814s-8.307-.682-11.406 4.604c.318-1.025.366-2.61-2.793-1.894 0 0-8.645 1.235-9.057 11.32l-.076 7.387c2.838-.01 5.614-.11 8.307-.292v-7.507s.203-5.83 3.19-8.15c-.45 1.053-.72 2.3-.72 3.792v11.674a112.66 112.66 0 0 0 7.82-.954v-10.513s.41-4.94 4.94-6.586c0-.006 2.672-1.86-.21-2.888z" id="path6"/></g><path id="cat" d="M176.378 83.11l.122-.607c-13.586-2.717-27.53-2.744-35.963-2.393 1.385-4.993 1.802-10.737 1.802-17.143 0-9.188-3.453-16.538-9.057-22.13.98-3.16 2.287-10.18-1.306-19.168 0 0-6.34-2.015-20.68 7.583-5.617-1.404-11.595-2.098-17.582-2.098-6.587 0-13.244.84-19.452 2.542-14.797-10.095-21.33-8.027-21.33-8.027-4.263 10.664-1.627 18.56-.826 20.52-5.012 5.41-8.07 12.314-8.07 20.78 0 6.39.726 12.123 2.503 17.106-8.505-.31-21.94-.19-35.04 2.43l.12.604c13.18-2.636 26.7-2.727 35.153-2.407.392 1.03.828 2.032 1.318 3-8.36.27-22.636 1.334-36.317 5.194l.168.593c13.79-3.888 28.19-4.927 36.47-5.18 4.997 9.31 14.846 15.325 32.367 17.214-2.487 1.67-5.024 4.512-6.052 9.32-3.39 1.62-14.117 5.576-20.553-5.494 0 0-3.602-6.588-10.5-7.103 0 0-6.688-.103-.46 4.168 0 0 4.476 2.11 7.564 10.036 0 0 4.03 13.52 23.472 9.185V135.6s-.41 4.94-4.94 6.585c0 0-2.676 1.852.207 2.88 0 0 12.553 1.03 12.553-9.26v-15.228s-.498-6.04 2.47-8.14v25.014s-.206 5.97-3.293 8.234c0 0-2.06 3.703 2.47 2.676 0 0 8.642-1.236 9.054-11.32l.195-25.313h2.077l.198 25.313c.41 10.084 9.054 11.32 9.054 11.32 4.527 1.026 2.47-2.677 2.47-2.677-3.088-2.264-3.293-8.232-3.293-8.232v-24.795c2.965 2.31 2.47 7.922 2.47 7.922v15.23c0 10.288 12.552 9.258 12.552 9.258 2.88-1.027.208-2.88.208-2.88-4.528-1.646-4.94-6.585-4.94-6.585v-19.963c0-7.784-3.278-11.907-6.483-14.083 18.686-1.853 27.653-7.886 31.785-17.26 8.185.224 22.914 1.22 37.003 5.196l.168-.593c-14.008-3.952-28.64-4.974-36.908-5.215a30.52 30.52 0 0 0 1.037-2.945c8.392-.348 22.4-.344 36.038 2.38z"/><path id="face" d="M124.064 62.535c4.025 3.647 6.38 8.05 6.38 12.794 0 22.147-16.513 22.75-36.88 22.75-20.37 0-36.878-3.07-36.878-22.75 0-4.715 2.32-9.09 6.296-12.72 6.63-6.054 17.85-2.85 30.583-2.85 12.674 0 23.857-3.24 30.497 2.77z" fill="#f4cbb2"/><path id="eyes" d="M81.298 76.456c0 6.1-3.435 11.046-7.673 11.046s-7.673-4.945-7.673-11.046c0-6.1 3.435-11.044 7.673-11.044 4.238.004 7.673 4.944 7.673 11.044zm41.17 0c0 6.1-3.435 11.046-7.673 11.046s-7.673-4.945-7.673-11.046c0-6.1 3.435-11.044 7.673-11.044 4.238.004 7.673 4.944 7.673 11.044z" fill="#fff"/><g fill="#ad5c51" transform="matrix(.436 0 0 .436 11.497 21.495)" id="g15"><path id="pupils" d="M154.46 126.38c0 9.328-5.26 16.887-11.734 16.887s-11.733-7.56-11.733-16.887c0-9.33 5.255-16.894 11.733-16.894 6.47 0 11.73 7.56 11.73 16.89zm94.42 0c0 9.328-5.26 16.887-11.734 16.887s-11.733-7.56-11.733-16.887c0-9.33 5.255-16.894 11.733-16.894 6.47 0 11.73 7.56 11.73 16.89z"/><circle id="nose" cx="188.5" cy="148.56" r="4.401"/><path id="mouth" d="M178.23 159.69a1.417 1.417 0 0 1 .86-1.805 1.417 1.417 0 0 1 1.806.86c1.134 3.2 4.167 5.347 7.55 5.347s6.418-2.147 7.552-5.346c.26-.738 1.067-1.12 1.805-.86s1.12 1.066.862 1.804c-1.53 4.324-5.64 7.23-10.218 7.23s-8.68-2.89-10.21-7.22z"/></g><path id="octo" d="M46.656 99.897c0 .51-.6.925-1.338.925-.738 0-1.34-.414-1.34-.925 0-.513.602-.928 1.34-.928.74 0 1.338.412 1.338.927zm3.706 2.057c0 .512-.6.926-1.338.926-.738 0-1.34-.414-1.34-.926s.602-.927 1.34-.927c.74 0 1.338.414 1.338.93zm2.265 2.677c0 .514-.6.928-1.34.928-.737 0-1.337-.414-1.337-.926 0-.51.6-.926 1.338-.926.74 0 1.34.414 1.34.93zm2.058 3.09c0 .51-.6.925-1.34.925-.737 0-1.337-.414-1.337-.926s.6-.928 1.338-.928c.74 0 1.34.415 1.34.93zm2.262 2.88c0 .513-.6.927-1.34.927-.737 0-1.338-.414-1.338-.926s.6-.926 1.337-.926c.74 0 1.34.414 1.34.93zm3.09 2.47c0 .51-.6.924-1.338.924-.74 0-1.34-.413-1.34-.925s.6-.928 1.34-.928c.737 0 1.337.415 1.337.93zm4.322 1.647c0 .512-.6.925-1.34.925-.74 0-1.34-.412-1.34-.924s.6-.927 1.34-.927c.74 0 1.34.414 1.34.928zm4.3 0c0 .512-.6.925-1.34.925-.736 0-1.336-.412-1.336-.924s.6-.927 1.338-.927c.74 0 1.34.414 1.34.928zm4.365-.715c0 .513-.6.926-1.338.926-.738 0-1.34-.413-1.34-.925 0-.51.602-.926 1.34-.926.738 0 1.338.414 1.338.928z" fill="#c3e4d8"/><path id="drop" d="M41.742 102.643l-1.337 4.658s-.35 1.686 1.238 1.984c1.657-.032 1.52-1.58 1.406-2.084z" fill="#9cdaf1"/></g></g></svg>