<svg xmlns="http://www.w3.org/2000/svg" xmlns:xlink="http://www.w3.org/1999/xlink" width="188" height="188" id="svg73"><style id="style2">.st1{clip-path:url(#XMLID_84_)}.st8{fill:#fff}.st9{fill:#868686}.st10{fill:#2daae4}.st16{fill:#b3b3b7}</style><g id="XMLID_24_"><circle id="XMLID_188_" cx="94" cy="94" r="94" fill="#fff" opacity=".1"/><g id="XMLID_131_"><defs id="defs6"><circle id="XMLID_193_" cx="94" cy="94" r="94"/></defs><clipPath id="XMLID_84_"><use overflow="visible" xlink:href="#XMLID_193_" id="use8"/></clipPath><g id="XMLID_945_" class="st1" clip-path="url(#XMLID_84_)"><g id="XMLID_195_"><g id="XMLID_196_"><path id="XMLID_197_" d="M110 144s2.4 20.5-5.2 24.8c-7.6 4.4-8.3 7.1-5.4 7.1h62.8c2.8 0 2.2-2.7-5.4-7.1s-5.2-24.8-5.2-24.8H110z" fill="#e0e1e3"/><path id="XMLID_198_" d="M110.2 152.9h41.1c.1-1.3.2-8.9.2-8.9H110s.1 7.6.2 8.9z" fill="#d0d4d7"/><path id="XMLID_971_" d="M167.3 177.7h-73c-1.9 0-3.5-1.6-3.5-3.5s1.6-3.5 3.5-3.5h73c1.9 0 3.5 1.6 3.5 3.5s-1.6 3.5-3.5 3.5z" fill="#c9cdd0"/></g><path id="XMLID_969_" d="M215.1 144.2H46.5c-1.1 0-2-.9-2-2V22.3c0-1.1.9-2 2-2h168.7c1.1 0 2 .9 2 2v119.9c-.1 1.1-1 2-2.1 2z" fill="#4e4f53"/><path id="XMLID_968_" d="M55.5 29.6h146.7v105.3H55.5z" fill="#6b777d"/><path id="XMLID_967_" d="M55.5 29.6h146.7V43H55.5z" fill="#d1d1d1"/><path id="XMLID_966_" class="st8" d="M73.8 42.8h110v92h-110z"/><g id="IMAGOTIPO_12_"><g id="XMLID_580_"><path id="XMLID_49_" class="st9" d="M91.1 107.1c3.7 0 5.6 2.8 5.6 5.7 0 2.8-1.9 5.6-5.6 5.6H87v-11.3h4.1zm0 9.6c2.6 0 3.9-2 3.9-4s-1.3-4-3.9-4h-2.4v8h2.4z"/><path id="XMLID_52_" class="st9" d="M99.3 116.7h5.3v1.6h-6.9V107h6.9v1.6h-5.2v3.2h5.1v1.7h-5.1v3.2z"/><path id="XMLID_54_" class="st9" d="M111.6 110c-.2-1-1.3-1.5-2.3-1.4-.8 0-1.6.3-2.1.9-.2.3-.3.7-.3 1.1.1 1.2 1.4 1.3 2.6 1.4 1.6.2 3.5.6 3.9 2.4 0 .2.1.5.1.7 0 2.2-2.2 3.4-4.2 3.4-1.7 0-3.9-1-4.1-3.1v-.3h1.6v.2-.1c.1 1.1 1.4 1.6 2.4 1.6 1.2 0 2.5-.7 2.5-1.8v-.4c-.2-.9-1.4-1-2.5-1.1-1.8-.2-3.8-.6-4-2.9-.1-.8.1-1.5.6-2.2.8-1 2.1-1.5 3.4-1.5 1.7 0 3.6.9 3.8 3l-1.4.1z"/><path id="XMLID_56_" class="st9" d="M115.9 108.7c1-1 2.4-1.7 3.9-1.7 2.6 0 4.6 1.6 5.3 4.2h-1.6c-.6-1.7-2-2.6-3.7-2.6-1.1 0-2.1.5-2.8 1.2-.7.7-1.2 1.7-1.2 2.9 0 1.1.5 2.1 1.2 2.9.7.7 1.7 1.2 2.8 1.2 1.7 0 3.2-1 3.8-2.7h1.6c-.6 2.6-2.7 4.3-5.4 4.3-1.5 0-2.9-.6-3.9-1.7-1-1-1.6-2.5-1.6-4 0-1.6.7-3 1.6-4z"/><path id="XMLID_58_" class="st9" d="M132.4 115h-4.1c-.4 1-1 2.4-1.4 3.3h-1.8l4.5-11.5h1.2l4.5 11.5h-1.7l-1.2-3.3zm-3.4-1.5h2.8l-1.4-4-1.4 4z"/><path id="XMLID_61_" class="st9" d="M138.1 112.6h1.9c1.4 0 2.1-1 2.1-2s-.7-2-2.1-2h-2.5v9.7h-1.6V107h4.1c2.5 0 3.7 1.8 3.7 3.6 0 1.6-1 3.1-2.9 3.5l3.6 4.3h-2.1l-4.1-5v-.8z"/><path id="XMLID_63_" class="st9" d="M147.4 118.4v-9.7H144V107h8.5v1.7H149v9.7h-1.6z"/><path id="XMLID_65_" class="st9" d="M154.9 116.7h5.3v1.6h-6.9V107h6.9v1.6H155v3.2h5.1v1.7H155v3.2z"/><path id="XMLID_67_" class="st9" d="M167.3 110c-.2-1-1.3-1.5-2.3-1.4-.8 0-1.6.3-2.1.9-.2.3-.3.7-.3 1.1.1 1.2 1.4 1.3 2.6 1.4 1.6.2 3.5.6 3.9 2.4 0 .2.1.5.1.7 0 2.2-2.2 3.4-4.2 3.4-1.7 0-3.9-1-4.1-3.1v-.3h1.6v.2-.1c.1 1.1 1.4 1.6 2.4 1.6 1.2 0 2.5-.7 2.5-1.8v-.4c-.2-.9-1.4-1-2.5-1.1-1.8-.2-3.8-.6-4-2.9-.1-.8.1-1.5.6-2.2.8-1 2.1-1.5 3.4-1.5 1.7 0 3.6.9 3.8 3l-1.4.1z"/></g><g id="SIMBOLO_12_"><path id="XMLID_577_" class="st10" d="M128.8 47.9c-15.1 0-27.3 12.2-27.3 27.3s12.2 27.3 27.3 27.3 27.3-12.2 27.3-27.3-12.2-27.3-27.3-27.3zm-1.2 52.6c-14 0-25.5-11.3-25.5-25.3s11.6-25.3 25.5-25.3 25.3 11.3 25.3 25.3-11.4 25.3-25.3 25.3z"/><path id="XMLID_574_" class="st10" d="M126.3 51.9c-12.8 0-23.8 10.4-23.8 23.3s10.9 23.3 23.8 23.3 23.3-10.4 23.3-23.3-10.4-23.3-23.3-23.3zM125 96.4c-11.7 0-22-9.5-22-21.2S113.3 54 125 54s21.2 9.5 21.2 21.2-9.4 21.2-21.2 21.2z"/><path id="XMLID_571_" class="st10" d="M123.8 55.9c-10.6 0-20.2 8.6-20.2 19.2s9.6 19.2 20.2 19.2S143 85.8 143 75.2s-8.6-19.3-19.2-19.3zm-1.3 36.5c-9.5 0-18.5-7.7-18.5-17.2S113 58 122.5 58s17.2 7.7 17.2 17.2-7.7 17.2-17.2 17.2z"/><path id="XMLID_568_" class="st10" d="M121.3 60c-8.4 0-16.7 6.8-16.7 15.2s8.3 15.2 16.7 15.2 15.2-6.8 15.2-15.2S129.6 60 121.3 60zM120 88.3c-7.3 0-14.9-5.9-14.9-13.1S112.7 62 120 62s13.1 5.9 13.1 13.1-5.8 13.2-13.1 13.2z"/><path id="XMLID_565_" class="st10" d="M118.7 64c-6.1 0-13.1 5-13.1 11.1s7 11.1 13.1 11.1 11.1-5 11.1-11.1S124.9 64 118.7 64zm-1.2 20.3c-5 0-11.4-4.1-11.4-9.1s6.4-9.1 11.4-9.1 9.1 4.1 9.1 9.1-4.1 9.1-9.1 9.1z"/></g><path id="XMLID_200_" d="M86.8 125.5h81.7" fill="#2daae4" stroke="#2daae4" stroke-width="3" stroke-miterlimit="10"/></g><circle id="XMLID_199_" cx="130.8" cy="139.4" r="2" fill="#6d6e72"/><circle id="XMLID_201_" cx="130.8" cy="24.7" r=".8" fill="#4a4b4f"/></g></g><g id="XMLID_194_" class="st1" clip-path="url(#XMLID_84_)"><g id="XMLID_202_"><path id="XMLID_203_" d="M190.1 177.6h-83.3c-1.1 0-2-.9-2-2V126c0-1.1.9-2 2-2h83.3c1.1 0 2 .9 2 2v49.7c0 1-.9 1.9-2 1.9z" fill="#717275"/><path id="XMLID_204_" d="M114 129h63.6v43.6H114z" fill="#5b5b5f"/><g id="XMLID_205_"><path id="XMLID_942_" class="st8" d="M113.9 133.1h63.4v39.4h-63.4z"/><path id="XMLID_941_" class="st16" d="M113.9 129h63.4v4.1h-63.4z"/><path id="XMLID_940_" class="st16" d="M113.9 130.9h63.4v2.2h-63.4z"/><path id="XMLID_206_" d="M117.3 129.3c.3 0 .5.2.5.5" fill="#83e2ac"/><g id="XMLID_207_"><g id="IMAGOTIPO_11_"><g id="XMLID_564_"><path id="XMLID_29_" class="st9" d="M129.2 161.3c1.7 0 2.5 1.3 2.5 2.5s-.8 2.5-2.5 2.5h-1.8v-5.1h1.8zm0 4.3c1.2 0 1.8-.9 1.8-1.8s-.6-1.8-1.8-1.8h-1.1v3.6h1.1z"/><path id="XMLID_32_" class="st9" d="M132.9 165.6h2.4v.7h-3.1v-5.1h3.1v.7H133v1.4h2.3v.7H133v1.6z"/><path id="XMLID_34_" class="st9" d="M138.4 162.6c-.1-.5-.6-.7-1-.6-.3 0-.7.1-.9.4-.1.1-.1.3-.1.5 0 .5.6.6 1.1.6.7.1 1.6.3 1.8 1.1v.3c0 1-1 1.5-1.9 1.5-.8 0-1.7-.5-1.8-1.4v-.1h.7v.1c.1.5.6.7 1.1.7.5 0 1.1-.3 1.1-.8v-.2c-.1-.4-.6-.4-1.1-.5-.8-.1-1.7-.3-1.8-1.3 0-.3.1-.7.3-1 .3-.4.9-.7 1.5-.7.8 0 1.6.4 1.7 1.3l-.7.1z"/><path id="XMLID_36_" class="st9" d="M140.3 162c.4-.5 1.1-.8 1.8-.8 1.2 0 2.1.7 2.4 1.9h-.7c-.3-.8-.9-1.1-1.6-1.1-.5 0-.9.2-1.2.5-.3.3-.5.8-.5 1.3s.2 1 .5 1.3c.3.3.8.5 1.2.5.8 0 1.4-.4 1.7-1.2h.7c-.3 1.1-1.2 1.9-2.4 1.9-.7 0-1.3-.3-1.8-.8-.4-.5-.7-1.1-.7-1.8-.1-.6.2-1.2.6-1.7z"/><path id="XMLID_38_" class="st9" d="M147.7 164.9h-1.8c-.2.5-.4 1.1-.6 1.5h-.8l2-5.1h.5l2 5.1h-.8l-.5-1.5zm-1.5-.7h1.3l-.6-1.8-.7 1.8z"/><path id="XMLID_41_" class="st9" d="M150.2 163.8h.9c.6 0 .9-.4.9-.9 0-.4-.3-.9-.9-.9H150v4.3h-.7v-5.1h1.8c1.1 0 1.6.8 1.6 1.6 0 .7-.4 1.4-1.3 1.5l1.6 1.9h-.9l-1.8-2.2v-.2z"/><path id="XMLID_43_" class="st9" d="M154.4 166.4V162h-1.5v-.7h3.8v.7h-1.5v4.3h-.8z"/><path id="XMLID_45_" class="st9" d="M157.8 165.6h2.4v.7H157v-5.1h3.1v.7h-2.3v1.4h2.3v.7h-2.3v1.6z"/><path id="XMLID_47_" class="st9" d="M163.3 162.6c-.1-.5-.6-.7-1-.6-.3 0-.7.1-.9.4-.1.1-.1.3-.1.5 0 .5.6.6 1.1.6.7.1 1.6.3 1.8 1.1v.3c0 1-1 1.5-1.9 1.5-.8 0-1.7-.5-1.8-1.4v-.1h.7v.1c.1.5.6.7 1.1.7.5 0 1.1-.3 1.1-.8v-.2c-.1-.4-.6-.4-1.1-.5-.8-.1-1.7-.3-1.8-1.3 0-.3.1-.7.3-1 .3-.4.9-.7 1.5-.7.8 0 1.6.4 1.7 1.3l-.7.1z"/></g><g id="SIMBOLO_11_"><path id="XMLID_561_" class="st10" d="M146.1 134.8c-6.7 0-12.2 5.5-12.2 12.2s5.5 12.2 12.2 12.2 12.2-5.5 12.2-12.2-5.5-12.2-12.2-12.2zm-.6 23.6c-6.2 0-11.4-5.1-11.4-11.3s5.2-11.3 11.4-11.3 11.3 5.1 11.3 11.3-5 11.3-11.3 11.3z"/><path id="XMLID_558_" class="st10" d="M145 136.7c-5.7 0-10.6 4.7-10.6 10.4s4.9 10.4 10.6 10.4 10.4-4.7 10.4-10.4c0-5.8-4.7-10.4-10.4-10.4zm-.6 19.9c-5.2 0-9.8-4.3-9.8-9.5s4.6-9.5 9.8-9.5 9.5 4.3 9.5 9.5-4.3 9.5-9.5 9.5z"/><path id="XMLID_555_" class="st10" d="M143.8 138.5c-4.7 0-9 3.8-9 8.6s4.3 8.6 9 8.6 8.6-3.8 8.6-8.6-3.8-8.6-8.6-8.6zm-.5 16.2c-4.2 0-8.3-3.4-8.3-7.7 0-4.2 4-7.7 8.3-7.7 4.2 0 7.7 3.4 7.7 7.7s-3.5 7.7-7.7 7.7z"/><path id="XMLID_552_" class="st10" d="M142.7 140.3c-3.7 0-7.5 3-7.5 6.8 0 3.7 3.7 6.8 7.5 6.8s6.8-3 6.8-6.8-3-6.8-6.8-6.8zm-.6 12.6c-3.2 0-6.7-2.6-6.7-5.9 0-3.2 3.4-5.9 6.7-5.9s5.9 2.6 5.9 5.9-2.6 5.9-5.9 5.9z"/><path id="XMLID_549_" class="st10" d="M141.6 142.1c-2.7 0-5.9 2.2-5.9 5 0 2.7 3.1 5 5.9 5 2.7 0 5-2.2 5-5s-2.3-5-5-5zm-.6 9c-2.2 0-5.1-1.8-5.1-4.1 0-2.2 2.8-4.1 5.1-4.1 2.2 0 4.1 1.8 4.1 4.1s-1.8 4.1-4.1 4.1z"/></g><path id="XMLID_209_" d="M127.3 169.5h36.5" fill="#2daae4" stroke="#2daae4" stroke-width="2" stroke-linecap="round" stroke-miterlimit="10"/></g></g></g></g><circle id="XMLID_208_" cx="184.6" cy="152.3" r="4.5" fill="#8d8e91"/><path id="XMLID_210_" d="M110.3 152.9c0 .4-.3.7-.7.7-.4 0-.7-.3-.7-.7v-4.8c0-.4.3-.7.7-.7.4 0 .7.3.7.7v4.8z" fill="#727176"/></g></g></g></svg>