<svg id="Layer_1" xmlns="http://www.w3.org/2000/svg" xmlns:xlink="http://www.w3.org/1999/xlink" width="98" height="217"><style>.st3{fill:#868686}.st4{fill:#343434}.st5{fill-rule:evenodd;clip-rule:evenodd;fill:#b6b6b6}.st6{fill:#90a4ad}.st8{fill:#eceff1}.st11{fill:#cfd8dc}.st13{fill:#d1effb}.st14{fill:#fff}.st15{fill:#657074}.st16{fill:#6e797f}.st20,.st21{fill:none;stroke:#000;stroke-width:.5;stroke-miterlimit:10}.st21{stroke-dasharray:1.8961,1.8961}</style><g id="XMLID_1_"><defs><path id="XMLID_2_" d="M0 0h98v217.1H0z"/></defs><clipPath id="XMLID_41_"><use xlink:href="#XMLID_2_" overflow="visible"/></clipPath><g id="XMLID_394_" clip-path="url(#XMLID_41_)"><g id="XMLID_398_"><g id="XMLID_399_"><path id="XMLID_400_" d="M19.7 14.7h180.5v187.7H19.7z" fill="#b3b1b2"/><path id="XMLID_401_" d="M19.7 14.7h180.5v187.7H19.7z" fill="#f9f9f9"/></g><g id="XMLID_402_"><g id="XMLID_403_"><path id="XMLID_1065_" class="st3" d="M30.9 21.6c-3.3 0-6 2.7-6 6s2.7 6 6 6 6-2.7 6-6-2.6-6-6-6z"/></g><path id="XMLID_1061_" class="st4" d="M30.2 26.7c0 1.8-1.1 3.2-2.5 3.2h-5.5v-1.7h5.5c.4 0 .8-.7.8-1.5 0-.9-.4-1.5-.8-1.5h-5.5v-1.7h5.5c1.4 0 2.5 1.4 2.5 3.2zm-8 3.2h-5.5c-1.4 0-2.5-1.4-2.5-3.2 0-1.8 1.1-3.2 2.5-3.2h5.5v1.7h-5.5c-.4 0-.8.6-.8 1.5s.4 1.5.8 1.5h5.5v1.7z"/></g><g id="XMLID_404_"><g id="XMLID_406_"><path id="XMLID_1059_" class="st3" d="M30.9 44.2c-3.3 0-6 2.7-6 6s2.7 6 6 6 6-2.7 6-6-2.6-6-6-6z"/></g><path id="XMLID_1038_" class="st4" d="M30.2 49.3c0 1.8-1.1 3.2-2.5 3.2h-5.5v-1.7h5.5c.4 0 .8-.7.8-1.5 0-.9-.4-1.5-.8-1.5h-5.5v-1.7h5.5c1.4 0 2.5 1.4 2.5 3.2zm-8 3.2h-5.5c-1.4 0-2.5-1.4-2.5-3.2 0-1.8 1.1-3.2 2.5-3.2h5.5v1.7h-5.5c-.4 0-.8.6-.8 1.5s.4 1.5.8 1.5h5.5v1.7z"/></g><g id="XMLID_407_"><g id="XMLID_408_"><path id="XMLID_1036_" class="st3" d="M30.9 66.8c-3.3 0-6 2.7-6 6s2.7 6 6 6 6-2.7 6-6c0-3.4-2.6-6-6-6z"/></g><path id="XMLID_1032_" class="st4" d="M30.2 71.9c0 1.8-1.1 3.2-2.5 3.2h-5.5v-1.7h5.5c.4 0 .8-.6.8-1.5s-.4-1.5-.8-1.5h-5.5v-1.7h5.5c1.4 0 2.5 1.4 2.5 3.2zm-8 3.2h-5.5c-1.4 0-2.5-1.4-2.5-3.2 0-1.8 1.1-3.2 2.5-3.2h5.5v1.7h-5.5c-.4 0-.8.7-.8 1.5 0 .9.4 1.5.8 1.5h5.5v1.7z"/></g><g id="XMLID_409_"><g id="XMLID_411_"><path id="XMLID_1030_" class="st3" d="M30.9 89.3c-3.3 0-6 2.7-6 6s2.7 6 6 6 6-2.7 6-6-2.6-6-6-6z"/></g><path id="XMLID_1026_" class="st4" d="M30.2 94.4c0 1.8-1.1 3.2-2.5 3.2h-5.5V96h5.5c.4 0 .8-.6.8-1.5s-.4-1.5-.8-1.5h-5.5v-1.7h5.5c1.4 0 2.5 1.4 2.5 3.1zm-8 3.2h-5.5c-1.4 0-2.5-1.4-2.5-3.2 0-1.8 1.1-3.2 2.5-3.2h5.5v1.7h-5.5c-.4 0-.8.7-.8 1.5 0 .9.4 1.5.8 1.5h5.5v1.7z"/></g><g id="XMLID_415_"><g id="XMLID_421_"><path id="XMLID_1024_" class="st3" d="M30.9 111.9c-3.3 0-6 2.7-6 6s2.7 6 6 6 6-2.7 6-6-2.6-6-6-6z"/></g><path id="XMLID_1017_" class="st4" d="M30.2 117c0 1.8-1.1 3.2-2.5 3.2h-5.5v-1.7h5.5c.4 0 .8-.7.8-1.5 0-.9-.4-1.5-.8-1.5h-5.5v-1.7h5.5c1.4 0 2.5 1.4 2.5 3.2zm-8 3.2h-5.5c-1.4 0-2.5-1.4-2.5-3.2 0-1.8 1.1-3.2 2.5-3.2h5.5v1.7h-5.5c-.4 0-.8.7-.8 1.5 0 .9.4 1.5.8 1.5h5.5v1.7z"/></g><g id="XMLID_422_"><g id="XMLID_423_"><path id="XMLID_1014_" class="st3" d="M30.9 134.5c-3.3 0-6 2.7-6 6s2.7 6 6 6 6-2.7 6-6-2.6-6-6-6z"/></g><path id="XMLID_1010_" class="st4" d="M30.2 139.6c0 1.8-1.1 3.2-2.5 3.2h-5.5v-1.7h5.5c.4 0 .8-.6.8-1.5s-.4-1.5-.8-1.5h-5.5v-1.7h5.5c1.4 0 2.5 1.4 2.5 3.2zm-8 3.2h-5.5c-1.4 0-2.5-1.4-2.5-3.2 0-1.8 1.1-3.2 2.5-3.2h5.5v1.7h-5.5c-.4 0-.8.6-.8 1.5s.4 1.5.8 1.5h5.5v1.7z"/></g><g id="XMLID_424_"><g id="XMLID_425_"><path id="XMLID_1008_" class="st3" d="M30.9 157.1c-3.3 0-6 2.7-6 6s2.7 6 6 6 6-2.7 6-6-2.6-6-6-6z"/></g><path id="XMLID_1004_" class="st4" d="M30.2 162.2c0 1.8-1.1 3.2-2.5 3.2h-5.5v-1.7h5.5c.4 0 .8-.7.8-1.5 0-.9-.4-1.5-.8-1.5h-5.5V159h5.5c1.4 0 2.5 1.4 2.5 3.2zm-8 3.2h-5.5c-1.4 0-2.5-1.4-2.5-3.2 0-1.8 1.1-3.2 2.5-3.2h5.5v1.7h-5.5c-.4 0-.8.7-.8 1.5 0 .9.4 1.5.8 1.5h5.5v1.7z"/></g><g id="XMLID_426_"><g id="XMLID_427_"><path id="XMLID_1002_" class="st3" d="M30.9 179.7c-3.3 0-6 2.7-6 6s2.7 6 6 6 6-2.7 6-6c0-3.4-2.6-6-6-6z"/></g><path id="XMLID_998_" class="st4" d="M30.2 184.8c0 1.8-1.1 3.2-2.5 3.2h-5.5v-1.7h5.5c.4 0 .8-.6.8-1.5s-.4-1.5-.8-1.5h-5.5v-1.7h5.5c1.4 0 2.5 1.4 2.5 3.2zm-8 3.2h-5.5c-1.4 0-2.5-1.4-2.5-3.2 0-1.8 1.1-3.2 2.5-3.2h5.5v1.7h-5.5c-.4 0-.8.6-.8 1.5s.4 1.5.8 1.5h5.5v1.7z"/></g></g><g id="XMLID_428_"><g id="XMLID_429_"><path id="XMLID_430_" class="st5" d="M73.8 35.3H155v4H73.8z"/><g id="XMLID_431_"><path id="XMLID_432_" class="st5" d="M46.2 50h136.5v4H46.2z"/><path id="XMLID_433_" class="st5" d="M46.2 57.1h136.5v4H46.2z"/><path id="XMLID_434_" class="st5" d="M46.2 64.2h136.5v4H46.2z"/><path id="XMLID_435_" class="st5" d="M46.2 71.2h136.5v4H46.2z"/><path id="XMLID_436_" class="st5" d="M46.2 78.3h61.9v4H46.2z"/></g></g><g id="XMLID_437_"><path id="XMLID_987_" class="st6" d="M47 89.9h134.5v97.5H47z"/><path id="XMLID_986_" d="M47 179.5h134.1v7.8H47z" fill="#b0b8be"/><g id="XMLID_438_"><path id="XMLID_985_" class="st8" d="M97.9 180.3h17.2v6.2H97.9z"/><path id="XMLID_984_" class="st8" d="M117.5 180.3h17.2v6.2h-17.2z"/></g><path id="XMLID_982_" d="M47 89.9h134.1v5H47z" fill="#e4e4e4"/><path id="XMLID_981_" d="M47 94.9h134.1v7H47z" fill="#37474e"/><path id="XMLID_980_" class="st8" d="M134.3 94.9h-23.5c-.6 0-1 .4-1 1v5c0 .6.4 1 1 1h23.5c.6 0 1-.4 1-1v-5c0-.5-.4-1-1-1z"/><path id="XMLID_979_" class="st11" d="M47 101.9h41.5v77.5H47z"/><path id="XMLID_978_" class="st8" d="M48.2 103h39.1v6.4H48.2z"/><path id="XMLID_977_" d="M48.2 116.7h39.1v6.4H48.2z" fill="#055896"/><path id="XMLID_976_" class="st13" d="M48.2 123h39.1v6.4H48.2z"/><path id="XMLID_975_" class="st14" d="M48.2 129.3h39.1v48.6H48.2z"/><path id="XMLID_974_" class="st8" d="M48.2 110.1h7.7v6.4h-7.7z"/><path id="XMLID_973_" class="st8" d="M56 110.1h7.7v6.4H56z"/><path id="XMLID_972_" class="st8" d="M63.8 110.1h7.7v6.4h-7.7z"/><path id="XMLID_971_" class="st8" d="M71.7 110.1h7.7v6.4h-7.7z"/><path id="XMLID_970_" class="st8" d="M79.5 110.1h7.7v6.4h-7.7z"/><g id="XMLID_447_"><path id="XMLID_969_" class="st6" d="M88.8 101.9h91.9v77.5H88.8z"/><path id="XMLID_968_" class="st11" d="M90 103h88.7v7.7H90z"/><path id="XMLID_967_" class="st14" d="M100.7 104.5h76.5v4.8h-76.5z"/><path id="XMLID_966_" class="st15" d="M92.5 105.5h5.7v3.8h-5.7z"/><path id="XMLID_965_" class="st11" d="M90 170.5h88.7v7.7H90z"/><path id="XMLID_964_" class="st14" d="M100.7 172h76.5v4.8h-76.5z"/><path id="XMLID_963_" class="st15" d="M92.5 173h5.7v3.8h-5.7z"/><path id="XMLID_962_" class="st11" d="M90 130.5h88.7V169H90z"/><path id="XMLID_961_" class="st14" d="M100.7 131.9h76.5v34.8h-76.5z"/><path id="XMLID_960_" class="st15" d="M92.5 147.1h5.7v3.8h-5.7z"/><path id="XMLID_959_" class="st11" d="M90 121.2h88.7v7.7H90z"/><path id="XMLID_958_" class="st14" d="M100.7 122.6h69.6v4.8h-69.6z"/><path id="XMLID_957_" class="st14" d="M172.1 122.6h4.4v4.8h-4.4z"/><path id="XMLID_956_" class="st15" d="M92.5 123.6h5.7v3.8h-5.7z"/><path id="XMLID_955_" class="st11" d="M90 112.2h46.5v7.7H90z"/><path id="XMLID_954_" class="st14" d="M100.7 113.7H135v4.8h-34.3z"/><path id="XMLID_953_" class="st15" d="M92.5 114.7h5.7v3.8h-5.7z"/><path id="XMLID_952_" class="st11" d="M138.3 112.2h40.3v7.7h-40.3z"/><path id="XMLID_951_" class="st14" d="M149 113.7h28.1v4.8H149z"/><path id="XMLID_950_" class="st15" d="M140.8 114.7h5.7v3.8h-5.7z"/></g><path id="XMLID_948_" class="st16" d="M48.8 96.6h20.9v2.7H48.8z"/><path id="XMLID_947_" class="st16" d="M73.8 96.6h12.7v2.7H73.8z"/><path id="XMLID_946_" class="st16" d="M91 96.6h14.5v2.7H91z"/><path id="XMLID_945_" class="st16" d="M115.5 96.6h14.3v2.7h-14.3z"/><path id="XMLID_944_" class="st16" d="M141.2 96.6h12v2.7h-12z"/><circle id="XMLID_450_" cx="50.1" cy="92.5" r="1.4" fill="#ff5f5d"/><circle id="XMLID_453_" cx="54" cy="92.5" r="1.4" fill="#e6be85"/><circle id="XMLID_454_" cx="57.8" cy="92.5" r="1.4" fill="#21cc58"/><g id="XMLID_455_"><path id="XMLID_24_" d="M98.4 109.3v1H98v-1h-1v-.4h1v-1h.4v1h1v.4h-1z"/></g><g id="XMLID_456_"><path id="XMLID_12_" d="M97 109.3v-.4h2v.4h-2z"/></g><g id="XMLID_457_"><path id="XMLID_10_" d="M99.2 106.5c-.2 0-.3-.1-.5-.2l-.5-.4.1.5v.4c0 .2-.1.4-.2.4-.2 0-.3-.1-.3-.4v-.3l.2-.6-.4.4c-.2.2-.3.2-.5.3-.1 0-.2-.1-.2-.2 0-.2.4-.4 1.1-.6l-.4-.1-.3-.1c-.3-.1-.4-.2-.4-.4 0-.1.1-.2.2-.2.2 0 .3.1.5.3l.4.5-.1-.5-.1-.5c0-.2.1-.3.3-.4.2 0 .2.1.2.4v.4l-.1.3c0 .1 0 .2-.1.3.3-.4.7-.7 1-.7.1 0 .2.1.2.2s-.1.2-.4.4l-.7.2c.2 0 .3.1.4.1.1 0 .2.1.3.1.3.1.4.2.5.4h-.2z"/></g><path id="XMLID_937_" d="M82.1 114l1.3-2.2 1.2 2.2z"/><path id="XMLID_936_" d="M76.8 111.8l-1.3 2.2-1.2-2.2z"/><g id="XMLID_458_"><path id="XMLID_7_" class="st13" d="M99.8 109.7h-.7l-.3-.7h-1.3l-.3.7h-.7l1.3-3.3h.7l1.3 3.3zm-1.2-1.3l-.5-1.2-.4 1.2h.9z"/></g><g id="XMLID_459_"><path id="XMLID_4_" d="M99.8 109.7h-.7l-.3-.7h-1.3l-.3.7h-.7l1.3-3.3h.7l1.3 3.3zm-1.2-1.3l-.5-1.2-.4 1.2h.9z"/></g><g id="XMLID_465_"><g id="XMLID_20_"><path id="XMLID_23_" class="st20" d="M86.6 123.1h-1"/><path id="XMLID_22_" class="st21" d="M83.7 123.1H50.5"/><path id="XMLID_21_" class="st20" d="M49.5 123.1h-1"/></g></g><g id="XMLID_471_"><g id="XMLID_14_"><path id="XMLID_17_" class="st20" d="M86.6 129.2h-1"/><path id="XMLID_16_" class="st21" d="M83.7 129.2H50.5"/><path id="XMLID_15_" class="st20" d="M49.5 129.2h-1"/></g></g><path id="XMLID_496_" class="st13" d="M54 119.5h13.1v2.1H54z"/><path id="XMLID_495_" class="st16" d="M54 125.9h13.1v2.1H54z"/></g></g></g></g></svg>