<svg xmlns="http://www.w3.org/2000/svg" xmlns:xlink="http://www.w3.org/1999/xlink" width="188" height="188" id="svg24"><style id="style2">.st1{clip-path:url(#XMLID_18_)}.st6{fill:#fca84c}.st7{fill:#d38a42}</style><g id="XMLID_127_"><circle id="XMLID_129_" cx="94" cy="94" r="94" fill="#fff" opacity=".1"/><g id="XMLID_136_"><defs id="defs6"><circle id="XMLID_180_" cx="94" cy="94" r="94"/></defs><clipPath id="XMLID_18_"><use overflow="visible" xlink:href="#XMLID_180_" id="use8"/></clipPath><g id="XMLID_137_" class="st1" clip-path="url(#XMLID_18_)"><path id="XMLID_138_" d="M27.5 84.8v36.7c0 1 1.1 1.8 2.5 1.8h15.9c1.9 2.5 4.1 4.8 6.6 7v23.6c0 1.4.8 2.5 1.8 2.5h21.5c1 0 1.8-1.1 1.8-2.5v-10.2c6.5 1.8 13.4 2.8 20.7 2.8 7.8 0 15.3-1.1 22.2-3.2V154c0 1.4.8 2.5 1.8 2.5h21.5c1 0 1.8-1.1 1.8-2.5v-24.9c7.2-6.9 12-15.4 13.3-24.7.4 0 .7.1 1.1.1 1 .1 2 0 3.1-.2 2.2-.5 4.2-1.7 5.6-3.2 2.5.2 5.5-.6 8.9-3l4.7-3.3c.8-.5 1-1.6.4-2.4-.5-.8-1.6-1-2.4-.4l-4.7 3.3c-2 1.4-3.7 2.1-5.1 2.3.6-2.4.4-5.2-.5-7.7-.8-2.1-2-3.5-3.5-3.9-.9-.3-2.4-.3-4 1.1-2.7 2.2-2.8 6.8-.2 10.3.7 1 1.6 1.8 2.7 2.5-.7.5-1.6.8-2.5 1-1 .2-2 .1-3.1 0v-1.8c0-26.2-27.3-47.4-61.1-47.4-9.9 0-19.2 1.8-27.5 5.1L45 42.1c-.2-.1-.3-.1-.5 0-.1.1-.2.3-.2.5L48.1 72c-3 3.4-5.5 7.1-7.3 11H30c-1.4 0-2.5.8-2.5 1.8zM165 95.1c-1.4-1.9-1.6-4.5-.3-5.5.4-.3.7-.5.9-.5h.1c.3.1.8.7 1.3 1.8.7 2 .8 4.2.3 6-1.2-.5-2-1.3-2.3-1.8z" fill="#2daae4"/><path id="XMLID_176_" d="M55.7 86.5c0 5.5 4.5 10 10 10s10-4.5 10-10-4.5-10-10-10-10 4.5-10 10z" fill="#fff"/><path id="XMLID_178_" d="M84.6 62c4.5-.5 9-.8 13.7-.8 4.7 0 9.3.3 13.7.8v3.5c-4.5-.5-9-.8-13.7-.8-4.7 0-9.3.3-13.7.8V62z" fill="#02355a"/><circle id="XMLID_179_" cx="62.9" cy="86.5" r="4.9" fill="#37474e"/></g><g id="XMLID_181_" class="st1" clip-path="url(#XMLID_18_)"><path id="XMLID_714_" class="st6" d="M112.4 37c5 12.7-6.9 24.6-19.6 19.6-3.5-1.4-6.2-4.1-7.6-7.6-5-12.7 6.9-24.6 19.6-19.6 3.4 1.4 6.2 4.1 7.6 7.6z"/><path id="XMLID_190_" class="st7" d="M110.7 37.7c4.4 11.1-6.1 21.6-17.2 17.2-3-1.2-5.5-3.6-6.7-6.7C82.4 37.1 92.9 26.6 104 31c3.1 1.3 5.5 3.7 6.7 6.7z"/><path id="XMLID_189_" class="st6" d="M109.9 38.2c4.1 10.3-5.6 20-15.9 15.9-2.8-1.1-5.1-3.4-6.3-6.3-4.1-10.3 5.6-20 15.9-15.9 2.9 1.1 5.2 3.4 6.3 6.3z"/><g id="XMLID_182_"><path id="XMLID_183_" class="st7" d="M100.3 50.6v1h-3v-1c-1.6-.4-2.3-1.3-2.3-2.6v-3.5h3V48c0 .3.2.5.6.5.4 0 .6-.2.6-.5v-1.8c0-.4-.1-.8-.4-1.2-.3-.4-1.2-1.3-2.7-2.8-.7-.8-1.1-1.6-1.1-2.3v-1.7c0-1.6.8-2.5 2.3-2.8v-1h3v1c1.3.3 2 1.2 2 2.5v2.6h-3v-2.8c0-.3-.2-.5-.5-.5-.4 0-.6.3-.6.9l.1 1c0 .6.4 1.2 1.1 2 1.5 1.5 2.4 2.5 2.7 3 .3.5.5 1 .5 1.6v1.9c0 1.8-.8 2.7-2.3 3z"/></g></g></g></g></svg>