<svg xmlns="http://www.w3.org/2000/svg" xmlns:xlink="http://www.w3.org/1999/xlink" width="188" height="188" id="svg88"><style id="style2">.st2{fill:#90a4ad}.st4{fill:#eceff1}.st7{fill:#cfd8dc}.st9{fill:#d1effb}.st10{fill:#fff}.st11{fill:#657074}.st12{fill:#6e797f}.st16,.st17{fill:none;stroke:#000;stroke-width:.5;stroke-miterlimit:10}.st17{stroke-dasharray:2.0068,2.0068}</style><g id="XMLID_15_"><circle id="XMLID_16_" cx="94" cy="94" r="94" fill="#fff" opacity=".1"/><g id="XMLID_34_"><defs id="defs6"><circle id="XMLID_37_" cx="94" cy="94" r="94"/></defs><clipPath id="XMLID_50_"><use overflow="visible" xlink:href="#XMLID_37_" id="use8"/></clipPath><g id="XMLID_38_" clip-path="url(#XMLID_50_)"><path id="XMLID_987_" class="st2" d="M35.7 28.7h257.7v128.8H35.7z"/><path id="XMLID_986_" d="M35.7 147.2h257.2v10.4H35.7z" fill="#b0b8be"/><g id="XMLID_42_"><path id="XMLID_985_" class="st4" d="M152.9 148.3h22.7v8.2h-22.7z"/><path id="XMLID_984_" class="st4" d="M127 148.3h22.7v8.2H127z"/><path id="XMLID_983_" class="st4" d="M178.8 148.3h22.7v8.2h-22.7z"/></g><path id="XMLID_981_" d="M35.7 28.7h257.2v6.6H35.7z" fill="#e4e4e4"/><path id="XMLID_980_" d="M35.7 35.4h257.2v9.2H35.7z" fill="#37474e"/><path id="XMLID_979_" class="st4" d="M186.4 35.4h-31.7c-.6 0-1 .4-1 1v7.2c0 .6.4 1 1 1h31.7c.6 0 1-.4 1-1v-7.2c0-.6-.4-1-1-1z"/><path id="XMLID_978_" class="st7" d="M35.7 44.6H108V147H35.7z"/><path id="XMLID_977_" class="st4" d="M37.7 46.1h68.2v8.4H37.7z"/><path id="XMLID_976_" d="M37.7 64.2h68.2v8.4H37.7z" fill="#055896"/><path id="XMLID_975_" class="st9" d="M37.7 72.5h68.2v8.4H37.7z"/><path id="XMLID_974_" class="st10" d="M37.7 80.8h68.2v64.3H37.7z"/><path id="XMLID_973_" class="st4" d="M37.7 55.4h13.4v8.4H37.7z"/><path id="XMLID_972_" class="st4" d="M51.4 55.4h13.4v8.4H51.4z"/><path id="XMLID_971_" class="st4" d="M65.1 55.4h13.4v8.4H65.1z"/><path id="XMLID_970_" class="st4" d="M78.7 55.4h13.4v8.4H78.7z"/><path id="XMLID_969_" class="st4" d="M92.4 55.4h13.4v8.4H92.4z"/><path id="XMLID_968_" class="st2" d="M108 44.6h185.4V147H108z"/><path id="XMLID_967_" class="st7" d="M109.5 46.1h181.2v10.2H109.5z"/><path id="XMLID_966_" class="st10" d="M123.7 48h165.1v6.3H123.7z"/><path id="XMLID_965_" class="st11" d="M112.8 49.3h7.5v5h-7.5z"/><path id="XMLID_964_" class="st7" d="M109.5 135.3h181.2v10.2H109.5z"/><path id="XMLID_963_" class="st10" d="M123.7 137.3h165.1v6.3H123.7z"/><path id="XMLID_962_" class="st11" d="M112.8 138.6h7.5v5h-7.5z"/><path id="XMLID_961_" class="st7" d="M109.5 82.3h181.2v50.9H109.5z"/><path id="XMLID_960_" class="st10" d="M123.7 84.3h165.1v45.9H123.7z"/><path id="XMLID_959_" class="st11" d="M112.8 104.4h7.5v5h-7.5z"/><path id="XMLID_958_" class="st7" d="M109.5 70.1h181.2v10.2H109.5z"/><path id="XMLID_957_" class="st10" d="M123.7 72h156v6.3h-156z"/><path id="XMLID_956_" class="st10" d="M282 72h5.9v6.3H282z"/><path id="XMLID_955_" class="st11" d="M112.8 73.3h7.5v5h-7.5z"/><path id="XMLID_954_" class="st7" d="M109.5 58.2H201v10.2h-91.5z"/><path id="XMLID_953_" class="st10" d="M123.7 60.2H199v6.3h-75.3z"/><path id="XMLID_952_" class="st11" d="M112.8 61.5h7.5v5h-7.5z"/><path id="XMLID_951_" class="st7" d="M203.4 58.2h87.3v10.2h-87.3z"/><path id="XMLID_950_" class="st10" d="M217.6 60.2h71.2v6.3h-71.2z"/><path id="XMLID_949_" class="st11" d="M206.7 61.5h7.5v5h-7.5z"/><path id="XMLID_948_" class="st12" d="M43.1 37.6h27.6v3.6H43.1z"/><path id="XMLID_947_" class="st12" d="M76.1 37.6h16.8v3.6H76.1z"/><path id="XMLID_946_" class="st12" d="M98.8 37.6h19.1v3.6H98.8z"/><path id="XMLID_945_" class="st12" d="M121.7 37.6H146v3.6h-24.3z"/><path id="XMLID_944_" class="st12" d="M161.2 37.6h18.9v3.6h-18.9z"/><path id="XMLID_943_" class="st12" d="M195.2 37.6H211v3.6h-15.8z"/><circle id="XMLID_43_" cx="39.8" cy="32.2" r="1.8" fill="#ff5f5d"/><circle id="XMLID_44_" cx="44.9" cy="32.2" r="1.8" fill="#e6be85"/><circle id="XMLID_48_" cx="50" cy="32.2" r="1.8" fill="#21cc58"/><g id="XMLID_53_"><path id="XMLID_26_" d="M44.7 60v1.3h-.6V60h-1.3v-.5h1.3v-1.3h.6v1.3H46v.5h-1.3z"/></g><g id="XMLID_54_"><path id="XMLID_24_" d="M70.2 59.9v-.5h2.7v.5h-2.7z"/></g><g id="XMLID_56_"><path id="XMLID_8_" d="M59.4 60.3c-.2 0-.4-.1-.7-.3l-.6-.6.2.7.1.6c0 .3-.1.5-.3.5-.2 0-.4-.1-.4-.5v-.4l.2-.8-.6.6c-.2.2-.4.3-.7.4-.2 0-.3-.1-.3-.3 0-.3.5-.5 1.5-.8l-.5-.1-.3-.3c-.4-.2-.6-.3-.6-.5s.1-.3.3-.3c.2 0 .5.1.7.4l.6.6-.2-.6-.1-.6c0-.3.1-.4.3-.5.2 0 .3.2.3.5l-.1.5-.1.4c0 .1 0 .2-.1.3.4-.5.9-.9 1.3-1 .2 0 .3.1.3.3 0 .1-.2.3-.6.5l-.9.3c.2 0 .4.1.5.1.1 0 .3.1.3.1.4.1.6.3.6.6.2.1.1.2-.1.2z"/></g><path id="XMLID_936_" d="M83.8 60.5l1.6-2.9 1.7 2.9z"/><path id="XMLID_935_" d="M100.8 57.6l-1.7 2.9-1.7-2.9z"/><g id="XMLID_60_"><path id="XMLID_5_" class="st9" d="M43.5 71.1h-.9l-.4-1h-1.7l-.4 1h-.9l1.7-4.3h.9l1.7 4.3zm-1.6-1.7l-.6-1.6-.6 1.6h1.2z"/></g><g id="XMLID_62_"><path id="XMLID_2_" d="M43.5 79.4h-.9l-.4-1h-1.7l-.4 1h-.9l1.7-4.3h.9l1.7 4.3zm-1.6-1.7l-.6-1.6-.6 1.6h1.2z"/></g><g id="XMLID_91_"><path id="XMLID_23_" class="st10" d="M105.9 72.6H37.7"/><g id="XMLID_19_"><path id="XMLID_22_" class="st16" d="M105.9 72.6h-1"/><path id="XMLID_21_" class="st17" d="M102.9 72.6H39.7"/><path id="XMLID_20_" class="st16" d="M38.7 72.6h-1"/></g></g><g id="XMLID_109_"><path id="XMLID_17_" class="st10" d="M105.9 80.7H37.7"/><g id="XMLID_11_"><path id="XMLID_14_" class="st16" d="M105.9 80.7h-1"/><path id="XMLID_13_" class="st17" d="M102.9 80.7H39.7"/><path id="XMLID_12_" class="st16" d="M38.7 80.7h-1"/></g></g><path id="XMLID_147_" class="st9" d="M45 67.8h17.3v2.8H45z"/><path id="XMLID_146_" class="st12" d="M45 76.3h17.3v2.8H45z"/></g></g></g></svg>