<svg id="Layer_1" xmlns="http://www.w3.org/2000/svg" width="408" height="120"><style>.st0{fill:#fff}</style><g id="XMLID_437_"><path id="XMLID_48_" class="st0" d="M148.5 90v-8c0-.7-.2-1.3-.7-1.9-.5-.5-1.1-.8-2-.8-1.8 0-2.7.9-2.7 2.6v8h-1.2v-8c0-.8-.3-1.4-.8-1.9s-1.2-.8-1.9-.8c-.8 0-1.4.2-1.9.7-.5.5-.8 1.1-.8 1.9v8h-1.2V78.4h1.2v1.2c.6-.9 1.5-1.3 2.7-1.3 1.5 0 2.6.6 3.3 1.8.7-1.2 1.8-1.8 3.3-1.8 1.2 0 2.1.3 2.8 1 .7.7 1.1 1.6 1.1 2.8v8h-1.2z"/><path id="XMLID_50_" class="st0" d="M163.7 90v-2c-1.2 1.5-2.8 2.2-4.6 2.2-1.7 0-3.1-.6-4.2-1.7-1.2-1.2-1.7-2.6-1.7-4.3s.6-3.1 1.7-4.2c1.2-1.2 2.6-1.7 4.3-1.7 1.9 0 3.4.7 4.6 2.2v-2h1.2V90h-1.3zm-1.2-9.2c-1-1-2.1-1.4-3.4-1.4-1.4 0-2.5.5-3.4 1.4-1 1-1.4 2.1-1.4 3.5 0 1.3.5 2.5 1.4 3.4 1 1 2.1 1.4 3.4 1.4 1.4 0 2.5-.5 3.4-1.4 1-1 1.4-2.1 1.4-3.5 0-1.3-.5-2.5-1.4-3.4z"/><path id="XMLID_53_" class="st0" d="M170.6 79.5V90h-1.2V79.5h-1.6v-1.2h1.6v-5.1h1.2v5.1h2.7v1.2h-2.7z"/><path id="XMLID_55_" class="st0" d="M176.6 84c0 1.6.4 2.8 1.3 3.7.9.9 2.1 1.4 3.6 1.4.8 0 1.5-.1 2.1-.4.8-.3 1.5-1 2.2-2.1l1 .5c-.7 1.4-1.9 2.3-3.4 2.8-.6.2-1.2.3-2 .3-1.7 0-3.2-.6-4.3-1.7-1.1-1.1-1.7-2.6-1.7-4.3 0-1.7.6-3.2 1.7-4.3 1.1-1.1 2.6-1.7 4.3-1.7 1.7 0 3.1.5 4.3 1.6 1.1 1.1 1.7 2.5 1.7 4.2h-10.8zm8-3.7c-.9-.6-1.9-1-3-1-2.4 0-4 1.2-4.7 3.5h9.4c-.3-1-.8-1.9-1.7-2.5z"/><path id="XMLID_58_" class="st0" d="M204 90v-8c0-.7-.2-1.3-.7-1.9-.5-.5-1.1-.8-2-.8-1.8 0-2.7.9-2.7 2.6v8h-1.2v-8c0-.8-.3-1.4-.8-1.9s-1.2-.8-1.9-.8c-.8 0-1.4.2-1.9.7-.5.5-.8 1.1-.8 1.9v8h-1.2V78.4h1.2v1.2c.6-.9 1.5-1.3 2.7-1.3 1.5 0 2.6.6 3.3 1.8.7-1.2 1.8-1.8 3.3-1.8 1.2 0 2.1.3 2.8 1 .7.7 1.1 1.6 1.1 2.8v8H204z"/><path id="XMLID_60_" class="st0" d="M219.2 90v-2c-1.2 1.5-2.8 2.2-4.6 2.2-1.7 0-3.1-.6-4.2-1.7-1.2-1.2-1.7-2.6-1.7-4.3s.6-3.1 1.7-4.2c1.2-1.2 2.6-1.7 4.3-1.7 1.9 0 3.4.7 4.6 2.2v-2h1.2V90h-1.3zm-1.2-9.2c-1-1-2.1-1.4-3.4-1.4-1.4 0-2.5.5-3.4 1.4-1 1-1.4 2.1-1.4 3.5 0 1.3.5 2.5 1.4 3.4 1 1 2.1 1.4 3.4 1.4 1.4 0 2.5-.5 3.4-1.4 1-1 1.4-2.1 1.4-3.5 0-1.3-.5-2.5-1.4-3.4zm-3.7-4l-.7-.6 3.8-3.8.6.7-3.7 3.7z"/><path id="XMLID_64_" class="st0" d="M226.1 79.5V90h-1.2V79.5h-1.6v-1.2h1.6v-5.1h1.2v5.1h2.7v1.2h-2.7z"/><path id="XMLID_66_" class="st0" d="M232.7 76.3c-.2 0-.4-.1-.6-.3-.2-.2-.3-.4-.3-.7 0-.5.3-.8.9-.9.5 0 .8.3.9.9 0 .7-.3 1-.9 1zm-.6 13.7V78.4h1.2V90h-1.2z"/><path id="XMLID_69_" class="st0" d="M243.1 90.2c-1.7 0-3.2-.6-4.3-1.7-1.1-1.1-1.7-2.6-1.7-4.3 0-1.7.6-3.2 1.7-4.3 1.1-1.1 2.6-1.7 4.3-1.7 1.5 0 2.7.3 3.5 1v1.4l-.7-.5-.8-.4c-.7-.2-1.4-.4-2-.4-1.4 0-2.6.5-3.5 1.4-.9.9-1.4 2.1-1.4 3.5s.5 2.6 1.4 3.5c.9.9 2.1 1.4 3.5 1.4 1.3 0 2.5-.5 3.5-1.4v1.4c-1 .8-2.2 1.1-3.5 1.1z"/><path id="XMLID_71_" class="st0" d="M258.5 90v-2c-1.2 1.5-2.8 2.2-4.6 2.2-1.7 0-3.1-.6-4.2-1.7-1.2-1.2-1.7-2.6-1.7-4.3s.6-3.1 1.7-4.2c1.2-1.2 2.6-1.7 4.3-1.7 1.9 0 3.4.7 4.6 2.2v-2h1.2V90h-1.3zm-1.2-9.2c-1-1-2.1-1.4-3.4-1.4-1.4 0-2.5.5-3.4 1.4-1 1-1.4 2.1-1.4 3.5 0 1.3.5 2.5 1.4 3.4 1 1 2.1 1.4 3.4 1.4 1.4 0 2.5-.5 3.4-1.4 1-1 1.4-2.1 1.4-3.5.1-1.3-.4-2.5-1.4-3.4z"/><path id="XMLID_74_" class="st0" d="M269.4 89.3c-.8.6-1.6 1-2.7 1-1.8 0-3.1-.8-4.1-2.4l1-.6c.3.6.7 1 1.2 1.4.5.4 1.1.5 1.9.5 1.8 0 2.6-.7 2.6-2.3 0-.7-.3-1.2-.9-1.7-.2-.1-.5-.2-.8-.4-.3-.1-.8-.3-1.3-.5-.9-.3-1.6-.7-2-1-.6-.5-.9-1.2-.9-2.1 0-.8.3-1.5.9-2 .6-.6 1.3-.9 2.3-.9 1.3 0 2.4.4 3.3 1.3l-.8.7c-.6-.6-1.5-1-2.4-1-1.3 0-2 .6-2 1.8 0 .5.2 1 .6 1.3.3.3.9.5 1.6.8.6.2 1.2.4 1.6.6.4.2.7.4.9.5.8.6 1.2 1.5 1.2 2.5-.1 1-.5 1.9-1.2 2.5z"/><path id="XMLID_76_" class="st0" d="M282.1 76.3c-.2 0-.4-.1-.6-.3-.2-.2-.3-.4-.3-.7 0-.5.3-.8.9-.9.5 0 .8.3.9.9 0 .7-.3 1-.9 1zm-.6 13.7V78.4h1.2V90h-1.2z"/><path id="XMLID_79_" class="st0" d="M293.5 90v-6.9c0-2.5-1.1-3.7-3.3-3.7-1.1 0-1.9.3-2.5 1-.6.6-.9 1.5-.9 2.6v7h-1.2V78.4h1.2v1.4c.5-1 1.6-1.5 3.3-1.5 1.4 0 2.5.4 3.3 1.2s1.2 2 1.2 3.5v7h-1.1z"/><path id="XMLID_81_" class="st0" d="M300.7 79.5V90h-1.2V79.5h-1.6v-1.2h1.6v-5.1h1.2v5.1h2.7v1.2h-2.7z"/><path id="XMLID_83_" class="st0" d="M306.7 84c0 1.6.4 2.8 1.3 3.7.9.9 2.1 1.4 3.6 1.4.8 0 1.5-.1 2.1-.4.8-.3 1.5-1 2.2-2.1l1 .5c-.7 1.4-1.9 2.3-3.4 2.8-.6.2-1.2.3-2 .3-1.7 0-3.2-.6-4.3-1.7-1.1-1.1-1.7-2.6-1.7-4.3 0-1.7.6-3.2 1.7-4.3 1.1-1.1 2.6-1.7 4.3-1.7 1.7 0 3.1.5 4.3 1.6 1.1 1.1 1.7 2.5 1.7 4.2h-10.8zm8-3.7c-.9-.6-1.9-1-3-1-2.4 0-4 1.2-4.7 3.5h9.4c-.3-1-.8-1.9-1.7-2.5z"/><path id="XMLID_86_" class="st0" d="M326.3 80.1c-.3-.2-.6-.4-1-.5-.3-.1-.7-.2-1.1-.2-.3 0-.6.1-.9.3s-.5.4-.7.7c-.2.3-.4.6-.5 1-.1.4-.2.7-.2 1V90h-1.2V78.4h1.2V80c.2-.4.6-.8 1-1.2.4-.4.8-.5 1.3-.5.6 0 1.1.1 1.4.2.4.1.8.4 1.3.7l-.6.9z"/><path id="XMLID_88_" class="st0" d="M339.3 90v-2c-1.2 1.5-2.8 2.2-4.6 2.2-1.7 0-3.1-.6-4.2-1.7-1.2-1.2-1.7-2.6-1.7-4.3s.6-3.1 1.7-4.2c1.2-1.2 2.6-1.7 4.3-1.7 1.9 0 3.4.7 4.6 2.2v-2h1.2V90h-1.3zm-1.2-9.2c-1-1-2.1-1.4-3.4-1.4-1.4 0-2.5.5-3.4 1.4-1 1-1.4 2.1-1.4 3.5 0 1.3.5 2.5 1.4 3.4 1 1 2.1 1.4 3.4 1.4 1.4 0 2.5-.5 3.4-1.4 1-1 1.4-2.1 1.4-3.5.1-1.3-.4-2.5-1.4-3.4z"/><path id="XMLID_91_" class="st0" d="M350 90.2c-1.7 0-3.2-.6-4.3-1.7-1.1-1.1-1.7-2.6-1.7-4.3 0-1.7.6-3.2 1.7-4.3 1.1-1.1 2.6-1.7 4.3-1.7 1.5 0 2.7.3 3.5 1v1.4l-.7-.5-.8-.4c-.7-.2-1.4-.4-2-.4-1.4 0-2.6.5-3.5 1.4-.9.9-1.4 2.1-1.4 3.5s.5 2.6 1.4 3.5c.9.9 2.1 1.4 3.5 1.4 1.3 0 2.5-.5 3.5-1.4v1.4c-1 .8-2.2 1.1-3.5 1.1z"/><path id="XMLID_93_" class="st0" d="M359.1 79.5V90H358V79.5h-1.6v-1.2h1.6v-5.1h1.2v5.1h2.7v1.2h-2.8z"/><path id="XMLID_95_" class="st0" d="M365.7 76.3c-.2 0-.4-.1-.6-.3-.2-.2-.3-.4-.3-.7 0-.5.3-.8.9-.9.5 0 .8.3.9.9.1.7-.2 1-.9 1zm-.5 13.7V78.4h1.2V90h-1.2z"/><path id="XMLID_98_" class="st0" d="M375.1 90.5l-5.5-12.1h1.2l4.2 9.3 4.2-9.3h1.3l-5.4 12.1z"/><path id="XMLID_100_" class="st0" d="M393.3 90v-2c-1.2 1.5-2.8 2.2-4.6 2.2-1.7 0-3.1-.6-4.2-1.7-1.2-1.2-1.7-2.6-1.7-4.3s.6-3.1 1.7-4.2c1.2-1.2 2.6-1.7 4.3-1.7 1.9 0 3.4.7 4.6 2.2v-2h1.2V90h-1.3zm-1.3-9.2c-1-1-2.1-1.4-3.4-1.4-1.4 0-2.5.5-3.4 1.4-1 1-1.4 2.1-1.4 3.5 0 1.3.5 2.5 1.4 3.4 1 1 2.1 1.4 3.4 1.4 1.4 0 2.5-.5 3.4-1.4 1-1 1.4-2.1 1.4-3.5.1-1.3-.4-2.5-1.4-3.4z"/><path id="XMLID_103_" class="st0" d="M404.1 89.3c-.8.6-1.6 1-2.7 1-1.8 0-3.1-.8-4.1-2.4l1-.6c.3.6.7 1 1.2 1.4.5.4 1.1.5 1.9.5 1.8 0 2.6-.7 2.6-2.3 0-.7-.3-1.2-.9-1.7-.2-.1-.5-.2-.8-.4-.3-.1-.8-.3-1.3-.5-.9-.3-1.6-.7-2-1-.6-.5-.9-1.2-.9-2.1 0-.8.3-1.5.9-2 .6-.6 1.3-.9 2.3-.9 1.3 0 2.4.4 3.3 1.3l-.8.7c-.6-.6-1.5-1-2.4-1-1.3 0-2 .6-2 1.8 0 .5.2 1 .6 1.3.3.3.9.5 1.6.8.6.2 1.2.4 1.6.6.4.2.7.4.9.5.8.6 1.2 1.5 1.2 2.5-.1 1-.5 1.9-1.2 2.5z"/></g><g id="XMLID_436_"><path id="XMLID_28_" class="st0" d="M148.4 30.3c12.2 0 18.3 9.3 18.3 18.6s-6.1 18.6-18.3 18.6H135V30.3h13.4zm0 31.8c8.6 0 13-6.6 13-13.2s-4.4-13.3-13-13.3h-8v26.5h8z"/><path id="XMLID_31_" class="st0" d="M175.4 62.1h17.3v5.4H170V30.3h22.7v5.4h-17.3v10.5h16.9v5.4h-16.9v10.5z"/><path id="XMLID_33_" class="st0" d="M216 39.9c-.7-3.4-4.4-4.8-7.6-4.7-2.5.1-5.3.9-6.8 2.8-.7 1-1 2.2-.9 3.5.3 3.8 4.5 4.3 8.5 4.7 5.1.6 11.4 2 12.9 7.9.2.8.3 1.7.3 2.4 0 7.2-7.1 11.3-13.8 11.3-5.8 0-12.7-3.4-13.4-10.1l-.1-1 5.4-.1.1.8v-.2c.4 3.5 4.6 5.3 8 5.3 4 0 8.4-2.2 8.4-6.1 0-.4-.1-.8-.2-1.3-.6-2.8-4.5-3.3-8.2-3.7-5.8-.6-12.6-1.9-13.2-9.6v.1c-.2-2.5.4-5 2-7.1 2.5-3.2 7-5 11.3-5 5.8 0 11.7 3 12.7 9.8l-5.4.3z"/><path id="XMLID_35_" class="st0" d="M230.3 35.6c3.2-3.4 7.8-5.5 12.9-5.5 8.5 0 15.2 5.3 17.4 13.7h-5.3c-2-5.6-6.6-8.4-12-8.4-3.6 0-6.8 1.5-9.2 4s-3.8 5.8-3.8 9.6c0 3.7 1.5 7 3.8 9.5 2.3 2.4 5.6 4 9.2 4 5.6 0 10.4-3.2 12.4-8.9h5.3c-2.1 8.5-8.9 14.2-17.6 14.2-5.1 0-9.6-2.1-12.9-5.5-3.2-3.4-5.3-8.1-5.3-13.3-.2-5.3 1.9-10 5.1-13.4z"/><path id="XMLID_37_" class="st0" d="M284.5 56.5h-13.4c-1.4 3.4-3.3 7.9-4.5 11h-5.8l15-37.8h3.9l15 37.8H289l-4.5-11zm-11.3-5h9.3l-4.6-13.2-4.7 13.2z"/><path id="XMLID_40_" class="st0" d="M303.2 48.6h6.3c4.5 0 6.8-3.2 6.8-6.5 0-3.2-2.2-6.4-6.8-6.4h-8.3v31.8h-5.3V30.2h13.6c8.1 0 12.1 6 12.1 11.9 0 5.3-3.2 10.3-9.6 11.4l11.8 14h-7l-13.6-16.3v-2.6z"/><path id="XMLID_42_" class="st0" d="M333.9 67.7v-32h-11.3v-5.4h27.9v5.4h-11.2v32h-5.4z"/><path id="XMLID_44_" class="st0" d="M358.7 62.1H376v5.4h-22.7V30.3H376v5.4h-17.3v10.5h16.9v5.4h-16.9v10.5z"/><path id="XMLID_46_" class="st0" d="M399.2 39.9c-.7-3.4-4.4-4.8-7.6-4.7-2.5.1-5.3.9-6.8 2.8-.7 1-1 2.2-.9 3.5.3 3.8 4.5 4.3 8.5 4.7 5.1.6 11.4 2 12.9 7.9.2.8.3 1.7.3 2.4 0 7.2-7.1 11.3-13.8 11.3-5.8 0-12.7-3.4-13.4-10.1l-.1-1 5.4-.1.1.8v-.2c.4 3.5 4.6 5.3 8 5.3 4 0 8.4-2.2 8.4-6.1 0-.4-.1-.8-.2-1.3-.6-2.8-4.5-3.3-8.2-3.7-5.8-.6-12.6-1.9-13.2-9.6v.1c-.2-2.5.4-5 2-7.1 2.5-3.2 7-5 11.3-5 5.8 0 11.7 3 12.7 9.8l-5.4.3z"/></g><g id="SIMBOLO_30_"><path id="XMLID_433_" class="st0" d="M60 0C26.9 0 0 26.9 0 60s26.9 60 60 60 60-26.9 60-60S93.1 0 60 0zm-2.8 115.6C26.5 115.6 1.1 90.7 1.1 60S26.5 4.4 57.2 4.4s55.6 24.9 55.6 55.6-24.9 55.6-55.6 55.6z"/><path id="XMLID_430_" class="st0" d="M54.4 8.9C26.2 8.9 2.2 31.8 2.2 60s24 51.1 52.2 51.1 51.1-22.9 51.1-51.1S82.7 8.9 54.4 8.9zm-2.7 97.8C25.9 106.7 3.3 85.8 3.3 60s22.6-46.7 48.3-46.7S98.3 34.2 98.3 60s-20.9 46.7-46.6 46.7z"/><path id="XMLID_427_" class="st0" d="M48.9 17.8C25.6 17.8 4.4 36.7 4.4 60c0 23.3 21.1 42.2 44.4 42.2S91.1 83.3 91.1 60c0-23.3-18.9-42.2-42.2-42.2zm-2.8 80C25.2 97.8 5.6 80.9 5.6 60s19.7-37.8 40.6-37.8S83.9 39.1 83.9 60 67 97.8 46.1 97.8z"/><path id="XMLID_424_" class="st0" d="M43.3 26.7C24.9 26.7 6.7 41.6 6.7 60S25 93.3 43.4 93.3 76.7 78.4 76.7 60s-15-33.3-33.4-33.3zm-2.7 62.2C24.6 88.9 7.8 76 7.8 60s16.8-28.9 32.8-28.9S69.4 44 69.4 60 56.5 88.9 40.6 88.9z"/><path id="XMLID_421_" class="st0" d="M37.8 35.6C24.3 35.6 8.9 46.5 8.9 60s15.4 24.4 28.9 24.4c13.5 0 24.4-10.9 24.4-24.4S51.3 35.6 37.8 35.6zM35 80c-11 0-25-9-25-20s14-20 25-20 20 9 20 20-9 20-20 20z"/></g></svg>