<svg xmlns="http://www.w3.org/2000/svg" width="45" height="45"><path d="M30.5 16.739h-4.035V13.11H30.5v3.628zm0 15.15h-4.035v-3.628H30.5v3.628zM21.878 39.5h-1.083q-1.614 0-2.795-.265-1.161-.248-2.047-1.275-.886-1.026-1.122-2.442-.217-1.416-.256-4.708 0-2.301-.217-3.646-.197-1.345-1.082-2.266-.886-.92-2.776-.956v-2.884q1.89-.036 2.776-.939.885-.92 1.082-2.265.217-1.345.217-3.646.04-3.274.256-4.673.216-1.416 1.082-2.46.886-1.044 2.067-1.31 1.181-.265 2.815-.265h1.083v2.761h-.61q-2.028 0-2.717.673-.67.654-.67 2.99 0 3.877-.196 5.611-.177 1.735-1.043 2.92-.847 1.169-2.874 2.054 2.008.726 3.05 2.354 1.064 1.628 1.064 5.646 0 3.699.177 4.53.177.833.67 1.257.511.443 2.539.443h.61V39.5z"/></svg>