<svg width="45" height="45" version="1.1" viewBox="0 0 45 45" xmlns="http://www.w3.org/2000/svg">
 <path d="m30.499999 16.738936h-4.035433v-3.628319h4.035433v3.628319zm0 15.150443h-4.035433v-3.628319h4.035433v3.628319zm-8.622047 7.61062h-1.082677q-1.614173 0-2.795275-0.265487-1.161418-0.247788-2.047244-1.274337-0.885827-1.026548-1.122047-2.442477-0.216536-1.41593-0.255906-4.707965 0-2.300885-0.216536-3.646018-0.19685-1.345133-1.082676-2.265487-0.885827-0.920354-2.775591-0.955752v-2.884956q1.889764-0.0354 2.775591-0.938053 0.885826-0.920354 1.082676-2.265487 0.216536-1.345133 0.216536-3.646018 0.03937-3.274337 0.255906-4.6725669 0.216535-1.4159289 1.082676-2.4601768 0.885827-1.0442478 2.066929-1.3097345 1.181103-0.2654868 2.814961-0.2654868h1.082677v2.7610621h-0.610237q-2.027558 0-2.716534 0.6725664-0.669291 0.6548669-0.669291 2.9911505 0 3.876107-0.196851 5.61062-0.177165 1.734514-1.043307 2.920354-0.846457 1.168142-2.874015 2.053098 2.007873 0.725663 3.05118 2.353982 1.062993 1.628319 1.062993 5.646018 0 3.699115 0.177165 4.530974 0.177165 0.831858 0.669291 1.256637 0.511811 0.442478 2.539369 0.442478h0.610237v2.761062z"/>
</svg>
