<svg width="45" height="45" version="1.1" viewBox="0 0 45 45" xmlns="http://www.w3.org/2000/svg">
 <path d="m5.6924807 22.471027q-0.1208449 1.0106-0.1208449 1.663605 0 1.166077 0.5773697 1.865724 0.5907969 0.699646 1.5709828 0.699646 0.9399042 0 1.879808-0.528621 0.9533317-0.528623 2.2020607-1.850177l0.402817 0.419788q-1.544128 2.16113-3.0076934 3.078445-1.4635651 0.917315-3.2359559 0.917315-2.2423428 0-3.1016838-1.243817-0.859341-1.243816-0.859341-2.876325 0-2.549824 1.2755843-5.099647 1.2890114-2.549823 3.4910727-4.089046 2.2154884-1.539223 4.4444041-1.539223 1.127885 0 1.705255 0.621909 0.57737 0.621908 0.57737 1.570318 0 1.134982-0.563943 2.207773-0.778778 1.461484-1.960372 2.363251-1.1815933 0.88622-2.6451586 1.352651-0.9801859 0.310954-2.6317317 0.466431zm0.1208448-0.80848q1.1815938-0.202121 1.8260995-0.544171 0.657933-0.357596 1.2755843-1.119434 0.6310786-0.777385 1.0876027-1.943463 0.456526-1.181626 0.456526-2.207773 0-0.435336-0.214836-0.6841-0.201408-0.248763-0.5236603-0.248763-0.644506 0-1.4501381 1.041696-1.4769923 1.896819-2.4571781 5.706008z"/>
 <path d="m14.148932 14.821557 4.686094-0.932863q1.275585 2.316608 1.799245 5.099648 1.315867-2.254418 1.987227-3.156184 0.899622-1.212721 1.476992-1.570319 0.590797-0.373145 1.24873-0.373145 0.738496 0 1.127885 0.466431 0.402816 0.466432 0.402816 1.259364 0 0.74629-0.402816 1.228269-0.389389 0.466431-0.980186 0.466431-0.42967 0-0.993612-0.171024-0.550516-0.186573-0.765351-0.186573-0.563943 0-1.074176 0.466432-0.698215 0.637455-1.718683 2.720847 1.141313 4.664312 1.8261 5.690461 0.402816 0.606359 0.819059 0.606359 0.349107 0 0.604225-0.20212 0.389388-0.326501 1.19502-1.632508l0.48338 0.326502q-1.181594 2.207773-2.309479 3.10954-0.859341 0.699647-1.691828 0.699647-0.859341 0-1.436711-0.435336-0.563942-0.450884-1.007039-1.445936-0.443098-1.010601-1.047322-3.218376-1.570983 2.316608-2.470605 3.3894-0.886196 1.057244-1.476993 1.383746-0.590796 0.326502-1.262157 0.326502-0.698214 0-1.10103-0.466431-0.416244-0.466432-0.416244-1.212722 0-0.792932 0.443098-1.306006t1.127885-0.513074q0.362534 0 0.81906 0.248762 0.67136 0.373146 0.966758 0.373146 0.389389 0 0.698215-0.186572 0.402816-0.233216 1.020467-1.010602 0.375961-0.481978 1.383002-2.052297-1.289012-5.534983-2.014081-6.623321-0.456524-0.699647-1.154739-0.699647-0.362534 0-0.886196 0.124382l0.09399-0.590813z"/>
 <path d="m27.627159 14.759366 4.444404-0.870672h0.805633l-0.604225 2.534276q1.409857-1.492579 2.309479-2.005654 0.899623-0.528622 1.785819-0.528622 1.262157 0 1.946943 1.134982 0.684788 1.119435 0.684788 2.751944 0 4.462191-2.672013 7.913782-2.363188 3.04735-5.156046 3.04735-0.496807 0-0.845914-0.108835-0.349107-0.108833-0.980185-0.481978l-0.698215 2.798587q-0.375962 1.523675-0.375962 2.316608 0 0.497526 0.295399 0.777385 0.295398 0.295406 1.383002 0.497526l-0.120846 0.575266h-7.223834l0.134271-0.575266q0.859342-0.0311 1.436711-0.637456 0.563943-0.60636 1.06075-2.612014l3.276237-13.075619q0.362534-1.461484 0.362534-2.067845 0-0.26431-0.107417-0.435335-0.107418-0.186572-0.322253-0.264311-0.214836-0.07774-0.966758-0.07774l0.147698-0.606361zm2.094644 11.940636q0.402816 0.761838 0.725069 1.026149 0.322253 0.248763 0.751923 0.248763t0.832487-0.26431q0.416243-0.279859 1.020467-1.103888 0.604225-0.824028 1.154739-2.114487 0.563943-1.29046 0.899623-2.922969 0.33568-1.648056 0.33568-3.140636 0-1.197174-0.375961-1.741343-0.362535-0.544169-0.886196-0.544169-0.469952 0-0.886195 0.279858-0.604224 0.404241-1.423284 1.508128l-2.148352 8.768904z"/>
</svg>
