<svg xmlns="http://www.w3.org/2000/svg" width="45" height="45"><path d="M5.692 22.471q-.12 1.01-.12 1.664 0 1.166.577 1.865.59.7 1.571.7.94 0 1.88-.529.953-.528 2.202-1.85l.403.42q-1.544 2.161-3.008 3.078-1.464.918-3.236.918-2.242 0-3.102-1.244Q2 26.249 2 24.617q0-2.55 1.276-5.1 1.289-2.55 3.49-4.09 2.216-1.538 4.445-1.538 1.128 0 1.705.622.578.622.578 1.57 0 1.135-.564 2.208-.779 1.461-1.96 2.363-1.182.886-2.646 1.353-.98.31-2.632.466zm.121-.808q1.182-.203 1.826-.545.658-.357 1.276-1.12.631-.776 1.088-1.943.456-1.181.456-2.207 0-.436-.215-.684-.201-.25-.523-.25-.645 0-1.45 1.043-1.477 1.896-2.458 5.706z"/><path d="m14.149 14.822 4.686-.933q1.276 2.316 1.8 5.1 1.315-2.255 1.986-3.157.9-1.213 1.477-1.57.591-.373 1.25-.373.738 0 1.127.466.403.467.403 1.26 0 .746-.403 1.228-.39.466-.98.466-.43 0-.994-.17-.55-.187-.765-.187-.564 0-1.074.466-.698.637-1.719 2.72 1.141 4.665 1.826 5.691.403.607.82.607.348 0 .603-.202.39-.327 1.196-1.633l.483.327q-1.182 2.207-2.31 3.11-.859.699-1.691.699-.86 0-1.437-.436-.564-.45-1.007-1.446-.443-1.01-1.047-3.218-1.571 2.317-2.471 3.39-.886 1.057-1.477 1.383-.59.327-1.262.327-.698 0-1.101-.467-.417-.466-.417-1.212 0-.793.444-1.306t1.127-.513q.363 0 .82.248.67.373.966.373.39 0 .698-.186.403-.233 1.021-1.01.376-.483 1.383-2.053-1.29-5.535-2.014-6.623-.457-.7-1.155-.7-.362 0-.886.124l.094-.59z"/><path d="m27.627 14.76 4.445-.871h.805l-.604 2.534q1.41-1.493 2.31-2.006.9-.528 1.785-.528 1.262 0 1.947 1.135.685 1.12.685 2.752 0 4.462-2.672 7.913-2.363 3.048-5.156 3.048-.497 0-.846-.11-.35-.108-.98-.481l-.698 2.799q-.376 1.523-.376 2.316 0 .498.295.778.295.295 1.383.497l-.12.575h-7.225l.135-.575q.859-.031 1.436-.637.564-.607 1.061-2.612l3.276-13.076q.363-1.462.363-2.068 0-.264-.108-.435-.107-.187-.322-.265-.215-.077-.967-.077l.148-.607zm2.095 11.94q.403.762.725 1.026.322.249.752.249t.832-.264q.417-.28 1.02-1.104.605-.824 1.155-2.115.564-1.29.9-2.923.336-1.648.336-3.14 0-1.198-.376-1.742-.363-.544-.886-.544-.47 0-.887.28-.604.404-1.423 1.508L29.722 26.7z"/></svg>