<svg xmlns="http://www.w3.org/2000/svg" width="45" height="45"><path d="M11.21 13.89q-2.23 0-4.445 1.539-2.201 1.54-3.49 4.09Q2 22.069 2 24.619q0 1.632.86 2.875.859 1.244 3.101 1.244a5.97 5.97 0 0 0 3.236-.918q1.464-.916 3.008-3.078l-.402-.42q-1.25 1.323-2.203 1.852-.94.528-1.879.527-.982 0-1.572-.699-.577-.7-.576-1.865 0-.653.119-1.664 1.652-.155 2.633-.465a8.9 8.9 0 0 0 2.646-1.354q1.18-.901 1.959-2.363a4.7 4.7 0 0 0 .565-2.209q0-.947-.579-1.568-.576-.622-1.705-.623zm7.625 0-4.688.934-.094.59q.525-.125.887-.126.698 0 1.154.702.724 1.088 2.014 6.623-1.006 1.57-1.383 2.053-.618.777-1.021 1.01a1.3 1.3 0 0 1-.697.185q-.297 0-.965-.373-.457-.248-.82-.248-.683 0-1.127.514c-.444.514-.446.778-.446 1.307q0 .745.418 1.21.403.468 1.102.468.672 0 1.262-.327.59-.325 1.477-1.383.9-1.073 2.471-3.39.605 2.207 1.047 3.218.444.995 1.008 1.445.576.436 1.436.436.833 0 1.691-.7 1.128-.902 2.311-3.108l-.482-.327q-.806 1.306-1.197 1.633a.94.94 0 0 1-.602.202q-.417 0-.82-.608-.686-1.025-1.826-5.689 1.02-2.084 1.719-2.72.51-.467 1.074-.468.215 0 .766.188.563.17.992.17.59 0 .98-.465.404-.482.405-1.229 0-.793-.405-1.26-.389-.466-1.127-.467-.659 0-1.25.373-.576.357-1.477 1.57-.671.902-1.986 3.156-.523-2.784-1.799-5.1zm13.24 0-4.445.871-.148.606q.75 0 .966.078t.323.263q.109.172.11.436 0 .606-.364 2.068l-3.277 13.08q-.497 2.006-1.061 2.61a2 2 0 0 1-1.436.638l-.135.576h7.225l.12-.576q-1.089-.202-1.384-.496-.295-.28-.295-.778.001-.792.377-2.316l.698-2.799q.63.373.98.48.349.11.846.11 2.793 0 5.156-3.047 2.671-3.45 2.672-7.914-.001-1.632-.686-2.752-.685-1.135-1.947-1.135-.885 0-1.785.53-.9.512-2.309 2.005l.604-2.535h-.805zm-22.35 1.025a.64.64 0 0 1 .523.25q.216.248.215.684.001 1.026-.455 2.207-.459 1.167-1.09 1.943-.618.761-1.275 1.119-.644.342-1.826.545.981-3.81 2.46-5.705.804-1.043 1.448-1.043m24.46 1.229q.524 0 .887.545.375.544.375 1.742 0 1.492-.336 3.139-.337 1.634-.9 2.924-.55 1.29-1.155 2.115-.602.824-1.02 1.104a1.5 1.5 0 0 1-.832.264q-.43 0-.752-.248-.322-.265-.724-1.027l2.146-8.768q.819-1.104 1.424-1.508.417-.281.886-.282z"/></svg>