<svg width="45" height="45" version="1.1" viewBox="0 0 45 45" xmlns="http://www.w3.org/2000/svg">
 <path d="m40 37.656197q0 0.383944-0.115704 0.633507-0.09642 0.268761-0.269972 0.422339-0.173554 0.153578-0.404959 0.211169-0.21212 0.07678-0.443525 0.07678h-4.917357q-0.269972 0-0.424242-0.26876-0.134984-0.249563-0.134984-0.883072 0-0.326351 0.01928-0.556718 0.03857-0.211169 0.115704-0.364748 0.07713-0.13438 0.173552-0.191972 0.115702-0.05759 0.25069-0.05759h3.14325v-28.335075h-3.14325q-0.269973 0-0.424242-0.2687614-0.134987-0.2687605-0.134987-0.8830711 0-0.3263525 0.01928-0.5375218 0.03857-0.2303665 0.115702-0.3839442 0.07713-0.1535775 0.173554-0.2111692 0.115701-0.057591 0.250689-0.057591h4.917356q0.231405 0 0.443526 0.076789 0.231405 0.057591 0.404958 0.2303664 0.173553 0.1535777 0.269972 0.4223386 0.115709 0.2495696 0.115709 0.6143165v30.312388zm-10.943532-26.21378q0 0.364746-0.03857 0.633508-0.03857 0.26876-0.134986 0.441535-0.09642 0.153578-0.231406 0.230367-0.115702 0.07678-0.250688 0.07678h-9.140497v8.446771h8.639119q0.134986 0 0.250689 0.07678 0.134986 0.05759 0.231404 0.21117 0.09642 0.153578 0.134986 0.422339 0.03857 0.249564 0.03857 0.652704 0 0.364748-0.03857 0.633508-0.03857 0.249564-0.134986 0.422338-0.09642 0.153579-0.231404 0.249564-0.115703 0.07678-0.250689 0.07678h-8.639118v10.347294q0 0.13438-0.07713 0.268761-0.07714 0.115183-0.269973 0.191972-0.192838 0.0576-0.501377 0.09599-0.30854 0.0576-0.809918 0.0576-0.462809 0-0.790631-0.0576-0.327824-0.0384-0.520662-0.09599-0.192837-0.07679-0.269973-0.191972-0.07713-0.134381-0.07713-0.268761v-22.998253q0-0.748691 0.385677-1.036649 0.404957-0.307155 0.848482-0.307155h11.223141q0.134986 0 0.250688 0.07679 0.134987 0.07679 0.231405 0.249563 0.09642 0.172775 0.134987 0.460733 0.03857 0.268761 0.03857 0.633508zm-17.345724 26.405751q0 0.633509-0.15427 0.883073-0.134986 0.26876-0.404958 0.26876h-4.9366396q-0.2314051 0-0.4435262-0.07678-0.2121212-0.05759-0.385675-0.211173-0.1735537-0.153578-0.2892562-0.422339-0.096419-0.249563-0.096419-0.633507v-30.312388q0-0.3647469 0.096419-0.6143105 0.1157025-0.268766 0.2892562-0.4223437 0.1735538-0.1727748 0.385675-0.2303664 0.2121211-0.0767888 0.4435262-0.0767888h4.9366396q0.115702 0 0.212121 0.057591 0.115702 0.057591 0.192837 0.2111691 0.07714 0.1535778 0.115703 0.3839442 0.03857 0.2111692 0.03857 0.5375217 0 0.6143101-0.15427 0.8830706-0.134986 0.2687614-0.404959 0.2687614h-3.1432505v28.335075h3.1432505q0.115703 0 0.212122 0.05759 0.115702 0.0576 0.192837 0.191972 0.07714 0.153578 0.115703 0.364747 0.03857 0.230368 0.03857 0.55672z"/>
</svg>
