<svg xmlns="http://www.w3.org/2000/svg" width="45" height="45"><path d="M40 37.656q0 .384-.116.634-.096.268-.27.422-.173.154-.405.211-.212.077-.443.077h-4.918q-.27 0-.424-.269-.135-.25-.135-.883 0-.326.02-.557.038-.21.115-.364.077-.135.174-.192.115-.058.25-.058h3.144V8.342h-3.144q-.27 0-.424-.269-.135-.268-.135-.883 0-.326.02-.537.038-.23.115-.384.077-.154.174-.211.115-.058.25-.058h4.918q.231 0 .443.077.232.057.405.23.174.154.27.422.116.25.116.615v30.312zM29.056 11.442q0 .365-.038.634-.039.269-.135.441-.097.154-.231.23-.116.078-.251.078h-9.14v8.446h8.638q.135 0 .251.077.135.058.232.211.096.154.135.423.038.25.038.652 0 .365-.038.634-.04.25-.135.422-.097.154-.232.25-.116.077-.25.077h-8.64v10.347q0 .134-.077.269-.077.115-.27.192-.193.057-.501.096-.309.057-.81.057-.463 0-.79-.057-.329-.039-.521-.096-.193-.077-.27-.192-.077-.135-.077-.27V11.367q0-.75.385-1.037.405-.307.849-.307H28.4q.135 0 .25.077.136.076.232.25.096.172.135.46.038.269.038.633zM11.711 37.848q0 .634-.155.883-.135.269-.404.269H6.215q-.232 0-.444-.077-.212-.057-.385-.211-.174-.154-.29-.422Q5 38.04 5 37.656V7.344q0-.365.096-.614.116-.27.29-.423.173-.173.385-.23Q5.983 6 6.215 6h4.937q.115 0 .212.058.115.057.192.21.078.154.116.385.039.21.039.537 0 .615-.155.883-.135.27-.404.27H8.008v28.334h3.144q.115 0 .212.058.115.057.192.192.078.153.116.364.039.23.039.557z"/></svg>