<svg width="45" height="45" version="1.1" viewBox="0 0 45 45" xmlns="http://www.w3.org/2000/svg">
 <path d="m19.213823 18.210737q0 1.051863-0.485044 1.916727-0.485045 0.864865-1.358125 1.472609-0.873079 0.607743-2.109943 0.958363-1.236863 0.327247-2.740501 0.327247-0.824576 0-1.600647-0.0935-0.751819-0.116873-1.3823767-0.280496-0.6305579-0.163623-1.0913501-0.350621-0.4365401-0.210373-0.6305579-0.39737-0.1697656-0.186998-0.2425222-0.467495-0.072757-0.303872-0.072757-0.911614 0-0.631117 0.097009-0.84149 0.1212611-0.210373 0.3395311-0.210373 0.1940179 0 0.533549 0.186998 0.3395311 0.163623 0.8488278 0.373995 0.5092968 0.186999 1.2368635 0.350622 0.727567 0.163623 1.74616 0.163623 0.848828 0 1.43088-0.186998 0.606306-0.186998 0.97009-0.467494 0.388036-0.303872 0.557801-0.677868 0.194018-0.39737 0.194018-0.794741 0-0.537619-0.21827-0.958363-0.21827-0.420745-0.703314-0.724617-0.460792-0.303872-1.212612-0.444119-0.751818-0.163623-1.818916-0.163623h-1.6006471q-0.1697656 0-0.2910267-0.04675-0.1212611-0.07013-0.1940178-0.210373-0.072756-0.140248-0.1212611-0.373995-0.048505-0.233747-0.048505-0.560993 0-0.350622 0.048505-0.560994 0.048504-0.233747 0.1212607-0.350621 0.072756-0.140249 0.1697655-0.186998 0.1212612-0.04675 0.2667745-0.04675h1.5763936q1.721909 0 2.619241-0.584368 0.897332-0.607744 0.897332-1.659606 0-0.818115-0.630558-1.355734-0.630557-0.5609935-2.012934-0.5609935-0.703315 0-1.333873 0.1869977-0.630557 0.1869975-1.1398537 0.4207458-0.4850446 0.210372-0.8488279 0.39737-0.3395312 0.163623-0.4850446 0.163623-0.097009 0-0.1940177-0.04675-0.097009-0.04675-0.1697655-0.186997-0.072756-0.140249-0.1212612-0.350622-0.024252-0.2337466-0.024252-0.5609928 0-0.257122 0-0.4207451 0.0242526-0.1869969 0.0485048-0.3272453 0.0485045-0.1402483 0.097009-0.2337472 0.0727566-0.0934989 0.1940177-0.2103725 0.1212612-0.1168737 0.5578012-0.3272462 0.43654-0.2337473 1.0913501-0.420745 0.6548097-0.2103726 1.4551327-0.3506209 0.824576-0.1636232 1.746161-0.1636232 1.358125 0 2.352466 0.3038715 0.99434 0.2804968 1.649151 0.7947407 0.679062 0.4908693 0.994341 1.2154858 0.339531 0.7012412 0.339531 1.5661062 0 0.677868-0.242523 1.262236-0.218269 0.584368-0.654809 1.075237-0.412288 0.467494-1.042846 0.818116-0.606306 0.327246-1.333872 0.514243 0.970089 0.0935 1.697656 0.397371 0.751818 0.303871 1.236863 0.771366 0.509297 0.467495 0.776071 1.098612 0.266774 0.607743 0.266774 1.332359zm-5.529506 19.634771q-0.121262 0.210372-0.291028 0.303871-0.169765 0.116873-0.412287 0.186998-0.242522 0.0935-0.582053 0.116873-0.339531 0.04675-0.824576 0.04675-0.533549 0-0.87308-0.0935-0.315279-0.0935-0.460792-0.257122-0.121261-0.140248-0.09701-0.373996 0.04851-0.210373 0.242523-0.490869l21.827001-30.130021q0.121262-0.1869978 0.291028-0.3038715 0.169765-0.1402484 0.412287-0.2103725 0.266775-0.070124 0.582053-0.093499 0.339531-0.04675 0.848829-0.04675 0.509296 0 0.824575 0.093499 0.339531 0.070124 0.485044 0.2337472 0.145513 0.1636231 0.09701 0.3973704-0.02425 0.2337472-0.218271 0.4908691l-21.851253 30.130024zm23.815683-4.487948q0 0.607743-0.145513 0.934989t-0.412288 0.327246h-1.818917v2.641344q0 0.140248-0.09701 0.233747-0.07276 0.0935-0.266775 0.163623-0.194018 0.07013-0.533549 0.0935-0.315279 0.04675-0.800323 0.04675-0.460793 0-0.776072-0.04675-0.315278-0.02338-0.509296-0.0935-0.194018-0.07013-0.291027-0.163623-0.07276-0.0935-0.07276-0.233747v-2.641344h-6.936137q-0.194018 0-0.339531-0.04675t-0.242523-0.186998q-0.07276-0.140248-0.121261-0.420745-0.0485-0.280496-0.0485-0.724617 0-0.373996 0-0.631117 0.02425-0.257122 0.07276-0.467495 0.04851-0.210372 0.121261-0.39737 0.09701-0.186998 0.242522-0.420745l5.723525-8.461651q0.07276-0.0935 0.242523-0.163623 0.169765-0.0935 0.436539-0.163623 0.291027-0.07013 0.703315-0.0935 0.43654-0.04675 1.018593-0.04675 0.679062 0 1.139855 0.04675 0.485044 0.02337 0.776071 0.0935 0.315279 0.07013 0.43654 0.186998 0.121261 0.0935 0.121261 0.210372v9.256392h1.818917q0.242522 0 0.388036 0.280496 0.169765 0.257123 0.169765 0.88824zm-5.723524-8.227904h-0.04851l-4.826192 7.059168h4.874697v-7.059168z"/>
</svg>
