<svg xmlns="http://www.w3.org/2000/svg" width="45" height="45"><path d="M19.214 18.21q0 1.053-.485 1.917-.485.865-1.358 1.473-.873.608-2.11.958-1.237.328-2.74.328-.825 0-1.601-.094-.752-.117-1.383-.28-.63-.164-1.091-.35-.437-.211-.63-.398-.17-.187-.243-.468-.073-.304-.073-.911 0-.632.097-.842.121-.21.34-.21.194 0 .533.187.34.163.849.374.51.187 1.237.35.727.164 1.746.164.849 0 1.43-.187.607-.187.97-.468.389-.303.559-.677.194-.398.194-.795 0-.538-.219-.959-.218-.42-.703-.724-.46-.304-1.212-.444-.752-.164-1.82-.164h-1.6q-.17 0-.291-.047-.121-.07-.194-.21-.073-.14-.121-.374-.049-.234-.049-.561 0-.35.049-.561.048-.234.12-.35.074-.14.17-.188.122-.046.267-.046h1.577q1.722 0 2.62-.585.896-.607.896-1.66 0-.817-.63-1.355-.63-.561-2.013-.561-.703 0-1.334.187-.63.187-1.14.42-.485.211-.849.398-.34.164-.485.164-.097 0-.194-.047t-.17-.187q-.072-.14-.12-.35-.025-.234-.025-.562v-.42q.024-.187.049-.328.048-.14.097-.233.072-.094.194-.21.12-.118.557-.328.437-.234 1.092-.42.655-.211 1.455-.351.824-.164 1.746-.164 1.358 0 2.352.304.995.28 1.65.795.679.49.994 1.215.34.701.34 1.566 0 .678-.243 1.262-.218.585-.655 1.076-.412.467-1.043.818-.606.327-1.334.514.97.094 1.698.397.752.304 1.237.772.51.467.776 1.098.267.608.267 1.333zm-5.53 19.636q-.12.21-.29.303-.17.117-.413.187-.243.094-.582.117-.34.047-.825.047-.533 0-.873-.093-.315-.094-.46-.258-.122-.14-.098-.374.049-.21.243-.49l21.827-30.13q.121-.188.291-.304.17-.14.412-.21.267-.07.582-.094.34-.047.85-.047.509 0 .824.093.34.07.485.234.145.164.097.398-.024.233-.218.49l-21.852 30.13zM37.5 33.358q0 .607-.146.935t-.412.327h-1.819v2.641q0 .14-.097.234-.072.093-.267.164-.194.07-.533.093-.315.047-.8.047-.461 0-.776-.047-.316-.023-.51-.093t-.29-.164q-.074-.094-.074-.234V34.62H24.84q-.194 0-.34-.047t-.242-.187q-.072-.14-.121-.42-.048-.281-.048-.725v-.631q.024-.258.072-.468.049-.21.122-.397.097-.187.242-.421l5.724-8.462q.072-.093.242-.163.17-.094.437-.164.29-.07.703-.093.437-.047 1.019-.047.679 0 1.14.047.484.023.775.093.316.07.437.187.121.094.121.21v9.257h1.82q.242 0 .387.28.17.257.17.889zm-5.724-8.228h-.048l-4.826 7.059h4.874v-7.06z"/></svg>