<svg xmlns="http://www.w3.org/2000/svg" width="45" height="45"><path d="M29.941 3.793c-1.271 0-2.473.518-3.502 1.457-1.024.935-1.891 2.243-2.638 3.908-.718 1.591-1.44 3.768-2.188 6.557-.844 3.151-1.51 6.476-2.002 9.976a454.73 454.73 0 0 1-1.03 7.034c-.27 1.71-.478 2.822-.575 3.185-.238.887-.6 1.59-1.08 2.145l-.002.002-.002.002c-.071.083-.087.04-.153.105.081-.504.09-1.035-.175-1.465l-.004-.006-.002-.005c-.328-.509-.952-.805-1.553-.805-.616 0-1.211.255-1.693.672l-.002.002-.004.002a3.258 3.258 0 0 0-.992 1.603c-.21.784-.094 1.62.416 2.205l.003.004.004.004c.514.574 1.29.832 2.125.832 1.057 0 2.093-.408 3.06-1.139.97-.724 1.755-1.684 2.35-2.847v-.002c1.158-2.24 2.355-5.73 3.643-10.537.635-2.37 1.172-5.29 1.621-8.766.345-2.67.616-4.715.81-6.13.098-.709.176-1.26.235-1.651.06-.391.119-.678.108-.637.3-1.123.785-1.906 1.353-2.537-.077.528-.066 1.096.274 1.506.378.457.98.691 1.576.691a2.56 2.56 0 0 0 1.707-.683l.004-.002.002-.004a3.38 3.38 0 0 0 .959-1.617c.206-.772.019-1.614-.518-2.194-.527-.579-1.305-.865-2.135-.865z"/></svg>