<svg width="45" height="45" version="1.1" viewBox="0 0 45 45" xmlns="http://www.w3.org/2000/svg">
 <path d="m29.941406 3.7929688c-1.271396 0-2.473022 0.5181449-3.501953 1.4570312-1.024914 0.9352215-1.891509 2.2431819-2.638672 3.9082031-0.717955 1.5908839-1.440195 3.7676609-2.1875 6.5566409-0.844453 3.151546-1.510742 6.476536-2.001953 9.976562-0.418222 2.977022-0.76191 5.322272-1.03125 7.033203-0.26934 1.710932-0.47697 2.82261-0.574219 3.185547-0.23763 0.886849-0.600623 1.590359-1.080078 2.144532l-2e-3 2e-3 -2e-3 2e-3c-0.07083 0.0832-0.0871 0.03948-0.152344 0.105468 0.08064-0.504644 0.08991-1.034755-0.175781-1.464843l-0.0039-0.0059-2e-3 -0.0059c-0.327373-0.508489-0.952012-0.804688-1.552735-0.804688-0.616471 0-1.211188 0.255074-1.693359 0.671876l-2e-3 2e-3 -0.0039 2e-3c-0.482607 0.426023-0.82558 0.981724-0.992188 1.603515-0.210048 0.783909-0.09356 1.620424 0.416016 2.205079l0.0039 0.0039 0.0039 0.0039c0.513706 0.574074 1.289143 0.832031 2.125 0.832031 1.056812 0 2.093107-0.408231 3.060547-1.138672 0.968284-0.724008 1.754068-1.684154 2.349609-2.847656v-2e-3c1.15783-2.240429 2.354414-5.729609 3.642578-10.537109 0.635121-2.370301 1.171863-5.288755 1.621094-8.765625 0.345084-2.670901 0.616039-4.71498 0.810547-6.13086 0.09725-0.70794 0.175314-1.259617 0.234375-1.65039 0.05906-0.3907743 0.118459-0.6779094 0.107422-0.6367191 0.300882-1.1229049 0.78539-1.9056848 1.353516-2.5371094-0.07684 0.5284018-0.06606 1.0962424 0.273437 1.5058594 0.378755 0.4569785 0.98069 0.6914062 1.576172 0.6914062 0.626739 0 1.234699-0.2547014 1.707031-0.6835937l0.0039-0.00195 2e-3 -0.00391c0.46519-0.4310475 0.791112-0.9901743 0.959132-1.6172349 0.206708-0.7714455 0.018898-1.6136209-0.517578-2.1933594-0.527075-0.5791055-1.305222-0.8652343-2.134766-0.8652343z"/>
</svg>
