<svg width="45" height="45" version="1.1" viewBox="0 0 45 45" xmlns="http://www.w3.org/2000/svg">
 <path d="m11.195689 11.5-4.9251993 17.506714q-0.4315129 1.55477-0.4315129 1.943463 0 0.202121 0.119038 0.342049 0.1339178 0.13993 0.2827154 0.13993 0.2678355 0 0.5059116-0.217668 0.7142283-0.60636 1.5921338-2.052296l0.5803105 0.279858q-1.4135768 2.363252-2.7825143 3.373852-0.9374244 0.684098-1.9938871 0.684098-0.9820638 0-1.5623743-0.544169-0.5803104-0.559717-0.5803104-1.337102 0-0.575266 0.3571141-1.850177l4.0175338-14.334983q0.3273546-1.181626 0.3273546-1.570318 0-0.373145-0.3124748-0.590813-0.4166332-0.310954-1.2647792-0.264311l0.1636773-0.590812 5.0144772-0.917315h0.892786z"/>
 <path d="m17.070216 18.651944-3.05035 11.054417q-0.252956 0.94841-0.252956 1.243816 0 0.171025 0.133918 0.326502 0.133918 0.13993 0.282715 0.13993 0.252956 0 0.505912-0.233216 0.669588-0.575265 1.607013-2.083392l0.505912 0.310954q-2.246843 4.089045-4.776402 4.089045-0.967184 0-1.547494-0.559717-0.5654308-0.575264-0.5654308-1.445936 0-0.575265 0.2529558-1.461484l2.068286-7.431803q0.297595-1.072791 0.297595-1.61696 0-0.34205-0.282715-0.606361t-0.773747-0.264311q-0.223197 0-0.535671 0.01555l0.193437-0.621908 5.044236-0.855124h0.892786zm-1.398697-7.151944h4.582964l-5.014477 5.441696h-1.339178l1.770691-5.441696z"/>
 <path d="m25.027908 18.651944-1.904608 6.685512q1.919488-3.078445 2.797394-4.151237 1.294539-1.570318 2.127805-2.052297 0.848146-0.481978 1.696291-0.481978 0.967184 0 1.398698 0.606361 0.431513 0.60636 0.431513 1.337102 0 0.761837-0.401754 2.238869l-0.669588 2.50318q1.934368-3.10954 2.782513-4.135689 1.309419-1.585866 2.276603-2.145583 0.669589-0.40424 1.428456-0.40424 0.788627 0 1.309419 0.559717 0.535671 0.54417 0.535671 1.430389 0 0.995053-0.446393 2.580919l-1.651652 5.799293q-0.371995 1.290459-0.371995 1.663604 0 0.124382 0.08928 0.233216 0.104157 0.108834 0.223196 0.108834 0.163677 0 0.282715-0.108834 0.535671-0.450883 1.130862-1.321554 0.133917-0.186573 0.401752-0.575266l0.505913 0.34205q-1.026704 2.005654-2.261723 2.938516-1.22014 0.932862-2.261723 0.932862-0.907665 0-1.458216-0.513075-0.550551-0.528621-0.550551-1.228268 0-0.668551 0.371993-2.021201l1.681414-6.063605q0.342234-1.259364 0.342234-1.570318 0-0.108833-0.104158-0.20212-0.104159-0.108834-0.208317-0.108834-0.193437 0-0.386874 0.09329-0.282715 0.155477-0.877906 0.80848-0.58031 0.653004-1.681412 2.347704-1.101101 1.679152-1.532614 2.627562-0.416634 0.94841-0.833267 2.456538l-0.907665 3.202827h-3.764578l2.782514-10.152652q0.223196-0.824028 0.223196-1.134982 0-0.108834-0.104157-0.20212-0.08928-0.09329-0.193437-0.09329-0.550552 0-1.740932 1.508127-1.81533 2.332155-3.303306 5.612722l-1.20526 4.462191h-3.794337l2.797394-9.997174q0.416633-1.477032 0.416633-2.098941 0-0.248763-0.119038-0.419788-0.119039-0.186576-0.386874-0.279862-0.267836-0.108834-1.026704-0.108834l0.148798-0.590813 5.073996-0.917314h0.892785z"/>
</svg>
