<svg xmlns="http://www.w3.org/2000/svg" width="45" height="45"><path d="M11.196 11.5 6.27 29.007q-.43 1.553-.43 1.943 0 .202.119.342.134.14.283.14.268 0 .506-.218.714-.606 1.592-2.052l.58.28q-1.413 2.363-2.782 3.374-.938.684-1.994.684-.982 0-1.563-.544-.58-.56-.58-1.337 0-.576.357-1.85l4.018-14.335q.327-1.182.327-1.57 0-.374-.312-.592-.417-.31-1.265-.264l.163-.59 5.015-.918h.893zm5.874 7.152-3.05 11.054q-.253.949-.253 1.244 0 .171.134.327.134.14.283.14.252 0 .505-.234.67-.575 1.607-2.083l.506.311Q14.556 33.5 12.026 33.5q-.967 0-1.548-.56-.565-.575-.565-1.446 0-.575.253-1.461l2.068-7.432q.298-1.073.298-1.617 0-.342-.283-.606t-.774-.265q-.223 0-.535.016l.193-.622 5.044-.855h.893zM15.672 11.5h4.582l-5.014 5.442H13.9l1.772-5.442zm9.356 7.152-1.905 6.685q1.92-3.078 2.798-4.15 1.294-1.571 2.127-2.053.849-.482 1.697-.482.967 0 1.398.606.432.607.432 1.337 0 .762-.402 2.24l-.67 2.502q1.935-3.11 2.783-4.135 1.31-1.586 2.277-2.146.67-.404 1.428-.404.789 0 1.31.56.535.544.535 1.43 0 .995-.446 2.581l-1.652 5.8q-.372 1.29-.372 1.663 0 .124.09.233.104.109.223.109.163 0 .282-.109.536-.45 1.131-1.321.134-.187.402-.576l.506.342q-1.027 2.006-2.262 2.939-1.22.933-2.261.933-.908 0-1.459-.513-.55-.529-.55-1.229 0-.668.372-2.02l1.681-6.064q.342-1.26.342-1.57 0-.11-.104-.203-.104-.109-.208-.109-.193 0-.387.094-.283.155-.878.808-.58.653-1.681 2.348-1.101 1.679-1.533 2.627-.416.949-.833 2.457l-.908 3.203h-3.764l2.782-10.153q.223-.824.223-1.135 0-.109-.104-.202-.09-.093-.193-.093-.55 0-1.741 1.508-1.816 2.332-3.303 5.612l-1.206 4.463h-3.794l2.797-9.998q.417-1.477.417-2.098 0-.25-.12-.42-.118-.187-.386-.28-.268-.109-1.027-.109l.15-.59 5.073-.918h.893z"/></svg>