<svg xmlns="http://www.w3.org/2000/svg" width="45" height="45"><path d="M36.626 36h-9.308v-.486q3.633-3.414 6.128-6.276 2.094-2.377 2.624-3.624.543-1.26.543-2.534 0-1.195-.75-1.944-.737-.748-1.848-.748-1.797 0-3.077 2.009l-.478-.223q.672-1.944 1.745-2.955 1.487-1.391 3.49-1.391 1.862 0 3.077 1.168Q40 20.165 40 21.701q0 1.352-.595 2.679-.594 1.313-2.456 3.309-1.422 1.523-5.765 5.291h3.374q1.628 0 2.275-.368.66-.38 1.228-1.51h.607zM8.699 10.212L15.64 9q1.89 3.01 2.665 6.626 1.95-2.93 2.944-4.1 1.332-1.577 2.187-2.041Q24.311 9 25.286 9q1.094 0 1.67.606.597.606.597 1.636 0 .97-.597 1.596-.576.606-1.451.606-.637 0-1.472-.222-.816-.242-1.134-.242-.835 0-1.59.606-1.035.828-2.546 3.535 1.69 6.06 2.704 7.393.597.788 1.213.788.518 0 .895-.263.577-.424 1.77-2.12l.716.423q-1.75 2.869-3.42 4.04-1.273.91-2.506.91-1.273 0-2.128-.566-.836-.586-1.492-1.879-.656-1.313-1.551-4.181-2.327 3.01-3.66 4.403-1.312 1.374-2.187 1.798-.875.424-1.87.424-1.034 0-1.63-.606Q5 27.08 5 26.11q0-1.03.656-1.697.657-.667 1.67-.667.538 0 1.214.324.994.484 1.432.484.577 0 1.034-.242.597-.303 1.512-1.313.557-.626 2.048-2.667-1.91-7.19-2.983-8.605-.676-.909-1.71-.909-.537 0-1.313.162z"/></svg>