<svg width="45" height="45" version="1.1" viewBox="0 0 45 45" xmlns="http://www.w3.org/2000/svg">
 <path d="m36.62599 36.000001h-9.307611v-0.485822q3.632553-3.413887 6.12751-6.276298 2.094213-2.376591 2.62423-3.623972 0.542945-1.260511 0.542945-2.534154 0-1.194859-0.749781-1.943288-0.736852-0.748429-1.848594-0.748429-1.796887 0-3.076683 2.00894l-0.478308-0.223216q0.672216-1.943288 1.745177-2.954324 1.486633-1.391815 3.490354-1.391815 1.861523 0 3.076683 1.168599 1.228088 1.1686 1.228088 2.704848 0 1.352425-0.594653 2.678588-0.594653 1.313034-2.456175 3.308844-1.421997 1.523118-5.765549 5.291522h3.374009q1.628833 0 2.275194-0.367648 0.659289-0.38078 1.228088-1.509988h0.607581zm-27.926812-25.78797 6.940932-1.21203q1.889366 3.009875 2.665001 6.625767 1.949029-2.929074 2.943433-4.100704 1.332499-1.5756391 2.187686-2.0402508 0.875074-0.4848122 1.84959-0.4848122 1.093843 0 1.670596 0.6060152 0.596641 0.6060148 0.596641 1.6362418 0 0.969624-0.596641 1.595839-0.576753 0.606015-1.451828 0.606015-0.636418 0-1.471717-0.222205-0.81541-0.242406-1.133618-0.242406-0.8353 0-1.591045 0.606015-1.03418 0.828221-2.545672 3.535089 1.690485 6.060153 2.704776 7.393386 0.596641 0.787821 1.213171 0.787821 0.51709 0 0.894963-0.262607 0.576754-0.42421 1.770038-2.121053l0.71597 0.42421q-1.75015 2.868472-3.420746 4.040102-1.272836 0.909022-2.505896 0.909022-1.272835 0-2.128022-0.565614-0.835299-0.585814-1.491605-1.878647-0.656305-1.313033-1.551268-4.181505-2.326903 3.009876-3.659403 4.403711-1.3126117 1.373634-2.1876867 1.797845-0.8750746 0.42421-1.8694776 0.42421-1.0341791 0-1.6308208-0.606015-0.6165298-0.606015-0.6165298-1.57564 0-1.030225 0.6563059-1.696842 0.656306-0.666616 1.6705969-0.666616 0.5369777 0 1.2131717 0.323207 0.9944029 0.484813 1.4319403 0.484813 0.5767531 0 1.0341791-0.242407 0.596642-0.303007 1.511492-1.313032 0.556866-0.626216 2.048471-2.666468-1.909254-7.191381-2.983209-8.605416-0.676194-0.909023-1.7103735-0.909023-0.5369776 0-1.3126118 0.161604z" baseline-shift=""/>
</svg>
