<svg xmlns="http://www.w3.org/2000/svg" width="45" height="45"><path d="M35.819 22.995h-8.776v-.454q3.425-3.193 5.777-5.87 1.975-2.223 2.475-3.39.512-1.178.512-2.37 0-1.117-.707-1.817-.695-.7-1.743-.7-1.695 0-2.901 1.88l-.451-.21q.634-1.817 1.645-2.762Q33.052 6 34.941 6q1.755 0 2.901 1.093Q39 8.186 39 9.623q0 1.264-.56 2.505-.561 1.227-2.316 3.094-1.341 1.424-5.437 4.949h3.182q1.535 0 2.145-.344.621-.356 1.158-1.412h.573zm-26.331-.903l6.544-1.134q1.782 2.815 2.513 6.197 1.837-2.74 2.775-3.835 1.256-1.474 2.063-1.908.825-.454 1.744-.454 1.031 0 1.575.567.562.567.562 1.53 0 .907-.562 1.493-.544.567-1.37.567-.6 0-1.387-.208-.769-.227-1.069-.227-.787 0-1.5.567-.975.774-2.4 3.306 1.594 5.667 2.55 6.914.563.737 1.144.737.488 0 .844-.246.544-.396 1.669-1.983l.675.397q-1.65 2.682-3.225 3.778-1.2.85-2.363.85-1.2 0-2.006-.529-.788-.548-1.407-1.757-.619-1.228-1.462-3.91-2.194 2.814-3.45 4.118-1.238 1.285-2.063 1.681Q9.057 39 8.119 39q-.975 0-1.538-.567Q6 37.867 6 36.96q0-.964.619-1.587.619-.624 1.575-.624.506 0 1.144.303.937.453 1.35.453.544 0 .975-.227.563-.283 1.425-1.228.525-.585 1.932-2.493-1.8-6.726-2.813-8.048-.638-.85-1.613-.85-.506 0-1.237.15z"/></svg>