<svg width="45" height="45" version="1.1" viewBox="0 0 45 45" xmlns="http://www.w3.org/2000/svg">
 <path d="m35.818791 22.994963h-8.775747v-0.454345q3.424979-3.192696 5.777367-5.869649 1.974543-2.222607 2.474273-3.389168 0.511919-1.178842 0.511919-2.369963 0-1.1174432-0.706935-1.8173803-0.694747-0.6999371-1.742962-0.6999371-1.694206 0-2.900872 1.8787784l-0.450975-0.208753q0.633803-1.8173806 1.645452-2.7629097 1.401682-1.3016373 3.290905-1.3016373 1.75515 0 2.900872 1.0928842 1.157912 1.0928843 1.157912 2.5295973 0 1.2647985-0.560672 2.5050375-0.560674 1.227961-2.315823 3.094459-1.34074 1.424433-5.436088 4.948679h3.181209q1.535755 0 2.145182-0.34383 0.621616-0.356107 1.157911-1.412153h0.572862zm-26.330994-0.903023 6.544308-1.133501q1.781402 2.814861 2.512714 6.196474 1.837656-2.739295 2.775237-3.835013 1.256356-1.473552 2.062675-1.908061 0.825071-0.4534 1.743899-0.4534 1.031338 0 1.575134 0.56675 0.562549 0.566751 0.562549 1.530227 0 0.906802-0.562549 1.492444-0.543796 0.566751-1.368866 0.566751-0.600052 0-1.387618-0.207809-0.768816-0.2267-1.068841-0.2267-0.787568 0-1.500128 0.566751-0.975083 0.774559-2.400205 3.306045 1.593885 5.667506 2.550218 6.914358 0.562547 0.736776 1.143847 0.736776 0.487541 0 0.843822-0.245591 0.543796-0.396726 1.668892-1.983628l0.675057 0.396725q-1.65014 2.68262-3.225274 3.778338-1.200103 0.850126-2.362702 0.850126-1.200102 0-2.006421-0.528967-0.787567-0.547859-1.406369-1.756927-0.618803-1.22796-1.462625-3.91058-2.193937 2.814861-3.450295 4.118389-1.237606 1.284635-2.0626754 1.681359-0.8250704 0.396726-1.7626503 0.396726-0.9750831 0-1.5376311-0.56675-0.5812995-0.566752-0.5812995-1.473552 0-0.963476 0.6188028-1.586902 0.6188027-0.623426 1.5751342-0.623426 0.5062931 0 1.1438475 0.302267 0.9375798 0.4534 1.3501148 0.4534 0.543797 0 0.975084-0.2267 0.562547-0.283375 1.425121-1.227959 0.525045-0.585643 1.931415-2.493703-1.800154-6.725442-2.81274-8.04786-0.637555-0.850126-1.612638-0.850126-0.506292 0-1.2376052 0.151133z" baseline-shift=""/>
</svg>
