<svg width="89" height="45" version="1.1" viewBox="0 0 89 45" xmlns="http://www.w3.org/2000/svg">
 <path d="m22.7744 26.914h-2.9064l-2.2827-5.919h-8.1221l-2.15 5.919h-2.7206l7.4718-19.456h2.7737zm-5.9721-7.9628q-2.3889-6.3172-2.6941-7.1666-0.30524-0.86264-0.67684-2.296h-0.06636q-0.3716 1.9642-0.99535 3.6364l-2.1765 5.8261h6.6092z"/>
 <path d="m41.9654 34.914h-7.5912v-2.1765q4.7379-2.2827 4.7379-8.0159 0-3.2913-1.6457-5.3351-1.6457-2.0571-4.3928-2.0571-2.6543 0-4.3265 2.0571t-1.6722 5.3351q0 5.6403 4.6981 8.0159v2.1765h-7.5912v-2.3092h4.2734q-4.0478-3.2515-4.0478-8.3212 0-4.008 2.349-6.5826 2.349-2.5747 6.3172-2.5747 3.9151 0 6.2906 2.6012 2.3889 2.6012 2.3889 6.5561 0 4.9502-4.061 8.3212h4.2734v2.3092z"/>
 <path d="m61.7664 26.914h-4.8042l-6.1181-8.4008h-1.8447v4.9502q0 1.3404 0.11944 1.8978 0.11944 0.54413 0.63703 0.80956 0.53086 0.25216 1.7916 0.25216v0.49104h-7.6576v-0.49104q1.2608 0 1.7784-0.25216 0.53086-0.26543 0.6503-0.80956 0.11944-0.5574 0.11944-1.8978v-11.095q0-1.3404-0.11944-1.8845-0.11944-0.5574-0.6503-0.80956-0.51758-0.26543-1.7784-0.26543v-0.49104h7.8036q3.1055 0 4.6715 1.3537 1.5793 1.3404 1.5793 3.3178 0 1.7253-1.1812 2.933-1.1812 1.1944-3.278 1.6457 3.7823 5.282 4.3663 6.065 0.59721 0.78301 1.5129 1.4333 0.91573 0.6503 2.4021 0.75647v0.49104zm-10.538-8.945q2.8932-0.07963 4.5255-1.3139 1.6457-1.2475 1.6457-3.0657 0-1.7651-1.4864-2.9728t-4.3663-1.2077q1.9111 0.26543 2.8932 1.4068 0.99536 1.1281 0.99536 2.8932 0 3.5567-4.207 4.2601zm-1.937 8.453q-0.571-0.384-0.704-1.035-0.133-0.65-0.133-1.924v-12.966q0-0.75647 0.54413-1.0352h-2.8534q0.57067 0.38487 0.70338 1.0352 0.13271 0.6503 0.13271 1.9244v11.042q0 1.2741-0.13271 1.9244t-0.70338 1.0352h3.1453zm-0.29197-8.7724h0.59721q2.4552 0 3.8752-1.0086 1.42-1.0219 1.42-2.933 0-1.6589-1.0219-2.7339t-2.641-1.075q-0.61048 0-2.2296 0.23888v7.5116zm10.896 8.7193q-1.407-0.185-3.053-2.495l-3.9283-5.5474q-0.6503 0.13271-1.42 0.13271l5.7731 7.9098h2.6277z"/>
 <path d="m72.3434 27.76q2.4818-5.3749 5.0299-8.1354t4.7512-2.7605q0.99536 0 1.6324 0.70338 0.6503 0.69011 0.6503 1.6058 0 2.0969-2.8135 4.8308t-5.574 3.7293q-1.4731 3.9018-4.2999 5.6802 1.6987 1.0086 3.0392 1.0086 0.82283 0 1.9907-0.57067 1.1679-0.58394 3.1586-2.2031 0.79628-0.6503 0.88918-0.6503 0.07963 0 0.15926 0.07963t0.07963 0.17253q0 0.25216-1.1413 1.2608t-2.6676 1.7651q-1.5129 0.7432-2.787 0.7432-1.2873 0-3.5036-1.1148-2.3225 1.221-4.6583 1.221-1.4333 0-2.4419-0.53086-1.0086-0.54413-1.0086-1.3404 0-0.75647 0.78301-1.221 0.79628-0.4645 2.15-0.4645 1.858 0 4.061 1.0617 1.221-1.3802 2.3623-4.2468h-0.43796q-2.1367 0-3.6364-1.3935t-1.4997-3.3311q0-2.6676 2.7339-4.7113 2.7472-2.0571 6.1048-2.0571 0.76974 0 2.0571 0.33178 0 0.21234-0.13271 0.49104-1.0617-0.22561-1.9907-0.22561-3.0657 0-5.1626 2.1898-2.0836 2.1898-2.0836 4.9635 0 1.4333 1.0883 2.296 1.0883 0.84937 2.495 0.84937 0.39814 0 0.62376-0.02654zm3.862-0.78301q3.1055-1.3802 5.0033-4.0743t1.8978-4.3796q0-1.0617-1.0086-1.0617-1.3802 0-2.8932 1.9774-1.5129 1.9774-2.9993 7.5382zm-6.8215 6.2243q-1.7916-0.95554-3.8354-0.95554-0.88918 0-1.4068 0.2787-0.51758 0.2787-0.51758 0.72993 0 0.47777 0.7432 0.8361t1.8049 0.35833q2.0571 0 3.2117-1.2475z"/>
</svg>
