<svg xmlns="http://www.w3.org/2000/svg" width="89" height="45"><path d="M22.774 26.914h-2.906l-2.283-5.919H9.463l-2.15 5.919h-2.72l7.471-19.456h2.774zm-5.972-7.963q-2.389-6.317-2.694-7.166-.305-.863-.677-2.296h-.066q-.372 1.964-.995 3.636l-2.177 5.826h6.61zM41.965 34.914h-7.59v-2.176q4.737-2.283 4.737-8.016 0-3.292-1.646-5.335-1.645-2.058-4.392-2.058-2.655 0-4.327 2.057t-1.672 5.336q0 5.64 4.698 8.015v2.177h-7.591v-2.31h4.273q-4.048-3.25-4.048-8.32 0-4.008 2.35-6.583 2.348-2.575 6.317-2.575 3.915 0 6.29 2.602 2.39 2.6 2.39 6.556 0 4.95-4.062 8.32h4.273v2.31zM61.766 26.914h-4.804l-6.118-8.4H49v4.95q0 1.34.12 1.897.12.544.637.81.53.252 1.791.252v.491H43.89v-.491q1.26 0 1.778-.252.531-.266.65-.81.12-.557.12-1.898V12.368q0-1.34-.12-1.884-.119-.558-.65-.81-.517-.265-1.778-.265v-.491h7.803q3.106 0 4.672 1.354 1.58 1.34 1.58 3.317 0 1.726-1.182 2.933-1.181 1.195-3.278 1.646 3.782 5.282 4.366 6.065.598.783 1.513 1.433.916.65 2.402.757v.49zm-10.538-8.945q2.894-.08 4.526-1.314Q57.4 15.408 57.4 13.59q0-1.765-1.487-2.972t-4.366-1.208q1.911.265 2.893 1.407.995 1.128.995 2.893 0 3.557-4.207 4.26zm-1.937 8.453q-.57-.384-.704-1.035-.133-.65-.133-1.924V10.497q0-.756.545-1.035h-2.854q.57.385.704 1.035.132.65.132 1.924v11.042q0 1.274-.132 1.925t-.704 1.035h3.145zM49 17.65h.598q2.455 0 3.875-1.009 1.42-1.022 1.42-2.933 0-1.659-1.022-2.734T51.229 9.9q-.61 0-2.23.239v7.512zm10.896 8.719q-1.407-.185-3.053-2.495l-3.928-5.547q-.65.132-1.42.132l5.773 7.91h2.628zM72.343 27.76q2.482-5.375 5.03-8.135t4.751-2.76q.996 0 1.633.702.65.69.65 1.606 0 2.097-2.813 4.831t-5.574 3.73q-1.473 3.901-4.3 5.68 1.699 1.008 3.039 1.008.823 0 1.99-.57 1.169-.584 3.16-2.204.796-.65.888-.65.08 0 .16.08t.08.172q0 .252-1.142 1.261t-2.668 1.765q-1.512.743-2.787.743-1.287 0-3.503-1.114-2.323 1.22-4.658 1.22-1.434 0-2.442-.53-1.009-.544-1.009-1.34 0-.757.783-1.222.796-.464 2.15-.464 1.858 0 4.061 1.062 1.221-1.38 2.362-4.247h-.438q-2.136 0-3.636-1.394t-1.5-3.33q0-2.668 2.734-4.712 2.747-2.057 6.105-2.057.77 0 2.057.331 0 .213-.133.492-1.061-.226-1.99-.226-3.066 0-5.163 2.19-2.083 2.19-2.083 4.963 0 1.434 1.088 2.296 1.088.85 2.495.85.398 0 .624-.027zm3.862-.783q3.106-1.38 5.004-4.074t1.897-4.38q0-1.062-1.008-1.062-1.38 0-2.893 1.978-1.513 1.977-3 7.538zm-6.821 6.224q-1.792-.955-3.836-.955-.889 0-1.406.278-.518.28-.518.73 0 .478.743.836t1.805.359q2.057 0 3.212-1.248z"/></svg>